<?xml version="1.0" encoding="utf-8"?>
<!-- Generator: Adobe Illustrator 23.0.1, SVG Export Plug-In . SVG Version: 6.00 Build 0)  -->
<svg version="1.1" id="Layer_1" xmlns="http://www.w3.org/2000/svg" xmlns:xlink="http://www.w3.org/1999/xlink" x="0px" y="0px"
	 viewBox="0 0 471.64 433.56" style="enable-background:new 0 0 471.64 433.56;" xml:space="preserve">
<style type="text/css">
	.st0{fill:#F4F5F7;}
	.st1{fill:#F1F2F2;}
	.st2{fill:#FAA31A;}
	.st3{fill:url(#SVGID_1_);}
	.st4{fill:url(#SVGID_2_);}
	.st5{fill:#F4D7CE;}
	.st6{fill:#FEBB00;}
	.st7{fill:#194767;}
	.st8{fill:#00A79D;}
	.st9{fill:#825204;}
	.st10{fill:#2D5DEA;}
	.st11{fill-rule:evenodd;clip-rule:evenodd;fill:#E3EEF7;}
	.st12{fill-rule:evenodd;clip-rule:evenodd;fill:#F1F2F2;}
	.st13{fill-rule:evenodd;clip-rule:evenodd;fill:#282B2E;}
	.st14{fill-rule:evenodd;clip-rule:evenodd;fill:#FFFFFF;}
	.st15{fill:none;stroke:#D1D3D4;stroke-width:0.125;stroke-miterlimit:10;}
	.st16{fill:#231F20;}
	.st17{fill-rule:evenodd;clip-rule:evenodd;fill:#AFC4D5;}
	.st18{fill:#BCBEC0;}
	.st19{fill:#939598;}
	.st20{fill:#FCD2C5;}
	.st21{fill:#061338;}
	.st22{fill:#E3EEF7;}
	.st23{opacity:0.72;fill-rule:evenodd;clip-rule:evenodd;fill:#E6E7E8;}
	.st24{opacity:0.72;fill-rule:evenodd;clip-rule:evenodd;fill:#808285;}
	.st25{fill-rule:evenodd;clip-rule:evenodd;fill:#F0F1F2;}
	.st26{opacity:0.72;fill-rule:evenodd;clip-rule:evenodd;fill:#EFEFEF;}
	.st27{fill-rule:evenodd;clip-rule:evenodd;fill:#E6E7E8;}
	.st28{fill:#FFC7B0;}
	.st29{fill:#50514F;}
	.st30{filter:url(#Adobe_OpacityMaskFilter);}
	.st31{filter:url(#Adobe_OpacityMaskFilter_1_);}
	.st32{mask:url(#SVGID_3_);fill:url(#SVGID_4_);}
	.st33{opacity:0.2;fill:url(#SVGID_5_);}
	.st34{filter:url(#Adobe_OpacityMaskFilter_2_);}
	.st35{filter:url(#Adobe_OpacityMaskFilter_3_);}
	.st36{mask:url(#SVGID_6_);fill:url(#SVGID_7_);}
	.st37{opacity:0.2;fill:url(#SVGID_8_);}
	.st38{filter:url(#Adobe_OpacityMaskFilter_4_);}
	.st39{filter:url(#Adobe_OpacityMaskFilter_5_);}
	.st40{mask:url(#SVGID_9_);fill:url(#SVGID_10_);}
	.st41{opacity:0.2;fill:url(#SVGID_11_);}
	.st42{filter:url(#Adobe_OpacityMaskFilter_6_);}
	.st43{filter:url(#Adobe_OpacityMaskFilter_7_);}
	.st44{mask:url(#SVGID_12_);fill:url(#SVGID_13_);}
	.st45{opacity:0.3;fill:url(#SVGID_14_);}
	.st46{filter:url(#Adobe_OpacityMaskFilter_8_);}
	.st47{filter:url(#Adobe_OpacityMaskFilter_9_);}
	.st48{mask:url(#SVGID_15_);fill:url(#SVGID_16_);}
	.st49{opacity:0.3;fill:url(#SVGID_17_);}
	.st50{filter:url(#Adobe_OpacityMaskFilter_10_);}
	.st51{filter:url(#Adobe_OpacityMaskFilter_11_);}
	.st52{mask:url(#SVGID_18_);fill:url(#SVGID_19_);}
	.st53{opacity:0.3;fill:url(#SVGID_20_);}
	.st54{filter:url(#Adobe_OpacityMaskFilter_12_);}
	.st55{filter:url(#Adobe_OpacityMaskFilter_13_);}
	.st56{mask:url(#SVGID_21_);fill:url(#SVGID_22_);}
	.st57{opacity:0.2;fill:url(#SVGID_23_);}
	.st58{fill:#081E69;}
	.st59{fill:#58595B;}
	.st60{opacity:0.12;fill:#6D6E71;}
	.st61{fill:#F2F2F2;}
	.st62{fill:#6D6E71;}
	.st63{opacity:0.4;fill:#FFFFFF;}
	.st64{opacity:0.3;fill:#BCBEC0;}
	.st65{fill:#596068;}
	.st66{filter:url(#Adobe_OpacityMaskFilter_14_);}
	.st67{filter:url(#Adobe_OpacityMaskFilter_15_);}
	.st68{mask:url(#SVGID_24_);fill:url(#SVGID_25_);}
	.st69{opacity:0.2;fill:url(#SVGID_26_);}
	.st70{fill:#E3D7C9;}
	.st71{fill:#A7A9AC;}
	.st72{filter:url(#Adobe_OpacityMaskFilter_16_);}
	.st73{filter:url(#Adobe_OpacityMaskFilter_17_);}
	.st74{mask:url(#SVGID_27_);fill:url(#SVGID_28_);}
	.st75{opacity:0.2;fill:url(#SVGID_29_);}
	.st76{filter:url(#Adobe_OpacityMaskFilter_18_);}
	.st77{filter:url(#Adobe_OpacityMaskFilter_19_);}
	.st78{mask:url(#SVGID_30_);fill:url(#SVGID_31_);}
	.st79{opacity:0.2;fill:url(#SVGID_32_);}
	.st80{filter:url(#Adobe_OpacityMaskFilter_20_);}
	.st81{filter:url(#Adobe_OpacityMaskFilter_21_);}
	.st82{mask:url(#SVGID_33_);fill:url(#SVGID_34_);}
	.st83{opacity:0.2;fill:url(#SVGID_35_);}
	.st84{filter:url(#Adobe_OpacityMaskFilter_22_);}
	.st85{filter:url(#Adobe_OpacityMaskFilter_23_);}
	.st86{mask:url(#SVGID_36_);fill:url(#SVGID_37_);}
	.st87{opacity:0.2;fill:url(#SVGID_38_);}
	.st88{filter:url(#Adobe_OpacityMaskFilter_24_);}
	.st89{filter:url(#Adobe_OpacityMaskFilter_25_);}
	.st90{mask:url(#SVGID_39_);fill:url(#SVGID_40_);}
	.st91{opacity:0.2;fill:url(#SVGID_41_);}
	.st92{fill:#E6E7E8;}
	.st93{opacity:0.2;}
	.st94{fill:#FFFFF7;}
	.st95{opacity:0.1;}
	.st96{fill:#FFFFFF;}
	.st97{filter:url(#Adobe_OpacityMaskFilter_26_);}
	.st98{filter:url(#Adobe_OpacityMaskFilter_27_);}
	.st99{mask:url(#SVGID_42_);fill:url(#SVGID_43_);}
	.st100{opacity:0.6;fill:url(#SVGID_44_);}
	.st101{filter:url(#Adobe_OpacityMaskFilter_28_);}
	.st102{filter:url(#Adobe_OpacityMaskFilter_29_);}
	.st103{mask:url(#SVGID_45_);fill:url(#SVGID_46_);}
	.st104{fill:url(#SVGID_47_);}
	.st105{filter:url(#Adobe_OpacityMaskFilter_30_);}
	.st106{filter:url(#Adobe_OpacityMaskFilter_31_);}
	.st107{mask:url(#SVGID_48_);fill:url(#SVGID_49_);}
	.st108{opacity:0.2;fill:url(#SVGID_50_);}
	.st109{filter:url(#Adobe_OpacityMaskFilter_32_);}
	.st110{filter:url(#Adobe_OpacityMaskFilter_33_);}
	.st111{mask:url(#SVGID_51_);fill:url(#SVGID_52_);}
	.st112{opacity:0.2;fill:url(#SVGID_53_);}
	.st113{filter:url(#Adobe_OpacityMaskFilter_34_);}
	.st114{filter:url(#Adobe_OpacityMaskFilter_35_);}
	.st115{mask:url(#SVGID_54_);fill:url(#SVGID_55_);}
	.st116{fill:url(#SVGID_56_);}
	.st117{filter:url(#Adobe_OpacityMaskFilter_36_);}
	.st118{filter:url(#Adobe_OpacityMaskFilter_37_);}
	.st119{mask:url(#SVGID_57_);fill:url(#SVGID_58_);}
	.st120{fill:url(#SVGID_59_);}
	.st121{filter:url(#Adobe_OpacityMaskFilter_38_);}
	.st122{filter:url(#Adobe_OpacityMaskFilter_39_);}
	.st123{mask:url(#SVGID_60_);fill:url(#SVGID_61_);}
	.st124{opacity:0.1;fill:url(#SVGID_62_);}
	.st125{filter:url(#Adobe_OpacityMaskFilter_40_);}
	.st126{filter:url(#Adobe_OpacityMaskFilter_41_);}
	.st127{mask:url(#SVGID_63_);fill:url(#SVGID_64_);}
	.st128{opacity:0.2;fill:url(#SVGID_65_);}
	.st129{filter:url(#Adobe_OpacityMaskFilter_42_);}
	.st130{filter:url(#Adobe_OpacityMaskFilter_43_);}
	.st131{mask:url(#SVGID_66_);fill:url(#SVGID_67_);}
	.st132{opacity:0.2;fill:url(#SVGID_68_);}
	.st133{filter:url(#Adobe_OpacityMaskFilter_44_);}
	.st134{filter:url(#Adobe_OpacityMaskFilter_45_);}
	.st135{mask:url(#SVGID_69_);fill:url(#SVGID_70_);}
	.st136{opacity:0.2;fill:url(#SVGID_71_);}
	.st137{fill:#EEB292;}
	.st138{filter:url(#Adobe_OpacityMaskFilter_46_);}
	.st139{filter:url(#Adobe_OpacityMaskFilter_47_);}
	.st140{mask:url(#SVGID_72_);fill:url(#SVGID_73_);}
	.st141{opacity:0.2;fill:url(#SVGID_74_);}
	.st142{filter:url(#Adobe_OpacityMaskFilter_48_);}
	.st143{filter:url(#Adobe_OpacityMaskFilter_49_);}
	.st144{mask:url(#SVGID_75_);fill:url(#SVGID_76_);}
	.st145{opacity:0.2;fill:url(#SVGID_77_);}
	.st146{filter:url(#Adobe_OpacityMaskFilter_50_);}
	.st147{filter:url(#Adobe_OpacityMaskFilter_51_);}
	.st148{mask:url(#SVGID_78_);fill:url(#SVGID_79_);}
	.st149{opacity:0.2;fill:url(#SVGID_80_);}
	.st150{filter:url(#Adobe_OpacityMaskFilter_52_);}
	.st151{filter:url(#Adobe_OpacityMaskFilter_53_);}
	.st152{mask:url(#SVGID_81_);fill:url(#SVGID_82_);}
	.st153{opacity:0.2;fill:url(#SVGID_83_);}
	.st154{filter:url(#Adobe_OpacityMaskFilter_54_);}
	.st155{filter:url(#Adobe_OpacityMaskFilter_55_);}
	.st156{mask:url(#SVGID_84_);fill:url(#SVGID_85_);}
	.st157{opacity:0.1;fill:url(#SVGID_86_);}
	.st158{filter:url(#Adobe_OpacityMaskFilter_56_);}
	.st159{filter:url(#Adobe_OpacityMaskFilter_57_);}
	.st160{mask:url(#SVGID_87_);fill:url(#SVGID_88_);}
	.st161{opacity:0.1;fill:url(#SVGID_89_);}
	.st162{filter:url(#Adobe_OpacityMaskFilter_58_);}
	.st163{filter:url(#Adobe_OpacityMaskFilter_59_);}
	.st164{mask:url(#SVGID_90_);fill:url(#SVGID_91_);}
	.st165{opacity:0.2;fill:url(#SVGID_92_);}
	.st166{filter:url(#Adobe_OpacityMaskFilter_60_);}
	.st167{filter:url(#Adobe_OpacityMaskFilter_61_);}
	.st168{mask:url(#SVGID_93_);fill:url(#SVGID_94_);}
	.st169{opacity:0.2;fill:url(#SVGID_95_);}
	.st170{filter:url(#Adobe_OpacityMaskFilter_62_);}
	.st171{filter:url(#Adobe_OpacityMaskFilter_63_);}
	.st172{mask:url(#SVGID_96_);fill:url(#SVGID_97_);}
	.st173{opacity:0.2;fill:url(#SVGID_98_);}
	.st174{filter:url(#Adobe_OpacityMaskFilter_64_);}
	.st175{filter:url(#Adobe_OpacityMaskFilter_65_);}
	.st176{mask:url(#SVGID_99_);fill:url(#SVGID_100_);}
	.st177{opacity:0.1;fill:url(#SVGID_101_);}
	.st178{fill:#3A3937;}
	.st179{fill:none;}
	.st180{fill:#808285;}
	.st181{fill:#D1D3D4;}
	.st182{fill:#295FD6;}
	.st183{fill:url(#SVGID_102_);}
	.st184{fill:url(#SVGID_103_);}
	.st185{fill:#A3AFBD;}
	.st186{fill:url(#SVGID_104_);}
	.st187{fill:url(#SVGID_105_);}
	.st188{fill:url(#SVGID_106_);}
	.st189{fill:url(#SVGID_107_);}
	.st190{fill:url(#SVGID_108_);}
	.st191{fill:url(#SVGID_109_);}
	.st192{fill-rule:evenodd;clip-rule:evenodd;fill:#295FD6;}
	.st193{fill-rule:evenodd;clip-rule:evenodd;fill:#081E69;}
	.st194{fill-rule:evenodd;clip-rule:evenodd;fill:#061338;}
	.st195{clip-path:url(#SVGID_111_);}
	.st196{fill:url(#SVGID_112_);}
	.st197{fill:url(#SVGID_113_);}
	.st198{fill:url(#SVGID_114_);}
	.st199{fill:url(#SVGID_115_);}
	.st200{fill:url(#SVGID_116_);}
	.st201{fill:url(#SVGID_117_);}
	.st202{fill:url(#SVGID_118_);}
	.st203{fill:url(#SVGID_119_);}
	.st204{fill-rule:evenodd;clip-rule:evenodd;fill:#FAA31A;}
	.st205{fill-rule:evenodd;clip-rule:evenodd;fill:#FCD305;}
	.st206{fill-rule:evenodd;clip-rule:evenodd;fill:#DB8D26;}
	.st207{fill:#D89D09;}
	.st208{fill:#414042;}
	.st209{fill:#0E338C;}
	.st210{clip-path:url(#SVGID_121_);}
	.st211{fill:#304B8E;}
	.st212{enable-background:new    ;}
	.st213{clip-path:url(#SVGID_123_);}
	.st214{fill:#7B8D96;}
	.st215{fill:#53B7E8;}
	.st216{fill:#FF317B;}
	.st217{fill:#FCD305;}
	.st218{fill:#FFEC00;}
	.st219{clip-path:url(#SVGID_125_);}
	.st220{fill:#4B58AD;}
</style>
<g>
	<g>
		<g>
			<g>
				<path class="st5" d="M199.5,249.88c0.31,0.71,4.76-0.13,5.33-0.64c0.99-1.65,1.1-2.17,1.17-3.62c-1.18,1.08-2.67,1.92-4.11,2.64
					C200.53,248.93,198.93,248.83,199.5,249.88z"/>
				<path class="st5" d="M201.47,253.21c-0.13,0.84,7.28,4.84,9.16,1.32c0.11-0.21,1.21-2.61,2.59-5.31
					c-1.53-1.25-7.25-3.69-7.33-3.62C203.62,249.91,201.78,251.14,201.47,253.21z"/>
				<path class="st6" d="M186.95,141.39c-3.2,0.63-18.92,10.54-18.09,11.94c4.56,7.68,25.18,27.83,33.21,39.36
					c9.85,14.15,16.2,2.23,14.6-3.02C212.45,175.85,194.33,139.95,186.95,141.39z"/>
				<path class="st5" d="M214.91,186.84c-5.41-2.89-8.76,0.25-9.91,3.06c-0.26,0.64-0.41,1.25-0.45,1.78
					c-0.64,9.64,3.17,45.72,0.91,55.66c3.32,0.05,5.73,1.29,7.76,1.88C215.31,244.09,220.82,189.99,214.91,186.84z"/>
				<path class="st6" d="M186.17,134.82c-3.27,0.69-21.9,17.71-21.53,18.31c2.38,3.88,37.67,40.35,38.37,41.14
					c0.14,4.05,0.52,9.5,0.92,15.25c0.88,12.56,1.97,28.18,0.77,33.81l11.76,1.54c2.71-14.11,5.64-47.78,2.09-58.23
					C215.03,175.73,195.93,132.77,186.17,134.82z"/>
			</g>
			<path class="st5" d="M130.86,293.77c-0.74,5.38,2.23,126.06,2.23,126.06c0.06,0.24,4.61,1,7.65-1.18
				c0,0,14.04-117.18,14.39-119.52C153.06,300.92,133.8,296.35,130.86,293.77z"/>
			<path class="st7" d="M142.36,418.58c-1.02-1.37-2.24-3.48-2.24-3.48l-6.51,3.1c0,0-0.55,0.66-0.36,2.67c0,0-1.05,2.18-0.02,4.18
				c0.59,1.15,4.64,3.11,6.43,3.82c1.79,0.71,4.29,1.43,7.38,1.5c3.1,0.07,6.99-1.3,7.1-3.1
				C154.37,423.7,144.32,421.23,142.36,418.58z"/>
			<g>
				<path class="st7" d="M167.55,409.73c-1.2-1.62-2.05-1.74-2.05-1.74l-6.9,2.08c0,0,0.51,2.38,0.68,4.08
					c0.32,3.28-5.47,11.86-2.91,14.35c1.29,1.26,5.1-0.34,7.35-2.47c2.25-2.13,4.01-4.2,4.47-6.07c0.57-2.33,2.53-5.9,2.19-7.15
					C169.79,410.64,167.55,409.73,167.55,409.73z"/>
				<path class="st5" d="M158.18,409.95c0,0,0.76,1.65,1.09,4.2c0,0,2.46,0.62,5.07-0.18c1.47-0.45,3.21-4.24,3.21-4.24
					c-1.2-1.62-2.07-2.66-2.07-2.66L158.18,409.95z"/>
				<path class="st8" d="M137.26,219.76c-15.11,1.74-34.89,0.84-40.03-1.11c-0.38,4.25,4.92,58.82,11.17,111.56
					c2.99,25.24,50.38,81.51,50.38,81.51c0.1,0.33,5.41,0.96,8.32-2.58c0,0-32.07-64.05-31.29-80.21
					C137.56,292.44,141.62,246.25,137.26,219.76z"/>
			</g>
			<path class="st5" d="M133,417.5c0,0,0.05,1.36,0.25,3.37c0,0,3.83,1.64,5.23,0.99c2.46-1.16,3.88-3.27,3.88-3.27
				c-1.47-2.11-2.01-3.84-2.01-3.84L133,417.5z"/>
			<path class="st8" d="M130.58,211.47c0,0-4.77,77.37-1.81,115.01c3.42,43.6,3.72,89.6,3.72,89.6c2.86,3.59,9.18,0.65,9.29,0.32
				c0,0,31.78-197.57,31.17-205.71C167.79,212.58,145.67,213.43,130.58,211.47z"/>
			<path class="st0" d="M91.01,224.1c0,0,12.44,9.28,28.69,13.44l8-12.24c0,0,2.76,15.18,5.13,15.85
				c13.28,3.78,27.25,5.83,37.81,2.66l0.19-21.61l-70.9-26.74C99.93,195.47,94.48,210.64,91.01,224.1z"/>
			<path class="st5" d="M167.38,101.1c-0.61,4.22-5.11,15.15-7.14,16.85c1.15,8.44,13.33,12.02,15.47,7.87
				c-0.54-5.3,4.09-13.48,4.36-14.31C176.94,111.08,168.18,102.14,167.38,101.1z"/>
			<path class="st6" d="M175.71,125.82c0,0-3.47,2.45-6.37,1.35c-4.23-1.6-9.09-9.22-9.09-9.22s-9.99-0.2-13.32-0.38
				c-10-0.53-16.84,6.65-21.34,13.85c-10.15,16.23-24.6,55.54-28.42,66.14c-0.63,1.74-0.3,3.7,0.94,5.07
				c14.88,16.44,62.25,26.13,71.54,24.67c7.14-1.12,10.4-53.04,20.19-73.09c2.81-5.75,3.44-13.67-2.79-20.27
				C185.43,132.24,175.71,125.82,175.71,125.82z"/>
			<g>
				<path class="st5" d="M18,105.26c-0.92-0.48-3.06-1.99-3.86-2.15c-0.51-0.1-2.02,0.21-2.49,0.64c-0.63,0.57-0.24,1.43-0.24,1.43
					c-0.95,0.57,0.9,2.65,0.64,2.73c-1.08,0.35-0.92,1.94,2.55,3.91c0.21,0.12,7.77,6.65,10.36,8.54c1.29-1.5,3.89-7.14,3.83-7.22
					c-1.28-1.29-2.76-2.54-4.29-3.69C22.67,108.06,18.31,105.44,18,105.26z"/>
				<path class="st6" d="M128.82,121.79c-8.91,0.66-36.13,10.16-50.03,12.22c-17.05,2.52-9.2,13.51-3.79,14.42
					c14.25,2.38,54.46,2.13,56.45-5.13C132.32,140.15,130.43,121.67,128.82,121.79z"/>
				<path class="st5" d="M78.59,136.68c-8.34-4.87-42.35-17.51-50.24-23.96c-1.52,2.95-2.98,5.3-4.41,6.85
					c13.19,10.35,48.92,32.43,54.38,28.54c5-3.56,3.67-7.96,1.67-10.24C79.53,137.35,79.04,136.95,78.59,136.68z"/>
				<path class="st6" d="M142.5,117.85c-28.78,2.85-64.53,16.03-65.55,16.31c-3.69-1.68-8.74-3.76-14.07-5.96
					c-11.63-4.8-26.11-10.78-30.62-14.36l-6.62,9.85c11.43,8.71,40.27,26.31,51.21,27.79c11.33,1.69,53.08,1.88,55.58-7.77
					C133.28,140.47,145.8,117.53,142.5,117.85z"/>
			</g>
			<path class="st9" d="M180.05,105.98c0.46,4.39-1.48,9.57-3.66,14.49c-2.12,4.79-4.4,9.17-4.25,21.68
				c0.21,17.98-13.09,33.92-9.98,36.75c2.83,2.58,16.05-3.85,22-22.24c1.02-3.15,2.49-9.96,1.1-15.53
				c-0.84-3.35-1.64-10.82,2.73-19.38c2.99-5.85,3.84-12.01,3.34-17.43C189.64,99.59,180.18,105.87,180.05,105.98z"/>
			<path class="st5" d="M183.89,89.11c-6.05-1.35-12.31,3.43-13.65,9.42c-0.01,0.06-1.39,6.22-1.39,6.22
				c-1.01,4.52,4.36,13.18,8.48,13.23c9.74,0.11,15.54-16.49,15.66-18.48C193.31,93.92,189.52,90.37,183.89,89.11z"/>
			<path class="st9" d="M188.17,84.34c0,0,0.66-2.65-4.12-6.29c-3.83-2.91-12.2-3.19-19.61,1.84c-7.41,5.03-13.5,13.94-12.76,25.09
				c0.74,11.15-5.1,17.98-8.38,20.74c-5.46,4.59-7.69,12.2-8.24,15.93c-3.24,21.81,11.24,36.44,16.83,35.69
				c6.14-0.82-2.45-24.85,9.17-42.36c8.09-12.19,4.74-17.41,4.79-23.44c0.07-7.9,5.64-16.83,9.64-19.65
				c4.4-3.1,11.46-2.03,11.46-2.03s9.21,5.04,1.74,19.87c6.27-3.21,10.53-17.72,4.97-22.91C191.07,84.42,188.17,84.34,188.17,84.34z
				"/>
			<path class="st5" d="M171.15,96.26c-1.51-0.51-3.64,1.02-4.16,2.53c-0.49,1.43,0.5,4.19,1.79,5.06c1.13-1.38,3.42-4.17,4.58-6.01
				C172.72,97.03,171.73,96.46,171.15,96.26z"/>
		</g>
		<g>
			<g>
				<g>
					<g>
						<path class="st10" d="M73.01,39.1h42.18c5.93,0,10.74,4.81,10.74,10.74v19.71c0,5.93-4.81,10.74-10.74,10.74H92.22v15.87
							L76.67,80.3h-3.66c-5.93,0-10.74-4.81-10.74-10.74V49.84C62.27,43.91,67.07,39.1,73.01,39.1z"/>
					</g>
				</g>
			</g>
		</g>
		<g>
			<g id="XMLID_4_">
				<g>
					<rect x="232.76" y="231.21" class="st11" width="50.49" height="23.08"/>
				</g>
			</g>
			<g id="XMLID_3_">
				<g>
					<path class="st12" d="M339.7,129.74H177.25c-4.57,0-8.31,3.74-8.31,8.31v88.41c0,4.57,3.74,8.31,8.31,8.31H339.7
						c4.57,0,8.31-3.74,8.31-8.31v-88.41C348.02,133.48,344.28,129.74,339.7,129.74z"/>
				</g>
			</g>
			<g id="XMLID_2_">
				<g>
					<rect x="174.45" y="134.59" class="st13" width="168.05" height="85.34"/>
				</g>
			</g>
			<g id="XMLID_1_">
				<g>
					<path class="st14" d="M297.5,251h-82c-1.77,0-3.21,1.44-3.21,3.21c0,1.77,1.45,3.21,3.21,3.21h82c1.77,0,3.21-1.45,3.21-3.21
						C300.71,252.44,299.27,251,297.5,251z"/>
				</g>
			</g>
			<rect x="181.03" y="138.87" class="st10" width="4.67" height="3.41"/>
			<rect x="181.03" y="144.41" class="st10" width="4.67" height="3.41"/>
			<rect x="186.8" y="149.95" class="st10" width="4.67" height="3.41"/>
			<rect x="186.8" y="155.49" class="st10" width="4.67" height="3.41"/>
			<rect x="186.8" y="161.03" class="st10" width="4.67" height="3.41"/>
			<rect x="181.18" y="166.57" class="st10" width="4.67" height="3.41"/>
			<rect x="181.18" y="172.1" class="st10" width="4.67" height="3.41"/>
			<rect x="181.18" y="177.64" class="st10" width="4.67" height="3.41"/>
			<rect x="181.18" y="183.18" class="st10" width="4.67" height="3.41"/>
			<rect x="181.18" y="189.35" class="st10" width="4.67" height="3.41"/>
			<rect x="181.18" y="194.89" class="st10" width="4.67" height="3.41"/>
			<rect x="181.18" y="200.43" class="st10" width="4.67" height="3.41"/>
			<rect x="181.18" y="205.97" class="st10" width="4.67" height="3.41"/>
			<line class="st15" x1="207.34" y1="138.31" x2="207.34" y2="212.72"/>
			<rect x="174.45" y="211.82" class="st16" width="168.05" height="8.11"/>
			<g>
				<g id="XMLID_103_">
					<g>
						<rect x="224.13" y="141.23" class="st17" width="21.74" height="1.93"/>
					</g>
				</g>
				<g id="XMLID_102_">
					<g>
						<rect x="224.13" y="146" class="st17" width="21.74" height="1.93"/>
					</g>
				</g>
				<g id="XMLID_101_">
					<g>
						<rect x="239.22" y="150.77" class="st17" width="21.15" height="1.93"/>
					</g>
				</g>
				<g id="XMLID_100_">
					<g>
						<rect x="252.51" y="141.23" class="st14" width="12.69" height="1.93"/>
					</g>
				</g>
				<g id="XMLID_99_">
					<g>
						<rect x="252.51" y="146" class="st14" width="21.74" height="1.93"/>
					</g>
				</g>
				<g id="XMLID_98_">
					<g>
						<rect x="271.24" y="141.23" class="st14" width="24.16" height="1.93"/>
					</g>
				</g>
				<g id="XMLID_97_">
					<g>
						<rect x="300.23" y="141.23" class="st14" width="12.67" height="1.93"/>
					</g>
				</g>
				<g id="XMLID_96_">
					<g>
						<rect x="318.35" y="141.23" class="st14" width="15.7" height="1.93"/>
					</g>
				</g>
				<g id="XMLID_95_">
					<g>
						<rect x="279.08" y="146" class="st14" width="27.46" height="1.93"/>
					</g>
				</g>
				<g id="XMLID_94_">
					<g>
						<rect x="310.64" y="146" class="st14" width="8.2" height="1.93"/>
					</g>
				</g>
				<g id="XMLID_93_">
					<g>
						<rect x="266.4" y="150.77" class="st14" width="15.72" height="1.93"/>
					</g>
				</g>
				<g id="XMLID_92_">
					<g>
						<rect x="224.13" y="160.31" class="st17" width="21.74" height="1.93"/>
					</g>
				</g>
				<g id="XMLID_91_">
					<g>
						<rect x="224.13" y="165.09" class="st17" width="21.74" height="1.93"/>
					</g>
				</g>
				<g id="XMLID_90_">
					<g>
						<rect x="252.51" y="160.31" class="st14" width="12.69" height="1.93"/>
					</g>
				</g>
				<g id="XMLID_89_">
					<g>
						<rect x="252.51" y="165.09" class="st14" width="19.58" height="1.93"/>
					</g>
				</g>
				<g id="XMLID_88_">
					<g>
						<rect x="271.24" y="160.31" class="st14" width="18.58" height="1.93"/>
					</g>
				</g>
				<g id="XMLID_87_">
					<g>
						<rect x="293.53" y="160.31" class="st14" width="9.77" height="1.93"/>
					</g>
				</g>
				<g id="XMLID_86_">
					<g>
						<rect x="307.48" y="160.31" class="st14" width="12.08" height="1.93"/>
					</g>
				</g>
				<g id="XMLID_85_">
					<g>
						<rect x="291.14" y="165.09" class="st14" width="21.76" height="1.93"/>
					</g>
				</g>
				<g id="XMLID_84_">
					<g>
						<rect x="211.24" y="169.86" class="st17" width="21.74" height="1.93"/>
					</g>
				</g>
				<g id="XMLID_83_">
					<g>
						<rect x="224.13" y="174.63" class="st17" width="21.74" height="1.93"/>
					</g>
				</g>
				<g id="XMLID_82_">
					<g>
						<rect x="252.51" y="169.86" class="st14" width="12.69" height="1.93"/>
					</g>
				</g>
				<g id="XMLID_81_">
					<g>
						<rect x="252.51" y="174.63" class="st14" width="39.86" height="1.93"/>
					</g>
				</g>
				<g id="XMLID_80_">
					<g>
						<rect x="271.24" y="169.86" class="st14" width="24.16" height="1.93"/>
					</g>
				</g>
				<g id="XMLID_79_">
					<g>
						<rect x="300.23" y="169.86" class="st14" width="12.67" height="1.93"/>
					</g>
				</g>
				<g id="XMLID_78_">
					<g>
						<rect x="318.35" y="169.86" class="st14" width="15.7" height="1.93"/>
					</g>
				</g>
				<g id="XMLID_77_">
					<g>
						<rect x="297.2" y="174.63" class="st14" width="22.36" height="1.93"/>
					</g>
				</g>
				<g id="XMLID_76_">
					<g>
						<rect x="276.44" y="165.09" class="st14" width="9.26" height="1.93"/>
					</g>
				</g>
			</g>
			<g>
				<g id="XMLID_131_">
					<g>
						<rect x="225.73" y="181.7" class="st17" width="21.74" height="1.93"/>
					</g>
				</g>
				<g id="XMLID_130_">
					<g>
						<rect x="225.73" y="186.46" class="st17" width="21.74" height="1.93"/>
					</g>
				</g>
				<g id="XMLID_129_">
					<g>
						<rect x="240.82" y="191.24" class="st17" width="21.15" height="1.93"/>
					</g>
				</g>
				<g id="XMLID_128_">
					<g>
						<rect x="254.11" y="181.7" class="st14" width="12.69" height="1.93"/>
					</g>
				</g>
				<g id="XMLID_127_">
					<g>
						<rect x="254.11" y="186.46" class="st14" width="21.74" height="1.93"/>
					</g>
				</g>
				<g id="XMLID_126_">
					<g>
						<rect x="272.84" y="181.7" class="st14" width="24.16" height="1.93"/>
					</g>
				</g>
				<g id="XMLID_125_">
					<g>
						<rect x="301.83" y="181.7" class="st14" width="12.67" height="1.93"/>
					</g>
				</g>
				<g id="XMLID_124_">
					<g>
						<rect x="319.95" y="181.7" class="st14" width="15.7" height="1.93"/>
					</g>
				</g>
				<g id="XMLID_123_">
					<g>
						<rect x="280.68" y="186.46" class="st14" width="27.46" height="1.93"/>
					</g>
				</g>
				<g id="XMLID_122_">
					<g>
						<rect x="312.24" y="186.46" class="st14" width="8.2" height="1.93"/>
					</g>
				</g>
				<g id="XMLID_121_">
					<g>
						<rect x="268" y="191.24" class="st14" width="15.72" height="1.93"/>
					</g>
				</g>
				<g id="XMLID_120_">
					<g>
						<rect x="225.73" y="200.78" class="st17" width="21.74" height="1.93"/>
					</g>
				</g>
				<g id="XMLID_119_">
					<g>
						<rect x="225.73" y="205.56" class="st17" width="21.74" height="1.93"/>
					</g>
				</g>
				<g id="XMLID_118_">
					<g>
						<rect x="254.11" y="200.78" class="st14" width="12.69" height="1.93"/>
					</g>
				</g>
				<g id="XMLID_117_">
					<g>
						<rect x="254.11" y="205.56" class="st14" width="19.58" height="1.93"/>
					</g>
				</g>
				<g id="XMLID_116_">
					<g>
						<rect x="272.84" y="200.78" class="st14" width="18.58" height="1.93"/>
					</g>
				</g>
				<g id="XMLID_115_">
					<g>
						<rect x="295.13" y="200.78" class="st14" width="9.77" height="1.93"/>
					</g>
				</g>
				<g id="XMLID_114_">
					<g>
						<rect x="309.08" y="200.78" class="st14" width="12.08" height="1.93"/>
					</g>
				</g>
				<g id="XMLID_113_">
					<g>
						<rect x="292.74" y="205.56" class="st14" width="21.76" height="1.93"/>
					</g>
				</g>
				<g id="XMLID_104_">
					<g>
						<rect x="278.04" y="205.56" class="st14" width="9.26" height="1.93"/>
					</g>
				</g>
			</g>
		</g>
		<g>
			<rect x="150.76" y="274.66" class="st18" width="4.69" height="155.71"/>
			<rect x="211.27" y="274.66" class="st18" width="4.69" height="155.71"/>
			<rect x="377.26" y="274.66" class="st18" width="4.69" height="155.71"/>
			<rect x="437.76" y="274.66" class="st18" width="4.69" height="155.71"/>
		</g>
		<g>
			<rect x="138.3" y="257.42" class="st18" width="90.72" height="17.41"/>
			<rect x="229.02" y="257.42" class="st19" width="221.46" height="17.41"/>
		</g>
		<g>
			<g>
				<path class="st20" d="M276.76,250.06c-0.3,0.71,2.46,2.65,3.22,2.71c1.87-0.41,1.63-1.5,3.44-1.63
					c-1.59-0.12-3.24-0.58-4.73-1.18C277.89,249.57,277.13,248.93,276.76,250.06z"/>
				<path class="st20" d="M279.2,251.85c-2.22,0.46-7.06,2.05-7.4,2.16c-0.97,0.38-3.51,1.01-4.15,1.52
					c-0.41,0.32-1.16,1.66-1.15,2.31c0.02,0.85,0.92,1.12,0.92,1.12c-0.19,1.09,2.59,1.05,2.48,1.3c-0.44,1.05,0.86,1.96,4.62,0.63
					c0.23-0.08,10.11-1.53,13.23-2.25c-0.29-1.96-2.86-7.62-2.96-7.62C282.99,251.14,281.07,251.44,279.2,251.85z"/>
				<path class="st20" d="M337,228.44c-0.69,0-1.31,0.1-1.81,0.28c-9.14,3.13-40.94,20.6-50.98,22.35c1.24,3.08,2.07,5.72,2.3,7.82
					c16.45-3.21,56.52-15.81,57.15-22.48C344.23,230.29,340.04,228.42,337,228.44z"/>
				<path class="st20" d="M356.76,180.97c-5.33,7.17-15.93,33.98-23.46,45.84c-9.24,14.55,4.21,15.8,8.43,12.3
					c11.11-9.22,37.22-39.81,33.03-46.07C372.95,190.33,357.73,179.67,356.76,180.97z"/>
				<path class="st10" d="M355.07,175.88c-3.45,8.45-6.75,16.24-11.02,25.36c-4.3,9.17-8.75,18.66-12.45,24.49
					c-0.63,1-1.19,1.98-1.66,2.94c-3.81,1.69-8.85,4.14-14.17,6.72c-11.62,5.64-26.08,12.66-31.9,13.68l3.03,11.79
					c14.49-2.82,47.67-12.93,56.23-20.29c9.05-7.55,35.13-36.51,32.39-46.37C370.97,177.81,355.34,175.21,355.07,175.88z"/>
			</g>
			<path class="st21" d="M359.24,277.54c-13.06,0.64-81.61,25.17-109.45,41.89c-11.85,7.11-6.92,19.8,6.11,19.01
				c37.69-2.28,87.58-0.88,109.74-16.76C400.88,296.43,366.21,277.19,359.24,277.54z"/>
			<path class="st20" d="M286.23,410.39c0.92,2.97,0.82,5.11,0.82,5.11c2.63,2.66,7.57,2.75,7.68,2.53c0,0,0.77-3.42,0.17-8.09
				C294.42,409.97,289.63,407.25,286.23,410.39z"/>
			<path class="st21" d="M244.74,338.97c22.65,40.83,41.26,74.9,41.26,74.9c1.43-2.63,5.92-4.42,9.49-3.39
				c0,0-13.14-38.38-26.39-77.26C260.37,307.58,235.5,322.31,244.74,338.97z"/>
			<path class="st7" d="M286.92,413.49c0,0-0.23,0.49-1.46,1.67c-2.38,2.29-13.12,7.06-13.49,10.62c-0.19,1.79,3.42,3.8,6.49,4.24
				c3.07,0.44,5.78,0.55,7.53-0.25c2.18-1,6.53-5.75,7.39-6.72c2.12-2.4,1.35-6.8,1.35-6.8C292.94,412,286.92,413.49,286.92,413.49z
				"/>
			<path class="st7" d="M286.92,417.86c-3.09,2.16-13.05,5.65-13.36,8.65c-0.16,1.51,2.88,3.2,5.46,3.57
				c2.58,0.37,4.87,0.46,6.34-0.21c1.84-0.84,5.59-4.77,6.22-5.66C295.07,419.38,289.92,415.77,286.92,417.86z"/>
			<path class="st20" d="M345.33,411.24c0.83,4.58,2.17,9.06,2.17,9.06c0.1,0.22,6.7-2.14,9.33-4.8c0,0-2.02-3.12-3.48-6.02
				C349.94,406.33,345.81,411.28,345.33,411.24z"/>
			<path class="st21" d="M305.49,345.03c22.65,40.83,39.45,68.99,39.45,68.99c1.43-2.63,5.72-4.56,9.29-3.54
				c0,0-11.12-32.32-24.37-71.2C321.11,313.64,296.25,328.37,305.49,345.03z"/>
			<path class="st7" d="M356.4,415.16l-0.07-0.07c-1.71-1.65-4.24-2.33-6.46-1.48c-0.03,0.01-0.06,0.02-0.09,0.03
				c-1.72,0.69-2.72,2.49-2.58,4.34c0.12,1.62,0.44,3.95,1.27,5.06c0.77,1.04,5.21,5.72,7.39,6.72c1.75,0.8,4.47,0.69,7.53,0.25
				c3.07-0.44,6.67-2.45,6.49-4.24C369.52,422.22,358.78,417.44,356.4,415.16z"/>
			<path class="st7" d="M354.94,417.86c-3-2.09-8.16,1.52-4.66,6.35c0.64,0.88,4.39,4.82,6.22,5.66c1.47,0.67,3.76,0.58,6.34,0.21
				c2.58-0.37,5.62-2.06,5.46-3.57C367.99,423.51,358.03,420.02,354.94,417.86z"/>
			<path class="st22" d="M380.24,276.32c-15.09,1.91-30.1,4.02-45.34,4.36c-9.43,0.21-18.39-0.8-26.76-3.12
				c0.04,14.12-2.83,16.27-9.14,20.08c4.46,15.51,13.4,19.82,21.14,22.35c20.39,6.66,71.41-8.6,72.86-8.71
				c-0.07-11.22-1.08-23.84-2.55-36.45C387.14,275.44,383.73,275.88,380.24,276.32z"/>
			<path class="st20" d="M349.01,152.53c-1.05,0.78-11.98,6.89-15.11,6.42c0.03,0.87,2.16,10.02,0.15,14.95
				c0.88,4.58,13.58,4.57,17.06-3.2C349.64,168.5,348.4,156.76,349.01,152.53z"/>
			<path class="st20" d="M337.47,137.36c-5.76-0.38-11.32,0.97-12.58,6.41c-0.45,1.95,0.44,19.51,9.82,22.14
				c3.97,1.11,11.56-5.69,11.86-10.3c0,0,0.41-6.29,0.42-6.36C347.39,143.14,343.66,137.77,337.47,137.36z"/>
			<path class="st10" d="M363.99,174.1c-3.25-0.77-12.89-3.39-12.89-3.39s-1.89,2.64-7.76,3.9c-5.27,1.12-9.3-0.7-9.3-0.7
				s-11.13,3.42-13.16,4.6c-7.84,4.58-7.88,7.88-8.39,18.66c-0.24,5.03-0.35,82.22-12.54,99.97c0.41,0.71,4.81,11.25,14.88,13.91
				l2.47-21.84l2.24,22.85c23.6,5.06,41.68-4.27,60.65-7.17l1.82-28.65l5.45,27.63c1.83-0.23,3.49-0.4,4.94-0.51
				c-0.25-43.77-12.37-109.53-12.9-111.52C377.24,183.38,373.74,176.41,363.99,174.1z"/>
			<path class="st21" d="M349.53,130.41c-9-7.05-24.18-0.22-28.15,9.01c-2.97,6.88-5.74,2.1-5.45,0.28
				c-0.89,4.57,1.04,8.54,9.88,7.87c1.86-0.14-4.11,1.7-4.11,1.7s9.44,19.57,24.03,14.78c4.33-1.42,8.11-5.66,8.11-5.66
				s-4.73,0.79-2.24-3.07C356.42,147.84,357.47,136.64,349.53,130.41z"/>
			<path class="st20" d="M238.24,246.81c-0.45,0.62,1.8,3.14,2.53,3.37c1.92,0.02,1.93-1.1,3.72-0.81c-1.52-0.47-3.03-1.3-4.35-2.22
				C239.46,246.59,238.86,245.79,238.24,246.81z"/>
			<path class="st20" d="M240.22,249.1c-2.27-0.05-7.34,0.41-7.7,0.44c-1.03,0.15-3.65,0.2-4.39,0.55
				c-0.47,0.22-1.51,1.36-1.64,1.99c-0.17,0.84,0.65,1.3,0.65,1.3c-0.43,1.02,2.29,1.6,2.13,1.83c-0.66,0.92,0.4,2.11,4.36,1.65
				c0.24-0.03,10.2,0.79,13.4,0.78c0.16-1.97-1.07-8.06-1.17-8.09C244.07,249.27,242.14,249.13,240.22,249.1z"/>
			<path class="st20" d="M297.72,237.9c-0.69,0.02-1.31,0.14-1.8,0.33c-9.05,3.39-41.77,9.55-51.75,11.58
				c1.33,3.04,2.23,5.66,2.52,7.75c16.36-3.67,57.48-5.2,57.91-11.89C304.99,239.55,300.75,237.79,297.72,237.9z"/>
			<path class="st20" d="M316.13,189.89c-5.12,7.32-14.96,34.42-22.16,46.49c-8.82,14.8,4.66,15.67,8.77,12.05
				c10.85-9.54,36.07-40.85,31.71-46.99C332.57,198.79,317.06,188.57,316.13,189.89z"/>
			<path class="st10" d="M314.29,184.86c-3.21,8.55-6.28,16.43-10.3,25.66c-4.04,9.29-12.89,26.85-13.33,27.82
				c-3.76,1.79-39.24,8.2-45.03,9.38l1.5,11.81c14.33-1.25,48.71-2.07,57.06-9.67c8.83-7.81,37.28-39.49,33.72-49.08
				C334.35,191.23,314.54,184.18,314.29,184.86z"/>
		</g>
		<g>
			<polygon class="st19" points="399.64,344.1 429.27,430.37 432.59,430.37 402.96,344.1 			"/>
			<polygon class="st19" points="349.54,344.1 379.17,430.37 382.49,430.37 352.86,344.1 			"/>
			<path class="st19" d="M406.23,216.55c-20.78,0-40.79,16.85-44.68,37.63l-13.01,54.03c-2.29,12.21-15.67,21.06-28.1,21.06h-27.06
				c-4.08,0-7.38,3.31-7.38,7.38c0,4.07,3.3,7.38,7.37,7.38l111.59,0.12c5.18,0.01,9.64-3.67,10.62-8.76l21.23-81.22
				C440.7,233.39,427.01,216.55,406.23,216.55z"/>
			<path class="st18" d="M406.23,216.54c-20.78,0-40.79,16.85-44.68,37.63l-13.01,54.08c-2.29,12.21-15.67,21.12-28.1,21.12h-27.06
				c-4.08,0-7.38,3.25-7.38,7.33c0,4.07,3.3,7.35,7.37,7.36l3.5-0.05c1.13-2.64,3.74-4.54,6.79-4.54h27.06
				c12.43,0,25.81-8.81,28.1-21.02l13.01-54.01c3.89-20.78,23.9-37.62,44.68-37.62c6.33,0,11.99,1.59,16.71,4.35
				C428,222.28,418.34,216.54,406.23,216.54z"/>
			<polygon class="st18" points="284.42,430.37 287.74,430.37 317.38,344.1 314.06,344.1 			"/>
			<polygon class="st18" points="334.52,430.37 337.84,430.37 367.48,344.1 364.16,344.1 			"/>
		</g>
	</g>
	<g>
		<polygon class="st23" points="79.58,47.73 94.28,56.27 108.61,47.73 94.28,68.07 		"/>
		<polygon class="st24" points="94.28,56.27 94.28,68.07 108.61,47.73 		"/>
		<polygon class="st14" points="79.85,44.69 94.1,38.18 94.26,20.04 		"/>
		<polygon class="st25" points="108.51,44.69 94.1,38.18 94.26,20.04 		"/>
		<polygon class="st26" points="94.18,53.16 108.51,44.69 94.18,38.18 		"/>
		<polygon class="st27" points="94.18,53.16 79.85,44.69 94.18,38.18 		"/>
	</g>
</g>
</svg>
