<?xml version="1.0" encoding="utf-8"?>
<!-- Generator: Adobe Illustrator 23.0.1, SVG Export Plug-In . SVG Version: 6.00 Build 0)  -->
<svg version="1.1" id="Layer_1" xmlns="http://www.w3.org/2000/svg" xmlns:xlink="http://www.w3.org/1999/xlink" x="0px" y="0px"
	 viewBox="0 0 97.87 94.23" style="enable-background:new 0 0 97.87 94.23;" xml:space="preserve">
<style type="text/css">
	.st0{fill:#F4F5F7;}
	.st1{fill:#FFFFFF;}
	.st2{fill:url(#SVGID_1_);}
	.st3{fill:#F1F2F2;}
	.st4{fill:#FAA31A;}
	.st5{fill:url(#SVGID_2_);}
	.st6{fill:url(#SVGID_3_);}
	.st7{fill:#F4D7CE;}
	.st8{fill:#FEBB00;}
	.st9{fill:#194767;}
	.st10{fill:#00A79D;}
	.st11{fill:#825204;}
	.st12{fill:#2D5DEA;}
	.st13{fill-rule:evenodd;clip-rule:evenodd;fill:#E3EEF7;}
	.st14{fill-rule:evenodd;clip-rule:evenodd;fill:#FFFFFF;}
	.st15{fill-rule:evenodd;clip-rule:evenodd;fill:#282B2E;}
	.st16{fill:none;stroke:#D1D3D4;stroke-width:0.125;stroke-miterlimit:10;}
	.st17{fill:#231F20;}
	.st18{fill-rule:evenodd;clip-rule:evenodd;fill:#AFC4D5;}
	.st19{fill:#BCBEC0;}
	.st20{fill:#939598;}
	.st21{fill:#FCD2C5;}
	.st22{fill:#061338;}
	.st23{fill:#E3EEF7;}
	.st24{opacity:0.72;fill-rule:evenodd;clip-rule:evenodd;fill:#E6E7E8;}
	.st25{opacity:0.72;fill-rule:evenodd;clip-rule:evenodd;fill:#808285;}
	.st26{fill-rule:evenodd;clip-rule:evenodd;fill:#F0F1F2;}
	.st27{opacity:0.72;fill-rule:evenodd;clip-rule:evenodd;fill:#EFEFEF;}
	.st28{fill-rule:evenodd;clip-rule:evenodd;fill:#E6E7E8;}
	.st29{fill:#FFC7B0;}
	.st30{fill:#50514F;}
	.st31{filter:url(#Adobe_OpacityMaskFilter);}
	.st32{filter:url(#Adobe_OpacityMaskFilter_1_);}
	.st33{mask:url(#SVGID_4_);fill:url(#SVGID_5_);}
	.st34{opacity:0.2;fill:url(#SVGID_6_);}
	.st35{filter:url(#Adobe_OpacityMaskFilter_2_);}
	.st36{filter:url(#Adobe_OpacityMaskFilter_3_);}
	.st37{mask:url(#SVGID_7_);fill:url(#SVGID_8_);}
	.st38{opacity:0.2;fill:url(#SVGID_9_);}
	.st39{filter:url(#Adobe_OpacityMaskFilter_4_);}
	.st40{filter:url(#Adobe_OpacityMaskFilter_5_);}
	.st41{mask:url(#SVGID_10_);fill:url(#SVGID_11_);}
	.st42{opacity:0.2;fill:url(#SVGID_12_);}
	.st43{filter:url(#Adobe_OpacityMaskFilter_6_);}
	.st44{filter:url(#Adobe_OpacityMaskFilter_7_);}
	.st45{mask:url(#SVGID_13_);fill:url(#SVGID_14_);}
	.st46{opacity:0.3;fill:url(#SVGID_15_);}
	.st47{filter:url(#Adobe_OpacityMaskFilter_8_);}
	.st48{filter:url(#Adobe_OpacityMaskFilter_9_);}
	.st49{mask:url(#SVGID_16_);fill:url(#SVGID_17_);}
	.st50{opacity:0.3;fill:url(#SVGID_18_);}
	.st51{filter:url(#Adobe_OpacityMaskFilter_10_);}
	.st52{filter:url(#Adobe_OpacityMaskFilter_11_);}
	.st53{mask:url(#SVGID_19_);fill:url(#SVGID_20_);}
	.st54{opacity:0.3;fill:url(#SVGID_21_);}
	.st55{filter:url(#Adobe_OpacityMaskFilter_12_);}
	.st56{filter:url(#Adobe_OpacityMaskFilter_13_);}
	.st57{mask:url(#SVGID_22_);fill:url(#SVGID_23_);}
	.st58{opacity:0.2;fill:url(#SVGID_24_);}
	.st59{filter:url(#Adobe_OpacityMaskFilter_14_);}
	.st60{filter:url(#Adobe_OpacityMaskFilter_15_);}
	.st61{mask:url(#SVGID_25_);fill:url(#SVGID_26_);}
	.st62{opacity:0.2;fill:url(#SVGID_27_);}
	.st63{fill:#081E69;}
	.st64{fill:#58595B;}
	.st65{opacity:0.12;fill:#6D6E71;}
	.st66{fill:#F2F2F2;}
	.st67{fill:#6D6E71;}
	.st68{opacity:0.4;fill:#FFFFFF;}
	.st69{opacity:0.3;fill:#BCBEC0;}
	.st70{fill:#596068;}
	.st71{filter:url(#Adobe_OpacityMaskFilter_16_);}
	.st72{filter:url(#Adobe_OpacityMaskFilter_17_);}
	.st73{mask:url(#SVGID_28_);fill:url(#SVGID_29_);}
	.st74{opacity:0.2;fill:url(#SVGID_30_);}
	.st75{fill:#E3D7C9;}
	.st76{fill:#A7A9AC;}
	.st77{filter:url(#Adobe_OpacityMaskFilter_18_);}
	.st78{filter:url(#Adobe_OpacityMaskFilter_19_);}
	.st79{mask:url(#SVGID_31_);fill:url(#SVGID_32_);}
	.st80{opacity:0.2;fill:url(#SVGID_33_);}
	.st81{filter:url(#Adobe_OpacityMaskFilter_20_);}
	.st82{filter:url(#Adobe_OpacityMaskFilter_21_);}
	.st83{mask:url(#SVGID_34_);fill:url(#SVGID_35_);}
	.st84{opacity:0.2;fill:url(#SVGID_36_);}
	.st85{filter:url(#Adobe_OpacityMaskFilter_22_);}
	.st86{filter:url(#Adobe_OpacityMaskFilter_23_);}
	.st87{mask:url(#SVGID_37_);fill:url(#SVGID_38_);}
	.st88{opacity:0.2;fill:url(#SVGID_39_);}
	.st89{filter:url(#Adobe_OpacityMaskFilter_24_);}
	.st90{filter:url(#Adobe_OpacityMaskFilter_25_);}
	.st91{mask:url(#SVGID_40_);fill:url(#SVGID_41_);}
	.st92{opacity:0.2;fill:url(#SVGID_42_);}
	.st93{filter:url(#Adobe_OpacityMaskFilter_26_);}
	.st94{filter:url(#Adobe_OpacityMaskFilter_27_);}
	.st95{mask:url(#SVGID_43_);fill:url(#SVGID_44_);}
	.st96{opacity:0.2;fill:url(#SVGID_45_);}
	.st97{filter:url(#Adobe_OpacityMaskFilter_28_);}
	.st98{filter:url(#Adobe_OpacityMaskFilter_29_);}
	.st99{mask:url(#SVGID_46_);fill:url(#SVGID_47_);}
	.st100{opacity:0.2;fill:url(#SVGID_48_);}
	.st101{fill:#E6E7E8;}
	.st102{opacity:0.2;}
	.st103{fill:#FFFFF7;}
	.st104{opacity:0.1;}
	.st105{filter:url(#Adobe_OpacityMaskFilter_30_);}
	.st106{filter:url(#Adobe_OpacityMaskFilter_31_);}
	.st107{mask:url(#SVGID_49_);fill:url(#SVGID_50_);}
	.st108{opacity:0.6;fill:url(#SVGID_51_);}
	.st109{filter:url(#Adobe_OpacityMaskFilter_32_);}
	.st110{filter:url(#Adobe_OpacityMaskFilter_33_);}
	.st111{mask:url(#SVGID_52_);fill:url(#SVGID_53_);}
	.st112{fill:url(#SVGID_54_);}
	.st113{filter:url(#Adobe_OpacityMaskFilter_34_);}
	.st114{filter:url(#Adobe_OpacityMaskFilter_35_);}
	.st115{mask:url(#SVGID_55_);fill:url(#SVGID_56_);}
	.st116{opacity:0.2;fill:url(#SVGID_57_);}
	.st117{filter:url(#Adobe_OpacityMaskFilter_36_);}
	.st118{filter:url(#Adobe_OpacityMaskFilter_37_);}
	.st119{mask:url(#SVGID_58_);fill:url(#SVGID_59_);}
	.st120{opacity:0.2;fill:url(#SVGID_60_);}
	.st121{filter:url(#Adobe_OpacityMaskFilter_38_);}
	.st122{filter:url(#Adobe_OpacityMaskFilter_39_);}
	.st123{mask:url(#SVGID_61_);fill:url(#SVGID_62_);}
	.st124{fill:url(#SVGID_63_);}
	.st125{filter:url(#Adobe_OpacityMaskFilter_40_);}
	.st126{filter:url(#Adobe_OpacityMaskFilter_41_);}
	.st127{mask:url(#SVGID_64_);fill:url(#SVGID_65_);}
	.st128{fill:url(#SVGID_66_);}
	.st129{filter:url(#Adobe_OpacityMaskFilter_42_);}
	.st130{filter:url(#Adobe_OpacityMaskFilter_43_);}
	.st131{mask:url(#SVGID_67_);fill:url(#SVGID_68_);}
	.st132{opacity:0.1;fill:url(#SVGID_69_);}
	.st133{filter:url(#Adobe_OpacityMaskFilter_44_);}
	.st134{filter:url(#Adobe_OpacityMaskFilter_45_);}
	.st135{mask:url(#SVGID_70_);fill:url(#SVGID_71_);}
	.st136{opacity:0.2;fill:url(#SVGID_72_);}
	.st137{filter:url(#Adobe_OpacityMaskFilter_46_);}
	.st138{filter:url(#Adobe_OpacityMaskFilter_47_);}
	.st139{mask:url(#SVGID_73_);fill:url(#SVGID_74_);}
	.st140{opacity:0.2;fill:url(#SVGID_75_);}
	.st141{filter:url(#Adobe_OpacityMaskFilter_48_);}
	.st142{filter:url(#Adobe_OpacityMaskFilter_49_);}
	.st143{mask:url(#SVGID_76_);fill:url(#SVGID_77_);}
	.st144{opacity:0.2;fill:url(#SVGID_78_);}
	.st145{fill:#EEB292;}
	.st146{filter:url(#Adobe_OpacityMaskFilter_50_);}
	.st147{filter:url(#Adobe_OpacityMaskFilter_51_);}
	.st148{mask:url(#SVGID_79_);fill:url(#SVGID_80_);}
	.st149{opacity:0.2;fill:url(#SVGID_81_);}
	.st150{filter:url(#Adobe_OpacityMaskFilter_52_);}
	.st151{filter:url(#Adobe_OpacityMaskFilter_53_);}
	.st152{mask:url(#SVGID_82_);fill:url(#SVGID_83_);}
	.st153{opacity:0.2;fill:url(#SVGID_84_);}
	.st154{filter:url(#Adobe_OpacityMaskFilter_54_);}
	.st155{filter:url(#Adobe_OpacityMaskFilter_55_);}
	.st156{mask:url(#SVGID_85_);fill:url(#SVGID_86_);}
	.st157{opacity:0.2;fill:url(#SVGID_87_);}
	.st158{filter:url(#Adobe_OpacityMaskFilter_56_);}
	.st159{filter:url(#Adobe_OpacityMaskFilter_57_);}
	.st160{mask:url(#SVGID_88_);fill:url(#SVGID_89_);}
	.st161{opacity:0.2;fill:url(#SVGID_90_);}
	.st162{filter:url(#Adobe_OpacityMaskFilter_58_);}
	.st163{filter:url(#Adobe_OpacityMaskFilter_59_);}
	.st164{mask:url(#SVGID_91_);fill:url(#SVGID_92_);}
	.st165{opacity:0.2;fill:url(#SVGID_93_);}
	.st166{filter:url(#Adobe_OpacityMaskFilter_60_);}
	.st167{filter:url(#Adobe_OpacityMaskFilter_61_);}
	.st168{mask:url(#SVGID_94_);fill:url(#SVGID_95_);}
	.st169{opacity:0.1;fill:url(#SVGID_96_);}
	.st170{filter:url(#Adobe_OpacityMaskFilter_62_);}
	.st171{filter:url(#Adobe_OpacityMaskFilter_63_);}
	.st172{mask:url(#SVGID_97_);fill:url(#SVGID_98_);}
	.st173{opacity:0.1;fill:url(#SVGID_99_);}
	.st174{filter:url(#Adobe_OpacityMaskFilter_64_);}
	.st175{filter:url(#Adobe_OpacityMaskFilter_65_);}
	.st176{mask:url(#SVGID_100_);fill:url(#SVGID_101_);}
	.st177{opacity:0.2;fill:url(#SVGID_102_);}
	.st178{filter:url(#Adobe_OpacityMaskFilter_66_);}
	.st179{filter:url(#Adobe_OpacityMaskFilter_67_);}
	.st180{mask:url(#SVGID_103_);fill:url(#SVGID_104_);}
	.st181{opacity:0.2;fill:url(#SVGID_105_);}
	.st182{filter:url(#Adobe_OpacityMaskFilter_68_);}
	.st183{filter:url(#Adobe_OpacityMaskFilter_69_);}
	.st184{mask:url(#SVGID_106_);fill:url(#SVGID_107_);}
	.st185{opacity:0.2;fill:url(#SVGID_108_);}
	.st186{filter:url(#Adobe_OpacityMaskFilter_70_);}
	.st187{filter:url(#Adobe_OpacityMaskFilter_71_);}
	.st188{mask:url(#SVGID_109_);fill:url(#SVGID_110_);}
	.st189{opacity:0.1;fill:url(#SVGID_111_);}
	.st190{fill:#3A3937;}
	.st191{fill:none;}
	.st192{fill:#808285;}
	.st193{fill:#D1D3D4;}
	.st194{fill:#295FD6;}
	.st195{fill:url(#SVGID_112_);}
	.st196{fill:url(#SVGID_113_);}
	.st197{fill:#A3AFBD;}
	.st198{fill:url(#SVGID_114_);}
	.st199{fill:url(#SVGID_115_);}
	.st200{fill:url(#SVGID_116_);}
	.st201{fill:url(#SVGID_117_);}
	.st202{fill:url(#SVGID_118_);}
	.st203{fill:url(#SVGID_119_);}
	.st204{fill-rule:evenodd;clip-rule:evenodd;fill:#295FD6;}
	.st205{fill-rule:evenodd;clip-rule:evenodd;fill:#081E69;}
	.st206{fill-rule:evenodd;clip-rule:evenodd;fill:#061338;}
	.st207{clip-path:url(#SVGID_121_);}
	.st208{fill:url(#SVGID_126_);}
	.st209{fill:url(#SVGID_127_);}
	.st210{fill:url(#SVGID_128_);}
	.st211{fill:url(#SVGID_129_);}
	.st212{fill:url(#SVGID_130_);}
	.st213{fill:url(#SVGID_131_);}
	.st214{fill:url(#SVGID_132_);}
	.st215{fill:url(#SVGID_133_);}
	.st216{fill-rule:evenodd;clip-rule:evenodd;fill:#FAA31A;}
	.st217{fill-rule:evenodd;clip-rule:evenodd;fill:#FCD305;}
	.st218{fill-rule:evenodd;clip-rule:evenodd;fill:#DB8D26;}
	.st219{fill:#D89D09;}
	.st220{fill:#414042;}
	.st221{fill:#0E338C;}
	.st222{clip-path:url(#SVGID_135_);}
	.st223{fill:#304B8E;}
	.st224{enable-background:new    ;}
	.st225{clip-path:url(#SVGID_137_);}
	.st226{fill:#FCD305;}
	.st227{fill:#FFEC00;}
	.st228{fill:#525252;}
</style>
<g>
	<circle class="st4" cx="48.07" cy="46.65" r="42.88"/>
</g>
<g>
	<path class="st1" d="M67.15,62.74c-2.94,0.01-5.89,0.03-8.83,0.03c-0.19,0-0.38-0.08-0.69-0.15c-0.05-0.43-0.15-0.87-0.15-1.32
		c-0.01-3.35-0.02-6.69,0-10.04c0.02-2.84,1.82-4.48,4.62-4.68c1.96-0.14,3.21,0.72,4.28,1.94c0.5,0.56,0.78,1.29,0.78,2.04V62.74z
		 M65.5,61c0-2.6,0.04-5.13-0.02-7.65c-0.03-1.17-0.25-2.34-0.4-3.62l-0.67-0.36c-1.35-0.74-2.99-0.68-4.29,0.15l-0.61,0.39
		c-0.65,3.8-0.23,7.43-0.33,11.08H65.5z"/>
	<path class="st1" d="M67.15,42.26c-0.33,0.4-0.69,0.78-0.98,1.2c-1.56,2.29-6.08,2.34-7.84-0.14c-1.16-1.64-1.21-3.41-0.55-5.1
		c0.69-1.75,2.07-2.72,4.14-2.89c2.51-0.21,3.92,1.16,5.23,2.91C67.94,39.58,67.5,41.54,67.15,42.26z M59.24,40.32
		c0.36,1.84,1.44,2.83,3.12,3.03c1.88-0.37,2.88-1.45,3.08-3.13c-0.37-1.88-1.45-2.88-3.13-3.08C60.53,37.5,59.49,38.48,59.24,40.32
		z"/>
	<path class="st1" d="M29.54,62.7c-0.57-0.04-1-0.52-1-1.09c0-1.13,0-2.21,0-3.28c0-2.4-0.02-4.81,0.01-7.21
		c0.03-2.67,1.86-4.38,4.55-4.52c1.83-0.09,3.29,0.44,4.34,1.92c0.37,0.52,0.77,1.18,0.78,1.78c0.06,3.75,0.04,7.51,0.04,11.24
		c0,0.56-0.42,1.02-0.97,1.08C35.41,62.84,31.97,62.88,29.54,62.7z M35.49,61.01c0.6,0,1.09-0.49,1.09-1.09
		c0.01-2.27,0.03-4.4-0.02-6.54c-0.02-1-0.18-2-0.32-3.07c-0.04-0.35-0.25-0.65-0.55-0.82l0,0c-1.45-0.81-3.23-0.76-4.64,0.12
		l-0.01,0.01c-0.27,0.17-0.45,0.44-0.5,0.75c-0.53,3.25-0.24,6.38-0.26,9.54c0,0.61,0.48,1.1,1.09,1.1H35.49z"/>
	<path class="st1" d="M33.35,45.12c-3.11-0.01-4.83-1.81-4.8-5.04c0.02-2.99,1.83-4.71,4.94-4.7c3.11,0.01,4.83,1.81,4.8,5.04
		C38.26,43.41,36.45,45.13,33.35,45.12z M33.27,43.33c2.04-0.23,2.95-1.4,3.24-3.03c-0.28-1.91-1.4-2.87-3.04-3.15
		c-1.92,0.28-2.87,1.4-3.15,3.02C30.57,42.02,31.61,42.99,33.27,43.33z"/>
	<path class="st1" d="M45.82,51.75l-1.08-0.77c-0.14-0.1-0.25-0.25-0.31-0.42l-0.4-1.17c-0.11-0.32-0.02-0.67,0.23-0.89l0.21-0.19
		c0.43-0.39,1.14-0.24,1.34,0.3c0.14,0.36,0.2,0.79,0.51,1.07c0.47,0.22,0.95,0.32,1.41,0.02c0.33-0.22,0.44-0.66,0.28-1.02
		l-0.11-0.26c-0.12-0.29-0.4-0.48-0.71-0.51l-0.75-0.06c-0.1-0.01-0.2-0.03-0.29-0.07c-1.32-0.58-1.98-1.63-2.17-3.1
		c-0.01-0.09-0.01-0.18,0-0.26c0.15-1.05,0.73-1.88,1.71-2.39c0.24-0.13,0.43-0.34,0.48-0.61l0.07-0.41c0.07-0.4,0.42-0.7,0.83-0.7
		h0c0.4,0,0.75,0.29,0.83,0.68l0.09,0.44c0.04,0.21,0.16,0.4,0.33,0.52l1.1,0.8c0.14,0.1,0.25,0.24,0.3,0.41l0.39,1.15
		c0.11,0.32,0.02,0.67-0.23,0.89l-0.21,0.19c-0.43,0.39-1.13,0.24-1.34-0.3c-0.14-0.36-0.2-0.79-0.51-1.07
		c-0.47-0.21-0.95-0.32-1.4-0.02c-0.33,0.22-0.44,0.66-0.28,1.02l0.11,0.26c0.12,0.29,0.4,0.48,0.71,0.51l0.75,0.06
		c0.1,0.01,0.2,0.03,0.3,0.07c1.29,0.58,1.98,1.59,2.15,3.1c0.01,0.12,0,0.26-0.04,0.38c-0.46,1.37-0.54,1.5-1.78,2.36
		c-0.18,0.13-0.31,0.33-0.35,0.55l-0.07,0.39c-0.07,0.4-0.42,0.69-0.83,0.69h0c-0.4,0-0.75-0.29-0.83-0.68l-0.09-0.46
		C46.11,52.07,45.99,51.88,45.82,51.75z"/>
	<path class="st1" d="M48.05,37.45c-0.16,0.21-0.41,0.33-0.67,0.33h0c-0.36,0-0.69-0.2-0.86-0.51c-0.14-0.26-0.3-0.5-0.21-0.68
		c0.32-0.64,0.79-1.22,1.21-1.81c0.19-0.26,0.41-0.49,0.76-0.9h-4.36c-0.41,0-0.75-0.3-0.82-0.7v0c-0.07-0.44,0.22-0.86,0.66-0.94
		c1.43-0.24,2.86,0.09,4.31-0.16c-0.48-1.11-1.85-1.81-1.81-3.14c0.01-0.34,0.25-0.65,0.57-0.73c0.51-0.13,0.95,0.04,1.31,0.49
		c0.99,1.24,1.95,2.5,2.88,3.78c0.14,0.19,0.08,0.51,0.13,0.97L48.05,37.45z"/>
	<path class="st1" d="M51.05,60.26L51.05,60.26c0,0.46-0.37,0.83-0.83,0.83l-4.23,0c0.46,1.21,1.73,1.91,1.84,3.15
		c0.04,0.45-0.32,0.85-0.78,0.88l-0.17,0.01c-0.29,0.02-0.57-0.13-0.74-0.37c-1.08-1.52-2.71-2.71-3.26-4.77l3.26-4.15
		c0.17-0.22,0.43-0.33,0.71-0.32l0.2,0.01c0.46,0.03,0.83,0.43,0.78,0.89c-0.13,1.2-1.24,1.9-1.83,3l4.23,0
		C50.68,59.42,51.05,59.8,51.05,60.26z"/>
</g>
</svg>
