<?xml version="1.0" encoding="utf-8"?>
<!-- Generator: Adobe Illustrator 23.0.1, SVG Export Plug-In . SVG Version: 6.00 Build 0)  -->
<svg version="1.1" id="Layer_1" xmlns="http://www.w3.org/2000/svg" xmlns:xlink="http://www.w3.org/1999/xlink" x="0px" y="0px"
	 viewBox="0 0 130.5 142.21" style="enable-background:new 0 0 130.5 142.21;" xml:space="preserve">
<style type="text/css">
	.st0{fill:#F4F5F7;}
	.st1{fill:#F1F2F2;}
	.st2{fill:#FAA31A;}
	.st3{fill:url(#SVGID_1_);}
	.st4{fill:url(#SVGID_2_);}
	.st5{fill:#F4D7CE;}
	.st6{fill:#FEBB00;}
	.st7{fill:#194767;}
	.st8{fill:#00A79D;}
	.st9{fill:#825204;}
	.st10{fill:#2D5DEA;}
	.st11{fill-rule:evenodd;clip-rule:evenodd;fill:#E3EEF7;}
	.st12{fill-rule:evenodd;clip-rule:evenodd;fill:#F1F2F2;}
	.st13{fill-rule:evenodd;clip-rule:evenodd;fill:#282B2E;}
	.st14{fill-rule:evenodd;clip-rule:evenodd;fill:#FFFFFF;}
	.st15{fill:none;stroke:#D1D3D4;stroke-width:0.125;stroke-miterlimit:10;}
	.st16{fill:#231F20;}
	.st17{fill-rule:evenodd;clip-rule:evenodd;fill:#AFC4D5;}
	.st18{fill:#BCBEC0;}
	.st19{fill:#939598;}
	.st20{fill:#FCD2C5;}
	.st21{fill:#061338;}
	.st22{fill:#E3EEF7;}
	.st23{opacity:0.72;fill-rule:evenodd;clip-rule:evenodd;fill:#E6E7E8;}
	.st24{opacity:0.72;fill-rule:evenodd;clip-rule:evenodd;fill:#808285;}
	.st25{fill-rule:evenodd;clip-rule:evenodd;fill:#F0F1F2;}
	.st26{opacity:0.72;fill-rule:evenodd;clip-rule:evenodd;fill:#EFEFEF;}
	.st27{fill-rule:evenodd;clip-rule:evenodd;fill:#E6E7E8;}
	.st28{fill:#FFC7B0;}
	.st29{fill:#50514F;}
	.st30{filter:url(#Adobe_OpacityMaskFilter);}
	.st31{filter:url(#Adobe_OpacityMaskFilter_1_);}
	.st32{mask:url(#SVGID_3_);fill:url(#SVGID_4_);}
	.st33{opacity:0.2;fill:url(#SVGID_5_);}
	.st34{filter:url(#Adobe_OpacityMaskFilter_2_);}
	.st35{filter:url(#Adobe_OpacityMaskFilter_3_);}
	.st36{mask:url(#SVGID_6_);fill:url(#SVGID_7_);}
	.st37{opacity:0.2;fill:url(#SVGID_8_);}
	.st38{filter:url(#Adobe_OpacityMaskFilter_4_);}
	.st39{filter:url(#Adobe_OpacityMaskFilter_5_);}
	.st40{mask:url(#SVGID_9_);fill:url(#SVGID_10_);}
	.st41{opacity:0.2;fill:url(#SVGID_11_);}
	.st42{filter:url(#Adobe_OpacityMaskFilter_6_);}
	.st43{filter:url(#Adobe_OpacityMaskFilter_7_);}
	.st44{mask:url(#SVGID_12_);fill:url(#SVGID_13_);}
	.st45{opacity:0.3;fill:url(#SVGID_14_);}
	.st46{filter:url(#Adobe_OpacityMaskFilter_8_);}
	.st47{filter:url(#Adobe_OpacityMaskFilter_9_);}
	.st48{mask:url(#SVGID_15_);fill:url(#SVGID_16_);}
	.st49{opacity:0.3;fill:url(#SVGID_17_);}
	.st50{filter:url(#Adobe_OpacityMaskFilter_10_);}
	.st51{filter:url(#Adobe_OpacityMaskFilter_11_);}
	.st52{mask:url(#SVGID_18_);fill:url(#SVGID_19_);}
	.st53{opacity:0.3;fill:url(#SVGID_20_);}
	.st54{filter:url(#Adobe_OpacityMaskFilter_12_);}
	.st55{filter:url(#Adobe_OpacityMaskFilter_13_);}
	.st56{mask:url(#SVGID_21_);fill:url(#SVGID_22_);}
	.st57{opacity:0.2;fill:url(#SVGID_23_);}
	.st58{fill:#081E69;}
	.st59{fill:#58595B;}
	.st60{opacity:0.12;fill:#6D6E71;}
	.st61{fill:#F2F2F2;}
	.st62{fill:#6D6E71;}
	.st63{opacity:0.4;fill:#FFFFFF;}
	.st64{opacity:0.3;fill:#BCBEC0;}
	.st65{fill:#596068;}
	.st66{filter:url(#Adobe_OpacityMaskFilter_14_);}
	.st67{filter:url(#Adobe_OpacityMaskFilter_15_);}
	.st68{mask:url(#SVGID_24_);fill:url(#SVGID_25_);}
	.st69{opacity:0.2;fill:url(#SVGID_26_);}
	.st70{fill:#E3D7C9;}
	.st71{fill:#A7A9AC;}
	.st72{filter:url(#Adobe_OpacityMaskFilter_16_);}
	.st73{filter:url(#Adobe_OpacityMaskFilter_17_);}
	.st74{mask:url(#SVGID_27_);fill:url(#SVGID_28_);}
	.st75{opacity:0.2;fill:url(#SVGID_29_);}
	.st76{filter:url(#Adobe_OpacityMaskFilter_18_);}
	.st77{filter:url(#Adobe_OpacityMaskFilter_19_);}
	.st78{mask:url(#SVGID_30_);fill:url(#SVGID_31_);}
	.st79{opacity:0.2;fill:url(#SVGID_32_);}
	.st80{filter:url(#Adobe_OpacityMaskFilter_20_);}
	.st81{filter:url(#Adobe_OpacityMaskFilter_21_);}
	.st82{mask:url(#SVGID_33_);fill:url(#SVGID_34_);}
	.st83{opacity:0.2;fill:url(#SVGID_35_);}
	.st84{filter:url(#Adobe_OpacityMaskFilter_22_);}
	.st85{filter:url(#Adobe_OpacityMaskFilter_23_);}
	.st86{mask:url(#SVGID_36_);fill:url(#SVGID_37_);}
	.st87{opacity:0.2;fill:url(#SVGID_38_);}
	.st88{filter:url(#Adobe_OpacityMaskFilter_24_);}
	.st89{filter:url(#Adobe_OpacityMaskFilter_25_);}
	.st90{mask:url(#SVGID_39_);fill:url(#SVGID_40_);}
	.st91{opacity:0.2;fill:url(#SVGID_41_);}
	.st92{fill:#E6E7E8;}
	.st93{opacity:0.2;}
	.st94{fill:#FFFFF7;}
	.st95{opacity:0.1;}
	.st96{fill:#FFFFFF;}
	.st97{filter:url(#Adobe_OpacityMaskFilter_26_);}
	.st98{filter:url(#Adobe_OpacityMaskFilter_27_);}
	.st99{mask:url(#SVGID_42_);fill:url(#SVGID_43_);}
	.st100{opacity:0.6;fill:url(#SVGID_44_);}
	.st101{filter:url(#Adobe_OpacityMaskFilter_28_);}
	.st102{filter:url(#Adobe_OpacityMaskFilter_29_);}
	.st103{mask:url(#SVGID_45_);fill:url(#SVGID_46_);}
	.st104{fill:url(#SVGID_47_);}
	.st105{filter:url(#Adobe_OpacityMaskFilter_30_);}
	.st106{filter:url(#Adobe_OpacityMaskFilter_31_);}
	.st107{mask:url(#SVGID_48_);fill:url(#SVGID_49_);}
	.st108{opacity:0.2;fill:url(#SVGID_50_);}
	.st109{filter:url(#Adobe_OpacityMaskFilter_32_);}
	.st110{filter:url(#Adobe_OpacityMaskFilter_33_);}
	.st111{mask:url(#SVGID_51_);fill:url(#SVGID_52_);}
	.st112{opacity:0.2;fill:url(#SVGID_53_);}
	.st113{filter:url(#Adobe_OpacityMaskFilter_34_);}
	.st114{filter:url(#Adobe_OpacityMaskFilter_35_);}
	.st115{mask:url(#SVGID_54_);fill:url(#SVGID_55_);}
	.st116{fill:url(#SVGID_56_);}
	.st117{filter:url(#Adobe_OpacityMaskFilter_36_);}
	.st118{filter:url(#Adobe_OpacityMaskFilter_37_);}
	.st119{mask:url(#SVGID_57_);fill:url(#SVGID_58_);}
	.st120{fill:url(#SVGID_59_);}
	.st121{filter:url(#Adobe_OpacityMaskFilter_38_);}
	.st122{filter:url(#Adobe_OpacityMaskFilter_39_);}
	.st123{mask:url(#SVGID_60_);fill:url(#SVGID_61_);}
	.st124{opacity:0.1;fill:url(#SVGID_62_);}
	.st125{filter:url(#Adobe_OpacityMaskFilter_40_);}
	.st126{filter:url(#Adobe_OpacityMaskFilter_41_);}
	.st127{mask:url(#SVGID_63_);fill:url(#SVGID_64_);}
	.st128{opacity:0.2;fill:url(#SVGID_65_);}
	.st129{filter:url(#Adobe_OpacityMaskFilter_42_);}
	.st130{filter:url(#Adobe_OpacityMaskFilter_43_);}
	.st131{mask:url(#SVGID_66_);fill:url(#SVGID_67_);}
	.st132{opacity:0.2;fill:url(#SVGID_68_);}
	.st133{filter:url(#Adobe_OpacityMaskFilter_44_);}
	.st134{filter:url(#Adobe_OpacityMaskFilter_45_);}
	.st135{mask:url(#SVGID_69_);fill:url(#SVGID_70_);}
	.st136{opacity:0.2;fill:url(#SVGID_71_);}
	.st137{fill:#EEB292;}
	.st138{filter:url(#Adobe_OpacityMaskFilter_46_);}
	.st139{filter:url(#Adobe_OpacityMaskFilter_47_);}
	.st140{mask:url(#SVGID_72_);fill:url(#SVGID_73_);}
	.st141{opacity:0.2;fill:url(#SVGID_74_);}
	.st142{filter:url(#Adobe_OpacityMaskFilter_48_);}
	.st143{filter:url(#Adobe_OpacityMaskFilter_49_);}
	.st144{mask:url(#SVGID_75_);fill:url(#SVGID_76_);}
	.st145{opacity:0.2;fill:url(#SVGID_77_);}
	.st146{filter:url(#Adobe_OpacityMaskFilter_50_);}
	.st147{filter:url(#Adobe_OpacityMaskFilter_51_);}
	.st148{mask:url(#SVGID_78_);fill:url(#SVGID_79_);}
	.st149{opacity:0.2;fill:url(#SVGID_80_);}
	.st150{filter:url(#Adobe_OpacityMaskFilter_52_);}
	.st151{filter:url(#Adobe_OpacityMaskFilter_53_);}
	.st152{mask:url(#SVGID_81_);fill:url(#SVGID_82_);}
	.st153{opacity:0.2;fill:url(#SVGID_83_);}
	.st154{filter:url(#Adobe_OpacityMaskFilter_54_);}
	.st155{filter:url(#Adobe_OpacityMaskFilter_55_);}
	.st156{mask:url(#SVGID_84_);fill:url(#SVGID_85_);}
	.st157{opacity:0.1;fill:url(#SVGID_86_);}
	.st158{filter:url(#Adobe_OpacityMaskFilter_56_);}
	.st159{filter:url(#Adobe_OpacityMaskFilter_57_);}
	.st160{mask:url(#SVGID_87_);fill:url(#SVGID_88_);}
	.st161{opacity:0.1;fill:url(#SVGID_89_);}
	.st162{filter:url(#Adobe_OpacityMaskFilter_58_);}
	.st163{filter:url(#Adobe_OpacityMaskFilter_59_);}
	.st164{mask:url(#SVGID_90_);fill:url(#SVGID_91_);}
	.st165{opacity:0.2;fill:url(#SVGID_92_);}
	.st166{filter:url(#Adobe_OpacityMaskFilter_60_);}
	.st167{filter:url(#Adobe_OpacityMaskFilter_61_);}
	.st168{mask:url(#SVGID_93_);fill:url(#SVGID_94_);}
	.st169{opacity:0.2;fill:url(#SVGID_95_);}
	.st170{filter:url(#Adobe_OpacityMaskFilter_62_);}
	.st171{filter:url(#Adobe_OpacityMaskFilter_63_);}
	.st172{mask:url(#SVGID_96_);fill:url(#SVGID_97_);}
	.st173{opacity:0.2;fill:url(#SVGID_98_);}
	.st174{filter:url(#Adobe_OpacityMaskFilter_64_);}
	.st175{filter:url(#Adobe_OpacityMaskFilter_65_);}
	.st176{mask:url(#SVGID_99_);fill:url(#SVGID_100_);}
	.st177{opacity:0.1;fill:url(#SVGID_101_);}
	.st178{fill:#3A3937;}
	.st179{fill:none;}
	.st180{fill:#808285;}
	.st181{fill:#D1D3D4;}
	.st182{fill:#295FD6;}
	.st183{fill:url(#SVGID_102_);}
	.st184{fill:url(#SVGID_103_);}
	.st185{fill:#A3AFBD;}
	.st186{fill:url(#SVGID_104_);}
	.st187{fill:url(#SVGID_105_);}
	.st188{fill:url(#SVGID_106_);}
	.st189{fill:url(#SVGID_107_);}
	.st190{fill:url(#SVGID_108_);}
	.st191{fill:url(#SVGID_109_);}
	.st192{fill-rule:evenodd;clip-rule:evenodd;fill:#295FD6;}
	.st193{fill-rule:evenodd;clip-rule:evenodd;fill:#081E69;}
	.st194{fill-rule:evenodd;clip-rule:evenodd;fill:#061338;}
	.st195{clip-path:url(#SVGID_111_);}
	.st196{fill:url(#SVGID_112_);}
	.st197{fill:url(#SVGID_113_);}
	.st198{fill:url(#SVGID_114_);}
	.st199{fill:url(#SVGID_115_);}
	.st200{fill:url(#SVGID_116_);}
	.st201{fill:url(#SVGID_117_);}
	.st202{fill:url(#SVGID_118_);}
	.st203{fill:url(#SVGID_119_);}
	.st204{fill-rule:evenodd;clip-rule:evenodd;fill:#FAA31A;}
	.st205{fill-rule:evenodd;clip-rule:evenodd;fill:#FCD305;}
	.st206{fill-rule:evenodd;clip-rule:evenodd;fill:#DB8D26;}
	.st207{fill:#D89D09;}
	.st208{fill:#414042;}
	.st209{fill:#0E338C;}
	.st210{clip-path:url(#SVGID_121_);}
	.st211{fill:#304B8E;}
	.st212{enable-background:new    ;}
	.st213{clip-path:url(#SVGID_123_);}
	.st214{fill:#7B8D96;}
	.st215{fill:#53B7E8;}
	.st216{fill:#FF317B;}
	.st217{fill:#FCD305;}
	.st218{fill:#FFEC00;}
	.st219{clip-path:url(#SVGID_125_);}
	.st220{fill:#4B58AD;}
</style>
<g>
	<g>
		<path class="st6" d="M73.74,54.79c0,0-10.97-4.6-16.14,10.77S46.02,97.44,46.02,97.44L30.26,71.86l-7.69,7.16
			c0,0,14.28,41.31,23.24,38.1S73.74,80,73.74,80V54.79z"/>
		<g>
			<path class="st6" d="M59.44,69.83C61.6,63,65.67,55.7,73.95,54.02c2.76-0.56,10.96-2.5,10.96-2.5s5.57,5.2,9.37,5.61
				c2.61,0.28,4.92-2.45,4.92-2.45s9.29,3.19,10.96,4.24c6.48,4.08,7,7.64,8.26,12.88c4.35,18.1,1.42,70.64,1.42,70.64H50.15
				c0,0-0.13-11.08,0.01-12.63C51.05,120.37,54.57,85.22,59.44,69.83z"/>
		</g>
		<path class="st207" d="M60.08,67.95c0,0-7.66,28.73-8.24,45.86l-0.48,4.24C51.36,118.05,58.64,86.41,60.08,67.95z"/>
		<path class="st207" d="M111.99,75.09c0,0,2.26,29.65-0.3,46.59l-0.31,4.25C111.38,125.94,110.02,93.49,111.99,75.09z"/>
	</g>
	<g>
		<path class="st20" d="M94.59,34.87c-0.79,0.77-9.21,7.15-11.87,7.13c0.12,0.72,2.97,8.12,1.87,12.47
			c1.27,3.72,11.88,5.3,13.88-1.6C96.99,51.19,94.58,38.47,94.59,34.87z"/>
		<path class="st9" d="M85.55,68.53c1.67-10.42,0.31-14.36-0.87-18.61c-1.21-4.38-2.19-8.93-1.26-12.54
			c-0.1-0.12-7.22-6.52-9.21-2.78c-1.09,4.46-1.14,9.7,0.63,14.96c2.59,7.68,1,13.81-0.12,16.5c-1.85,4.48-1.46,10.34-1,13.09
			c2.7,16.08,12.93,23.07,15.61,21.27C92.29,98.44,83.16,83.5,85.55,68.53z"/>
		<path class="st20" d="M82.3,22.83c-4.85,0.36-8.45,2.85-8.87,7.54c-0.15,1.68,2.64,16.24,10.78,17.35
			c3.44,0.47,8.99-6.1,8.71-9.99c0,0-0.39-5.31-0.39-5.36C92.15,27.21,87.51,22.44,82.3,22.83z"/>
		<path class="st9" d="M116.56,72.7c0-3.18-0.92-9.81-4.91-14.31c-2.4-2.71-6.43-9.13-4.43-18.34c2-9.21-1.98-17.4-7.55-22.51
			c-5.56-5.11-12.59-5.92-16.14-3.96c-4.44,2.45-4.22,4.74-4.22,4.74s-2.43-0.29-4.87,1.39c-5.28,3.65-3.52,16.28,1.32,19.73
			c-4.4-13.3,3.91-16.36,3.91-16.36s6.02-0.02,9.31,3.11c2.99,2.85,6.54,10.99,5.62,17.58c-0.7,5.04-4.14,8.98,1.1,20.15
			c7.53,16.05-2.6,35.03,2.42,36.47C102.69,101.72,116.58,91.29,116.56,72.7z"/>
		<path class="st20" d="M92.05,30.37c-0.51,0.09-1.41,0.45-2.04,1.05c0.74,1.67,2.31,4.28,3.08,5.58c1.18-0.57,2.34-2.75,2.12-4
			C94.96,31.67,93.37,30.13,92.05,30.37z"/>
	</g>
	<polygon class="st20" points="29.56,72.97 24.39,77.78 15.6,67.27 24.3,67.27 	"/>
	<g>
		
			<rect x="15.86" y="55.92" transform="matrix(0.5688 -0.8225 0.8225 0.5688 -48.0044 42.5636)" class="st71" width="1.45" height="22.28"/>
		<polygon class="st1" points="28.83,69.5 26.16,72.8 7.84,60.13 13.17,59.21 		"/>
	</g>
	<polygon class="st208" points="27.99,69.33 25.63,71.89 9.31,60.78 13.81,59.87 	"/>
	<path class="st20" d="M26.35,72.8l-0.1,0.85c-0.22,0.38-1.04,0.69-1.42,0.47l-4.89-3.19c-0.38-0.22-0.3-0.61-0.08-0.99l0.22-0.83
		c0.22-0.38,0.71-0.51,1.09-0.29l4.88,2.38C26.42,71.41,26.57,72.42,26.35,72.8z"/>
	<path class="st20" d="M20.91,70.71l-0.02,0.01c-0.42,0.12-0.86-0.14-0.98-0.56l-0.71-2.61c-0.12-0.42,0.14-0.86,0.56-0.98
		l0.02-0.01c0.42-0.12,0.86,0.14,0.98,0.56l0.71,2.61C21.59,70.16,21.34,70.6,20.91,70.71z"/>
</g>
</svg>
