<?xml version="1.0" encoding="utf-8"?>
<!-- Generator: Adobe Illustrator 23.0.1, SVG Export Plug-In . SVG Version: 6.00 Build 0)  -->
<svg version="1.1" id="Layer_1" xmlns="http://www.w3.org/2000/svg" xmlns:xlink="http://www.w3.org/1999/xlink" x="0px" y="0px"
	 viewBox="0 0 147 206.26" style="enable-background:new 0 0 147 206.26;" xml:space="preserve">
<style type="text/css">
	.st0{fill:#F4F5F7;}
	.st1{fill:#F1F2F2;}
	.st2{fill:#FAA31A;}
	.st3{fill:url(#SVGID_1_);}
	.st4{fill:url(#SVGID_2_);}
	.st5{fill:#F4D7CE;}
	.st6{fill:#FEBB00;}
	.st7{fill:#194767;}
	.st8{fill:#00A79D;}
	.st9{fill:#825204;}
	.st10{fill:#2D5DEA;}
	.st11{fill-rule:evenodd;clip-rule:evenodd;fill:#E3EEF7;}
	.st12{fill-rule:evenodd;clip-rule:evenodd;fill:#F1F2F2;}
	.st13{fill-rule:evenodd;clip-rule:evenodd;fill:#282B2E;}
	.st14{fill-rule:evenodd;clip-rule:evenodd;fill:#FFFFFF;}
	.st15{fill:none;stroke:#D1D3D4;stroke-width:0.125;stroke-miterlimit:10;}
	.st16{fill:#231F20;}
	.st17{fill-rule:evenodd;clip-rule:evenodd;fill:#AFC4D5;}
	.st18{fill:#BCBEC0;}
	.st19{fill:#939598;}
	.st20{fill:#FCD2C5;}
	.st21{fill:#061338;}
	.st22{fill:#E3EEF7;}
	.st23{opacity:0.72;fill-rule:evenodd;clip-rule:evenodd;fill:#E6E7E8;}
	.st24{opacity:0.72;fill-rule:evenodd;clip-rule:evenodd;fill:#808285;}
	.st25{fill-rule:evenodd;clip-rule:evenodd;fill:#F0F1F2;}
	.st26{opacity:0.72;fill-rule:evenodd;clip-rule:evenodd;fill:#EFEFEF;}
	.st27{fill-rule:evenodd;clip-rule:evenodd;fill:#E6E7E8;}
	.st28{fill:#FFC7B0;}
	.st29{fill:#50514F;}
	.st30{filter:url(#Adobe_OpacityMaskFilter);}
	.st31{filter:url(#Adobe_OpacityMaskFilter_1_);}
	.st32{mask:url(#SVGID_3_);fill:url(#SVGID_4_);}
	.st33{opacity:0.2;fill:url(#SVGID_5_);}
	.st34{filter:url(#Adobe_OpacityMaskFilter_2_);}
	.st35{filter:url(#Adobe_OpacityMaskFilter_3_);}
	.st36{mask:url(#SVGID_6_);fill:url(#SVGID_7_);}
	.st37{opacity:0.2;fill:url(#SVGID_8_);}
	.st38{filter:url(#Adobe_OpacityMaskFilter_4_);}
	.st39{filter:url(#Adobe_OpacityMaskFilter_5_);}
	.st40{mask:url(#SVGID_9_);fill:url(#SVGID_10_);}
	.st41{opacity:0.2;fill:url(#SVGID_11_);}
	.st42{filter:url(#Adobe_OpacityMaskFilter_6_);}
	.st43{filter:url(#Adobe_OpacityMaskFilter_7_);}
	.st44{mask:url(#SVGID_12_);fill:url(#SVGID_13_);}
	.st45{opacity:0.3;fill:url(#SVGID_14_);}
	.st46{filter:url(#Adobe_OpacityMaskFilter_8_);}
	.st47{filter:url(#Adobe_OpacityMaskFilter_9_);}
	.st48{mask:url(#SVGID_15_);fill:url(#SVGID_16_);}
	.st49{opacity:0.3;fill:url(#SVGID_17_);}
	.st50{filter:url(#Adobe_OpacityMaskFilter_10_);}
	.st51{filter:url(#Adobe_OpacityMaskFilter_11_);}
	.st52{mask:url(#SVGID_18_);fill:url(#SVGID_19_);}
	.st53{opacity:0.3;fill:url(#SVGID_20_);}
	.st54{filter:url(#Adobe_OpacityMaskFilter_12_);}
	.st55{filter:url(#Adobe_OpacityMaskFilter_13_);}
	.st56{mask:url(#SVGID_21_);fill:url(#SVGID_22_);}
	.st57{opacity:0.2;fill:url(#SVGID_23_);}
	.st58{fill:#081E69;}
	.st59{fill:#58595B;}
	.st60{opacity:0.12;fill:#6D6E71;}
	.st61{fill:#F2F2F2;}
	.st62{fill:#6D6E71;}
	.st63{opacity:0.4;fill:#FFFFFF;}
	.st64{opacity:0.3;fill:#BCBEC0;}
	.st65{fill:#596068;}
	.st66{filter:url(#Adobe_OpacityMaskFilter_14_);}
	.st67{filter:url(#Adobe_OpacityMaskFilter_15_);}
	.st68{mask:url(#SVGID_24_);fill:url(#SVGID_25_);}
	.st69{opacity:0.2;fill:url(#SVGID_26_);}
	.st70{fill:#E3D7C9;}
	.st71{fill:#A7A9AC;}
	.st72{filter:url(#Adobe_OpacityMaskFilter_16_);}
	.st73{filter:url(#Adobe_OpacityMaskFilter_17_);}
	.st74{mask:url(#SVGID_27_);fill:url(#SVGID_28_);}
	.st75{opacity:0.2;fill:url(#SVGID_29_);}
	.st76{filter:url(#Adobe_OpacityMaskFilter_18_);}
	.st77{filter:url(#Adobe_OpacityMaskFilter_19_);}
	.st78{mask:url(#SVGID_30_);fill:url(#SVGID_31_);}
	.st79{opacity:0.2;fill:url(#SVGID_32_);}
	.st80{filter:url(#Adobe_OpacityMaskFilter_20_);}
	.st81{filter:url(#Adobe_OpacityMaskFilter_21_);}
	.st82{mask:url(#SVGID_33_);fill:url(#SVGID_34_);}
	.st83{opacity:0.2;fill:url(#SVGID_35_);}
	.st84{filter:url(#Adobe_OpacityMaskFilter_22_);}
	.st85{filter:url(#Adobe_OpacityMaskFilter_23_);}
	.st86{mask:url(#SVGID_36_);fill:url(#SVGID_37_);}
	.st87{opacity:0.2;fill:url(#SVGID_38_);}
	.st88{filter:url(#Adobe_OpacityMaskFilter_24_);}
	.st89{filter:url(#Adobe_OpacityMaskFilter_25_);}
	.st90{mask:url(#SVGID_39_);fill:url(#SVGID_40_);}
	.st91{opacity:0.2;fill:url(#SVGID_41_);}
	.st92{fill:#E6E7E8;}
	.st93{opacity:0.2;}
	.st94{fill:#FFFFF7;}
	.st95{opacity:0.1;}
	.st96{fill:#FFFFFF;}
	.st97{filter:url(#Adobe_OpacityMaskFilter_26_);}
	.st98{filter:url(#Adobe_OpacityMaskFilter_27_);}
	.st99{mask:url(#SVGID_42_);fill:url(#SVGID_43_);}
	.st100{opacity:0.6;fill:url(#SVGID_44_);}
	.st101{filter:url(#Adobe_OpacityMaskFilter_28_);}
	.st102{filter:url(#Adobe_OpacityMaskFilter_29_);}
	.st103{mask:url(#SVGID_45_);fill:url(#SVGID_46_);}
	.st104{fill:url(#SVGID_47_);}
	.st105{filter:url(#Adobe_OpacityMaskFilter_30_);}
	.st106{filter:url(#Adobe_OpacityMaskFilter_31_);}
	.st107{mask:url(#SVGID_48_);fill:url(#SVGID_49_);}
	.st108{opacity:0.2;fill:url(#SVGID_50_);}
	.st109{filter:url(#Adobe_OpacityMaskFilter_32_);}
	.st110{filter:url(#Adobe_OpacityMaskFilter_33_);}
	.st111{mask:url(#SVGID_51_);fill:url(#SVGID_52_);}
	.st112{opacity:0.2;fill:url(#SVGID_53_);}
	.st113{filter:url(#Adobe_OpacityMaskFilter_34_);}
	.st114{filter:url(#Adobe_OpacityMaskFilter_35_);}
	.st115{mask:url(#SVGID_54_);fill:url(#SVGID_55_);}
	.st116{fill:url(#SVGID_56_);}
	.st117{filter:url(#Adobe_OpacityMaskFilter_36_);}
	.st118{filter:url(#Adobe_OpacityMaskFilter_37_);}
	.st119{mask:url(#SVGID_57_);fill:url(#SVGID_58_);}
	.st120{fill:url(#SVGID_59_);}
	.st121{filter:url(#Adobe_OpacityMaskFilter_38_);}
	.st122{filter:url(#Adobe_OpacityMaskFilter_39_);}
	.st123{mask:url(#SVGID_60_);fill:url(#SVGID_61_);}
	.st124{opacity:0.1;fill:url(#SVGID_62_);}
	.st125{filter:url(#Adobe_OpacityMaskFilter_40_);}
	.st126{filter:url(#Adobe_OpacityMaskFilter_41_);}
	.st127{mask:url(#SVGID_63_);fill:url(#SVGID_64_);}
	.st128{opacity:0.2;fill:url(#SVGID_65_);}
	.st129{filter:url(#Adobe_OpacityMaskFilter_42_);}
	.st130{filter:url(#Adobe_OpacityMaskFilter_43_);}
	.st131{mask:url(#SVGID_66_);fill:url(#SVGID_67_);}
	.st132{opacity:0.2;fill:url(#SVGID_68_);}
	.st133{filter:url(#Adobe_OpacityMaskFilter_44_);}
	.st134{filter:url(#Adobe_OpacityMaskFilter_45_);}
	.st135{mask:url(#SVGID_69_);fill:url(#SVGID_70_);}
	.st136{opacity:0.2;fill:url(#SVGID_71_);}
	.st137{fill:#EEB292;}
	.st138{filter:url(#Adobe_OpacityMaskFilter_46_);}
	.st139{filter:url(#Adobe_OpacityMaskFilter_47_);}
	.st140{mask:url(#SVGID_72_);fill:url(#SVGID_73_);}
	.st141{opacity:0.2;fill:url(#SVGID_74_);}
	.st142{filter:url(#Adobe_OpacityMaskFilter_48_);}
	.st143{filter:url(#Adobe_OpacityMaskFilter_49_);}
	.st144{mask:url(#SVGID_75_);fill:url(#SVGID_76_);}
	.st145{opacity:0.2;fill:url(#SVGID_77_);}
	.st146{filter:url(#Adobe_OpacityMaskFilter_50_);}
	.st147{filter:url(#Adobe_OpacityMaskFilter_51_);}
	.st148{mask:url(#SVGID_78_);fill:url(#SVGID_79_);}
	.st149{opacity:0.2;fill:url(#SVGID_80_);}
	.st150{filter:url(#Adobe_OpacityMaskFilter_52_);}
	.st151{filter:url(#Adobe_OpacityMaskFilter_53_);}
	.st152{mask:url(#SVGID_81_);fill:url(#SVGID_82_);}
	.st153{opacity:0.2;fill:url(#SVGID_83_);}
	.st154{filter:url(#Adobe_OpacityMaskFilter_54_);}
	.st155{filter:url(#Adobe_OpacityMaskFilter_55_);}
	.st156{mask:url(#SVGID_84_);fill:url(#SVGID_85_);}
	.st157{opacity:0.1;fill:url(#SVGID_86_);}
	.st158{filter:url(#Adobe_OpacityMaskFilter_56_);}
	.st159{filter:url(#Adobe_OpacityMaskFilter_57_);}
	.st160{mask:url(#SVGID_87_);fill:url(#SVGID_88_);}
	.st161{opacity:0.1;fill:url(#SVGID_89_);}
	.st162{filter:url(#Adobe_OpacityMaskFilter_58_);}
	.st163{filter:url(#Adobe_OpacityMaskFilter_59_);}
	.st164{mask:url(#SVGID_90_);fill:url(#SVGID_91_);}
	.st165{opacity:0.2;fill:url(#SVGID_92_);}
	.st166{filter:url(#Adobe_OpacityMaskFilter_60_);}
	.st167{filter:url(#Adobe_OpacityMaskFilter_61_);}
	.st168{mask:url(#SVGID_93_);fill:url(#SVGID_94_);}
	.st169{opacity:0.2;fill:url(#SVGID_95_);}
	.st170{filter:url(#Adobe_OpacityMaskFilter_62_);}
	.st171{filter:url(#Adobe_OpacityMaskFilter_63_);}
	.st172{mask:url(#SVGID_96_);fill:url(#SVGID_97_);}
	.st173{opacity:0.2;fill:url(#SVGID_98_);}
	.st174{filter:url(#Adobe_OpacityMaskFilter_64_);}
	.st175{filter:url(#Adobe_OpacityMaskFilter_65_);}
	.st176{mask:url(#SVGID_99_);fill:url(#SVGID_100_);}
	.st177{opacity:0.1;fill:url(#SVGID_101_);}
	.st178{fill:#3A3937;}
	.st179{fill:none;}
	.st180{fill:#808285;}
	.st181{fill:#D1D3D4;}
	.st182{fill:#295FD6;}
	.st183{fill:url(#SVGID_102_);}
	.st184{fill:url(#SVGID_103_);}
	.st185{fill:#A3AFBD;}
	.st186{fill:url(#SVGID_104_);}
	.st187{fill:url(#SVGID_105_);}
	.st188{fill:url(#SVGID_106_);}
	.st189{fill:url(#SVGID_107_);}
	.st190{fill:url(#SVGID_108_);}
	.st191{fill:url(#SVGID_109_);}
	.st192{fill-rule:evenodd;clip-rule:evenodd;fill:#295FD6;}
	.st193{fill-rule:evenodd;clip-rule:evenodd;fill:#081E69;}
	.st194{fill-rule:evenodd;clip-rule:evenodd;fill:#061338;}
	.st195{clip-path:url(#SVGID_111_);}
	.st196{fill:url(#SVGID_112_);}
	.st197{fill:url(#SVGID_113_);}
	.st198{fill:url(#SVGID_114_);}
	.st199{fill:url(#SVGID_115_);}
	.st200{fill:url(#SVGID_116_);}
	.st201{fill:url(#SVGID_117_);}
	.st202{fill:url(#SVGID_118_);}
	.st203{fill:url(#SVGID_119_);}
	.st204{fill-rule:evenodd;clip-rule:evenodd;fill:#FAA31A;}
	.st205{fill-rule:evenodd;clip-rule:evenodd;fill:#FCD305;}
	.st206{fill-rule:evenodd;clip-rule:evenodd;fill:#DB8D26;}
	.st207{fill:#D89D09;}
	.st208{fill:#414042;}
	.st209{fill:#0E338C;}
	.st210{clip-path:url(#SVGID_121_);}
	.st211{fill:#304B8E;}
	.st212{enable-background:new    ;}
	.st213{clip-path:url(#SVGID_123_);}
	.st214{fill:#7B8D96;}
	.st215{fill:#53B7E8;}
	.st216{fill:#FF317B;}
	.st217{fill:#FCD305;}
	.st218{fill:#FFEC00;}
	.st219{clip-path:url(#SVGID_125_);}
	.st220{fill:#4B58AD;}
</style>
<g>
	<g>
		<path class="st20" d="M132.44,95.55c0.28,0.34,2.65-0.73,2.9-1.09c0.32-1.02,0.3-1.32,0.13-2.12c-0.5,0.75-1.22,1.41-1.92,1.99
			C132.88,94.89,131.97,95.07,132.44,95.55z"/>
		<path class="st20" d="M135.41,92.36c-0.65,2.64-1.5,3.56-1.38,4.72c0.05,0.47,4.79,1.59,5.33-0.56c0.03-0.13,0.3-1.58,0.68-3.22
			C139,92.83,135.44,92.31,135.41,92.36z"/>
		<path class="st20" d="M101.25,47.78c3.67,3.51,18.17,11.49,24.35,16.59c7.58,6.25,9.42-1.05,7.76-3.66
			c-4.37-6.86-19.74-23.69-23.68-21.88C107.97,39.61,100.59,47.14,101.25,47.78z"/>
		<path class="st20" d="M126.84,62.46c-0.05,0.38-0.05,0.73,0.01,1.02c1.03,5.28,8.4,24.2,8.57,29.87c1.87-0.44,3.4-0.1,4.63-0.06
			c0.43-3.05-4.31-32.98-8.08-33.85C128.5,58.63,127.08,60.79,126.84,62.46z"/>
		<path class="st6" d="M141.24,90.49c-0.52-7.98-3.76-26.53-7.26-31.67c-3.56-5.38-20.51-25.88-25.69-23.42
			c-1.73,0.83-9.73,12.59-9.43,12.86c1.9,1.76,26.99,16.51,27.5,16.83c0.67,2.17,1.67,5.05,2.73,8.09
			c2.31,6.64,5.19,14.91,5.33,18.11L141.24,90.49z"/>
	</g>
	<path class="st20" d="M102.06,133.08c-0.21,1.3-8.34,66.52-8.34,66.52c-1.76,1.21-4.4,0.79-4.43,0.66c0,0-1.72-67.17-1.29-70.16
		C89.7,131.53,100.87,134.07,102.06,133.08z"/>
	<path class="st7" d="M89.59,199.35l3.77-1.72c0,0,0.71,1.17,1.3,1.94c1.14,1.47,6.97,2.85,6.83,4.83c-0.07,1-2.32,1.77-4.12,1.73
		c-1.8-0.04-3.25-0.44-4.28-0.83c-1.03-0.4-3.38-1.49-3.72-2.13c-0.6-1.11,0.01-2.33,0.01-2.33
		C89.27,199.71,89.59,199.35,89.59,199.35z"/>
	<g>
		<path class="st7" d="M108.08,193.66l-4,1.16c0,0,0.3,1.33,0.39,2.27c0.19,1.83-3.17,6.6-1.69,7.98c0.75,0.7,2.96-0.19,4.26-1.37
			c1.3-1.19,2.33-2.34,2.59-3.38c0.33-1.3,1.47-3.28,1.27-3.98c-0.34-1.21-1.64-1.71-1.64-1.71
			C108.57,193.73,108.08,193.66,108.08,193.66z"/>
		<path class="st20" d="M104.47,197.09c0,0,1.43,0.34,2.94-0.1c0.85-0.25,1.86-2.36,1.86-2.36c-0.7-0.9-1.2-1.48-1.2-1.48
			l-4.23,1.61C103.84,194.76,104.28,195.67,104.47,197.09z"/>
		<path class="st8" d="M68.5,88.28c2.98,1.09,14.45,1.59,23.21,0.62c2.53,14.74,0.17,40.45-0.84,60.76
			c-0.45,9,18.14,44.65,18.14,44.65c-1.69,1.97-4.76,1.62-4.82,1.43c0,0-27.48-31.32-29.21-45.37
			C71.35,121.02,68.28,90.65,68.5,88.28z"/>
	</g>
	<path class="st20" d="M94.66,199.56c0,0-0.82,1.18-2.25,1.82c-0.81,0.37-3.03-0.55-3.03-0.55c-0.12-1.12-0.15-1.87-0.15-1.87
		l4.26-1.53C93.5,197.42,93.81,198.38,94.66,199.56z"/>
	<path class="st8" d="M112.4,83.86c-2.99,1.05-15.82,1.52-24.57,0.43c0,0-2.76,43.06-1.05,64.01c1.98,24.27,2.16,49.87,2.16,49.87
		c1.66,2,5.33,0.36,5.39,0.18C94.33,198.35,112.76,88.38,112.4,83.86z"/>
	<path class="st0" d="M68.66,80.07c0,0-0.86,8.93-0.86,16.67c0,0,8.32,3.27,18.05,3.26l2.72-7.71c0,0,3.75,7.8,5.18,7.83
		c8.01,0.19,16.14-0.65,21.61-3.82l-3.02-11.67L68.66,80.07z"/>
	<path class="st20" d="M92.86,19.83c0.6,0.45,6.81,4.05,8.63,3.85c-0.03,0.48-1.44,5.54-0.38,8.32c-0.6,2.53-7.96,2.29-9.82-2.09
		C92.18,28.71,93.13,22.2,92.86,19.83z"/>
	<path class="st6" d="M73.78,41.99c1.49-4.51,4.28-9.32,9.98-10.43c1.9-0.37,7.53-1.65,7.53-1.65s3.83,3.43,6.44,3.71
		c1.79,0.19,3.38-1.61,3.38-1.61s6.39,2.11,7.53,2.8c4.46,2.69,5.25,7.05,4.51,10.54c-2.59,12.16,3.1,40.6-0.74,42.2
		c-5,2.08-33,3.45-43.74-3.35c-0.9-0.57-1.36-1.58-1.26-2.6C68.02,75.34,70.44,52.15,73.78,41.99z"/>
	<g>
		<path class="st20" d="M16.78,45.6c-0.91-0.51-1.92-0.98-2.94-1.39c-1.21-0.49-4.04-1.3-4.24-1.35c-0.59-0.13-2.01-0.65-2.48-0.62
			c-0.3,0.02-1.1,0.39-1.31,0.69c-0.27,0.4,0.07,0.81,0.07,0.81c-0.45,0.44,0.89,1.3,0.75,1.38c-0.55,0.34-0.24,1.17,2,1.75
			c0.13,0.04,5.33,2.5,7.05,3.16C16.19,49.03,16.83,45.63,16.78,45.6z"/>
		<path class="st20" d="M74.2,36.35c-4.91,1.59-18.81,10.5-26.31,13.54c-9.21,3.73-3.21,8.56-0.04,8.3
			c8.34-0.7,30.88-6.42,30.95-10.61C78.83,45.76,75.09,36.06,74.2,36.35z"/>
		<path class="st20" d="M49.12,51.81c-0.33-0.22-0.66-0.37-0.95-0.45c-5.39-1.46-26.31-3.55-31.68-5.93
			c-0.43,1.8-0.9,3.27-1.48,4.31c8.9,3.75,32.16,10.67,34.66,7.82C51.95,54.94,50.57,52.76,49.12,51.81z"/>
		<path class="st6" d="M16.56,51.71c7.68,3.11,26.42,8.58,32.78,7.86c6.61-0.67,30.07-6.37,30.08-11.92c0-1.86,3.7-15.96,1.9-15.33
			c-15.74,5.54-33.91,17.61-34.44,17.9c-2.32-0.39-5.45-0.81-8.76-1.26C30.89,48,21.9,46.79,18.85,45.49L16.56,51.71z"/>
	</g>
	<path class="st9" d="M101.48,41.3c-1.89-6.72-1.25-9.4-0.75-12.27c0.51-2.96,0.85-6.01-0.05-8.32c0.06-0.08,4.46-4.78,6.09-2.46
		c1.07,2.85,1.48,6.29,0.65,9.86c-1.22,5.22,0.32,9.13,1.28,10.82c1.59,2.81,1.75,6.68,1.63,8.52c-0.68,10.74-7.17,16.04-9.13,15.04
		C99.04,61.4,104.2,50.96,101.48,41.3z"/>
	<path class="st20" d="M100.39,11.08c3.34-0.1,5.98,1.28,6.61,4.33c0.22,1.09-0.63,10.84-6.11,12.14c-2.32,0.55-6.59-3.37-6.68-5.95
		c0,0-0.12-3.51-0.12-3.54C93.98,14.64,96.8,11.19,100.39,11.08z"/>
	<path class="st9" d="M80.58,46.19c-0.23-2.09-0.08-6.5,2.32-9.73c1.45-1.94,3.73-6.44,1.7-12.34c-2.03-5.91,0.09-11.56,3.53-15.29
		c3.43-3.74,8.18-4.76,10.75-3.72c3.21,1.3,3.23,2.82,3.23,2.82s1.64-0.36,3.43,0.58c3.87,2.03,3.59,10.44,0.53,13.04
		c2.04-9.03-3.86-10.47-3.86-10.47s-4.12,0.4-6.14,2.69c-1.84,2.08-3.67,7.66-2.57,11.93c0.85,3.26,3.48,5.61,0.71,13.3
		c-3.98,11.05,4.32,22.81,0.99,24.1C92.17,64.27,81.92,58.39,80.58,46.19z"/>
	<path class="st20" d="M94.27,16.71c0.35,0.03,1,0.19,1.47,0.55c-0.38,1.15-1.27,2.97-1.7,3.87c-0.85-0.29-1.8-1.64-1.74-2.48
		C92.37,17.76,93.35,16.64,94.27,16.71z"/>
</g>
</svg>
