<?xml version="1.0" encoding="utf-8"?>
<!-- Generator: Adobe Illustrator 23.0.1, SVG Export Plug-In . SVG Version: 6.00 Build 0)  -->
<svg version="1.1" id="Layer_1" xmlns="http://www.w3.org/2000/svg" xmlns:xlink="http://www.w3.org/1999/xlink" x="0px" y="0px"
	 viewBox="0 0 97.87 94.23" style="enable-background:new 0 0 97.87 94.23;" xml:space="preserve">
<style type="text/css">
	.st0{fill:#F4F5F7;}
	.st1{fill:#FFFFFF;}
	.st2{fill:url(#SVGID_1_);}
	.st3{fill:#F1F2F2;}
	.st4{fill:#FAA31A;}
	.st5{fill:url(#SVGID_2_);}
	.st6{fill:url(#SVGID_3_);}
	.st7{fill:#F4D7CE;}
	.st8{fill:#FEBB00;}
	.st9{fill:#194767;}
	.st10{fill:#00A79D;}
	.st11{fill:#825204;}
	.st12{fill:#2D5DEA;}
	.st13{fill-rule:evenodd;clip-rule:evenodd;fill:#E3EEF7;}
	.st14{fill-rule:evenodd;clip-rule:evenodd;fill:#FFFFFF;}
	.st15{fill-rule:evenodd;clip-rule:evenodd;fill:#282B2E;}
	.st16{fill:none;stroke:#D1D3D4;stroke-width:0.125;stroke-miterlimit:10;}
	.st17{fill:#231F20;}
	.st18{fill-rule:evenodd;clip-rule:evenodd;fill:#AFC4D5;}
	.st19{fill:#BCBEC0;}
	.st20{fill:#939598;}
	.st21{fill:#FCD2C5;}
	.st22{fill:#061338;}
	.st23{fill:#E3EEF7;}
	.st24{opacity:0.72;fill-rule:evenodd;clip-rule:evenodd;fill:#E6E7E8;}
	.st25{opacity:0.72;fill-rule:evenodd;clip-rule:evenodd;fill:#808285;}
	.st26{fill-rule:evenodd;clip-rule:evenodd;fill:#F0F1F2;}
	.st27{opacity:0.72;fill-rule:evenodd;clip-rule:evenodd;fill:#EFEFEF;}
	.st28{fill-rule:evenodd;clip-rule:evenodd;fill:#E6E7E8;}
	.st29{fill:#FFC7B0;}
	.st30{fill:#50514F;}
	.st31{filter:url(#Adobe_OpacityMaskFilter);}
	.st32{filter:url(#Adobe_OpacityMaskFilter_1_);}
	.st33{mask:url(#SVGID_4_);fill:url(#SVGID_5_);}
	.st34{opacity:0.2;fill:url(#SVGID_6_);}
	.st35{filter:url(#Adobe_OpacityMaskFilter_2_);}
	.st36{filter:url(#Adobe_OpacityMaskFilter_3_);}
	.st37{mask:url(#SVGID_7_);fill:url(#SVGID_8_);}
	.st38{opacity:0.2;fill:url(#SVGID_9_);}
	.st39{filter:url(#Adobe_OpacityMaskFilter_4_);}
	.st40{filter:url(#Adobe_OpacityMaskFilter_5_);}
	.st41{mask:url(#SVGID_10_);fill:url(#SVGID_11_);}
	.st42{opacity:0.2;fill:url(#SVGID_12_);}
	.st43{filter:url(#Adobe_OpacityMaskFilter_6_);}
	.st44{filter:url(#Adobe_OpacityMaskFilter_7_);}
	.st45{mask:url(#SVGID_13_);fill:url(#SVGID_14_);}
	.st46{opacity:0.3;fill:url(#SVGID_15_);}
	.st47{filter:url(#Adobe_OpacityMaskFilter_8_);}
	.st48{filter:url(#Adobe_OpacityMaskFilter_9_);}
	.st49{mask:url(#SVGID_16_);fill:url(#SVGID_17_);}
	.st50{opacity:0.3;fill:url(#SVGID_18_);}
	.st51{filter:url(#Adobe_OpacityMaskFilter_10_);}
	.st52{filter:url(#Adobe_OpacityMaskFilter_11_);}
	.st53{mask:url(#SVGID_19_);fill:url(#SVGID_20_);}
	.st54{opacity:0.3;fill:url(#SVGID_21_);}
	.st55{filter:url(#Adobe_OpacityMaskFilter_12_);}
	.st56{filter:url(#Adobe_OpacityMaskFilter_13_);}
	.st57{mask:url(#SVGID_22_);fill:url(#SVGID_23_);}
	.st58{opacity:0.2;fill:url(#SVGID_24_);}
	.st59{filter:url(#Adobe_OpacityMaskFilter_14_);}
	.st60{filter:url(#Adobe_OpacityMaskFilter_15_);}
	.st61{mask:url(#SVGID_25_);fill:url(#SVGID_26_);}
	.st62{opacity:0.2;fill:url(#SVGID_27_);}
	.st63{fill:#081E69;}
	.st64{fill:#58595B;}
	.st65{opacity:0.12;fill:#6D6E71;}
	.st66{fill:#F2F2F2;}
	.st67{fill:#6D6E71;}
	.st68{opacity:0.4;fill:#FFFFFF;}
	.st69{opacity:0.3;fill:#BCBEC0;}
	.st70{fill:#596068;}
	.st71{filter:url(#Adobe_OpacityMaskFilter_16_);}
	.st72{filter:url(#Adobe_OpacityMaskFilter_17_);}
	.st73{mask:url(#SVGID_28_);fill:url(#SVGID_29_);}
	.st74{opacity:0.2;fill:url(#SVGID_30_);}
	.st75{fill:#E3D7C9;}
	.st76{fill:#A7A9AC;}
	.st77{filter:url(#Adobe_OpacityMaskFilter_18_);}
	.st78{filter:url(#Adobe_OpacityMaskFilter_19_);}
	.st79{mask:url(#SVGID_31_);fill:url(#SVGID_32_);}
	.st80{opacity:0.2;fill:url(#SVGID_33_);}
	.st81{filter:url(#Adobe_OpacityMaskFilter_20_);}
	.st82{filter:url(#Adobe_OpacityMaskFilter_21_);}
	.st83{mask:url(#SVGID_34_);fill:url(#SVGID_35_);}
	.st84{opacity:0.2;fill:url(#SVGID_36_);}
	.st85{filter:url(#Adobe_OpacityMaskFilter_22_);}
	.st86{filter:url(#Adobe_OpacityMaskFilter_23_);}
	.st87{mask:url(#SVGID_37_);fill:url(#SVGID_38_);}
	.st88{opacity:0.2;fill:url(#SVGID_39_);}
	.st89{filter:url(#Adobe_OpacityMaskFilter_24_);}
	.st90{filter:url(#Adobe_OpacityMaskFilter_25_);}
	.st91{mask:url(#SVGID_40_);fill:url(#SVGID_41_);}
	.st92{opacity:0.2;fill:url(#SVGID_42_);}
	.st93{filter:url(#Adobe_OpacityMaskFilter_26_);}
	.st94{filter:url(#Adobe_OpacityMaskFilter_27_);}
	.st95{mask:url(#SVGID_43_);fill:url(#SVGID_44_);}
	.st96{opacity:0.2;fill:url(#SVGID_45_);}
	.st97{filter:url(#Adobe_OpacityMaskFilter_28_);}
	.st98{filter:url(#Adobe_OpacityMaskFilter_29_);}
	.st99{mask:url(#SVGID_46_);fill:url(#SVGID_47_);}
	.st100{opacity:0.2;fill:url(#SVGID_48_);}
	.st101{fill:#E6E7E8;}
	.st102{opacity:0.2;}
	.st103{fill:#FFFFF7;}
	.st104{opacity:0.1;}
	.st105{filter:url(#Adobe_OpacityMaskFilter_30_);}
	.st106{filter:url(#Adobe_OpacityMaskFilter_31_);}
	.st107{mask:url(#SVGID_49_);fill:url(#SVGID_50_);}
	.st108{opacity:0.6;fill:url(#SVGID_51_);}
	.st109{filter:url(#Adobe_OpacityMaskFilter_32_);}
	.st110{filter:url(#Adobe_OpacityMaskFilter_33_);}
	.st111{mask:url(#SVGID_52_);fill:url(#SVGID_53_);}
	.st112{fill:url(#SVGID_54_);}
	.st113{filter:url(#Adobe_OpacityMaskFilter_34_);}
	.st114{filter:url(#Adobe_OpacityMaskFilter_35_);}
	.st115{mask:url(#SVGID_55_);fill:url(#SVGID_56_);}
	.st116{opacity:0.2;fill:url(#SVGID_57_);}
	.st117{filter:url(#Adobe_OpacityMaskFilter_36_);}
	.st118{filter:url(#Adobe_OpacityMaskFilter_37_);}
	.st119{mask:url(#SVGID_58_);fill:url(#SVGID_59_);}
	.st120{opacity:0.2;fill:url(#SVGID_60_);}
	.st121{filter:url(#Adobe_OpacityMaskFilter_38_);}
	.st122{filter:url(#Adobe_OpacityMaskFilter_39_);}
	.st123{mask:url(#SVGID_61_);fill:url(#SVGID_62_);}
	.st124{fill:url(#SVGID_63_);}
	.st125{filter:url(#Adobe_OpacityMaskFilter_40_);}
	.st126{filter:url(#Adobe_OpacityMaskFilter_41_);}
	.st127{mask:url(#SVGID_64_);fill:url(#SVGID_65_);}
	.st128{fill:url(#SVGID_66_);}
	.st129{filter:url(#Adobe_OpacityMaskFilter_42_);}
	.st130{filter:url(#Adobe_OpacityMaskFilter_43_);}
	.st131{mask:url(#SVGID_67_);fill:url(#SVGID_68_);}
	.st132{opacity:0.1;fill:url(#SVGID_69_);}
	.st133{filter:url(#Adobe_OpacityMaskFilter_44_);}
	.st134{filter:url(#Adobe_OpacityMaskFilter_45_);}
	.st135{mask:url(#SVGID_70_);fill:url(#SVGID_71_);}
	.st136{opacity:0.2;fill:url(#SVGID_72_);}
	.st137{filter:url(#Adobe_OpacityMaskFilter_46_);}
	.st138{filter:url(#Adobe_OpacityMaskFilter_47_);}
	.st139{mask:url(#SVGID_73_);fill:url(#SVGID_74_);}
	.st140{opacity:0.2;fill:url(#SVGID_75_);}
	.st141{filter:url(#Adobe_OpacityMaskFilter_48_);}
	.st142{filter:url(#Adobe_OpacityMaskFilter_49_);}
	.st143{mask:url(#SVGID_76_);fill:url(#SVGID_77_);}
	.st144{opacity:0.2;fill:url(#SVGID_78_);}
	.st145{fill:#EEB292;}
	.st146{filter:url(#Adobe_OpacityMaskFilter_50_);}
	.st147{filter:url(#Adobe_OpacityMaskFilter_51_);}
	.st148{mask:url(#SVGID_79_);fill:url(#SVGID_80_);}
	.st149{opacity:0.2;fill:url(#SVGID_81_);}
	.st150{filter:url(#Adobe_OpacityMaskFilter_52_);}
	.st151{filter:url(#Adobe_OpacityMaskFilter_53_);}
	.st152{mask:url(#SVGID_82_);fill:url(#SVGID_83_);}
	.st153{opacity:0.2;fill:url(#SVGID_84_);}
	.st154{filter:url(#Adobe_OpacityMaskFilter_54_);}
	.st155{filter:url(#Adobe_OpacityMaskFilter_55_);}
	.st156{mask:url(#SVGID_85_);fill:url(#SVGID_86_);}
	.st157{opacity:0.2;fill:url(#SVGID_87_);}
	.st158{filter:url(#Adobe_OpacityMaskFilter_56_);}
	.st159{filter:url(#Adobe_OpacityMaskFilter_57_);}
	.st160{mask:url(#SVGID_88_);fill:url(#SVGID_89_);}
	.st161{opacity:0.2;fill:url(#SVGID_90_);}
	.st162{filter:url(#Adobe_OpacityMaskFilter_58_);}
	.st163{filter:url(#Adobe_OpacityMaskFilter_59_);}
	.st164{mask:url(#SVGID_91_);fill:url(#SVGID_92_);}
	.st165{opacity:0.2;fill:url(#SVGID_93_);}
	.st166{filter:url(#Adobe_OpacityMaskFilter_60_);}
	.st167{filter:url(#Adobe_OpacityMaskFilter_61_);}
	.st168{mask:url(#SVGID_94_);fill:url(#SVGID_95_);}
	.st169{opacity:0.1;fill:url(#SVGID_96_);}
	.st170{filter:url(#Adobe_OpacityMaskFilter_62_);}
	.st171{filter:url(#Adobe_OpacityMaskFilter_63_);}
	.st172{mask:url(#SVGID_97_);fill:url(#SVGID_98_);}
	.st173{opacity:0.1;fill:url(#SVGID_99_);}
	.st174{filter:url(#Adobe_OpacityMaskFilter_64_);}
	.st175{filter:url(#Adobe_OpacityMaskFilter_65_);}
	.st176{mask:url(#SVGID_100_);fill:url(#SVGID_101_);}
	.st177{opacity:0.2;fill:url(#SVGID_102_);}
	.st178{filter:url(#Adobe_OpacityMaskFilter_66_);}
	.st179{filter:url(#Adobe_OpacityMaskFilter_67_);}
	.st180{mask:url(#SVGID_103_);fill:url(#SVGID_104_);}
	.st181{opacity:0.2;fill:url(#SVGID_105_);}
	.st182{filter:url(#Adobe_OpacityMaskFilter_68_);}
	.st183{filter:url(#Adobe_OpacityMaskFilter_69_);}
	.st184{mask:url(#SVGID_106_);fill:url(#SVGID_107_);}
	.st185{opacity:0.2;fill:url(#SVGID_108_);}
	.st186{filter:url(#Adobe_OpacityMaskFilter_70_);}
	.st187{filter:url(#Adobe_OpacityMaskFilter_71_);}
	.st188{mask:url(#SVGID_109_);fill:url(#SVGID_110_);}
	.st189{opacity:0.1;fill:url(#SVGID_111_);}
	.st190{fill:#3A3937;}
	.st191{fill:none;}
	.st192{fill:#808285;}
	.st193{fill:#D1D3D4;}
	.st194{fill:#295FD6;}
	.st195{fill:url(#SVGID_112_);}
	.st196{fill:url(#SVGID_113_);}
	.st197{fill:#A3AFBD;}
	.st198{fill:url(#SVGID_114_);}
	.st199{fill:url(#SVGID_115_);}
	.st200{fill:url(#SVGID_116_);}
	.st201{fill:url(#SVGID_117_);}
	.st202{fill:url(#SVGID_118_);}
	.st203{fill:url(#SVGID_119_);}
	.st204{fill-rule:evenodd;clip-rule:evenodd;fill:#295FD6;}
	.st205{fill-rule:evenodd;clip-rule:evenodd;fill:#081E69;}
	.st206{fill-rule:evenodd;clip-rule:evenodd;fill:#061338;}
	.st207{clip-path:url(#SVGID_121_);}
	.st208{fill:url(#SVGID_126_);}
	.st209{fill:url(#SVGID_127_);}
	.st210{fill:url(#SVGID_128_);}
	.st211{fill:url(#SVGID_129_);}
	.st212{fill:url(#SVGID_130_);}
	.st213{fill:url(#SVGID_131_);}
	.st214{fill:url(#SVGID_132_);}
	.st215{fill:url(#SVGID_133_);}
	.st216{fill-rule:evenodd;clip-rule:evenodd;fill:#FAA31A;}
	.st217{fill-rule:evenodd;clip-rule:evenodd;fill:#FCD305;}
	.st218{fill-rule:evenodd;clip-rule:evenodd;fill:#DB8D26;}
	.st219{fill:#D89D09;}
	.st220{fill:#414042;}
	.st221{fill:#0E338C;}
	.st222{clip-path:url(#SVGID_135_);}
	.st223{fill:#304B8E;}
	.st224{enable-background:new    ;}
	.st225{clip-path:url(#SVGID_137_);}
	.st226{fill:#FCD305;}
	.st227{fill:#FFEC00;}
	.st228{fill:#525252;}
</style>
<g>
	<circle class="st4" cx="48.94" cy="46.12" r="42.88"/>
</g>
<g>
	<path class="st1" d="M34.27,46.18c0.25-3.35,0.55-6.43,0.68-9.52c0.08-1.83,1.07-2.98,2.51-3.77c1.12-0.62,2.36-1.09,3.61-1.41
		c0.87-0.23,1.38-0.64,1.71-1.44c1.45-3.46,0.98-2.9,4.79-2.95c1.52-0.02,3.04,0.07,4.55-0.03c1.3-0.08,2.06,0.44,2.42,1.64
		c0.02,0.07,0.05,0.14,0.07,0.2c0.46,1.58,1.38,2.55,3.1,2.84c0.96,0.16,1.91,0.66,2.77,1.16c1.42,0.84,2.38,1.98,2.46,3.8
		c0.13,3.09,0.43,6.17,0.67,9.32c0.48,0.24,0.94,0.44,1.36,0.69c1.33,0.81,2.1,2.01,2.12,3.56c0.05,3.32-0.01,6.64,0.03,9.97
		c0.01,1.15-0.64,1.49-1.75,1.51c0,0.77,0.04,1.41-0.01,2.04c-0.07,1.07-0.26,1.29-1.29,1.32c-1.37,0.05-2.74,0.05-4.12,0.01
		c-1.19-0.03-1.37-0.23-1.44-1.39c-0.04-0.57-0.01-1.15-0.01-1.7c-1.6-0.47-12.48-0.63-18.83-0.29c-0.55,0.6-0.23,1.36-0.3,2.05
		c-0.12,1.06-0.27,1.29-1.3,1.33c-1.37,0.05-2.74,0.05-4.12,0.01c-1.19-0.04-1.37-0.23-1.45-1.39c-0.04-0.57-0.01-1.15-0.01-1.72
		c-0.55-0.28-1.22-0.42-1.49-0.82c-0.28-0.42-0.24-1.1-0.24-1.66c-0.02-2.6,0.07-5.2-0.03-7.8C30.65,49.1,31.39,47.05,34.27,46.18z
		 M61.84,45.41c-0.13-2.58-0.37-4.87-0.32-7.15c0.06-2.41-1.08-3.79-3.21-4.55c-0.61-0.22-1.22-0.43-1.85-0.6
		c-3.67-1-7.42-1.08-11.17-0.72c-2.15,0.21-4.27,0.64-6.27,1.56c-1.66,0.76-2.6,1.9-2.62,3.83c-0.02,2.01-0.24,4.03-0.35,6.04
		c-0.02,0.46,0.06,0.93,0.1,1.57C44.71,41.79,53.13,41.81,61.84,45.41z M43.02,52.65c4-1.77,7.91-1.73,11.8-0.05
		c0.73-5.54,0.45-4.21,3.53-6.74c-6.3-2.02-12.51-2.07-18.88,0.05C42.55,48,42.55,48,43.02,52.65z M41.18,59.96
		c0-2.95,0-5.68,0-8.41c0-0.36,0.02-0.72-0.01-1.08c-0.15-1.58-1.05-2.5-2.63-2.62c-0.93-0.07-1.87-0.03-2.81-0.02
		c-2.33,0.05-3.24,0.95-3.27,3.3c-0.03,2.45-0.01,4.91,0,7.36c0,0.48,0.1,0.95,0.15,1.47C35.46,59.96,38.18,59.96,41.18,59.96z
		 M65.44,59.96c0-3.3,0.05-6.39-0.02-9.48c-0.04-1.58-1.03-2.51-2.6-2.63c-0.93-0.07-1.88,0.06-2.81-0.04
		c-1.97-0.2-3.43,1.27-3.32,3.31c0.13,2.45,0.02,4.9,0.04,7.36c0,0.48,0.09,0.96,0.14,1.49C59.72,59.96,62.44,59.96,65.44,59.96z
		 M55.05,59.95c0-1.37-0.05-2.52,0.01-3.66c0.06-1.19-0.51-1.94-1.53-2.36c-3-1.24-6.03-1.26-9.05-0.05
		c-1.12,0.45-1.73,1.21-1.64,2.49c0.07,1.01,0.02,2.02,0.05,3.03c0.01,0.19,0.16,0.38,0.27,0.64c0.49-0.06,0.95-0.13,1.51-0.2
		c0-1.13-0.06-2.14,0.03-3.13c0.03-0.33,0.4-0.84,0.7-0.91c0.61-0.14,0.88,0.35,0.9,0.93c0.04,1.06,0.06,2.12,0.1,3.28
		c0.65-0.03,1.11-0.06,1.72-0.09c0-1.07,0-1.99,0-2.92c0-0.61,0.09-1.25,0.87-1.22c0.77,0.04,0.79,0.71,0.79,1.3
		c0,0.92,0,1.84,0,2.93c0.74-0.06,1.25-0.11,1.81-0.16c0-1.12-0.01-2.06,0-2.99c0.01-0.54,0.15-1.06,0.79-1.09
		c0.65-0.03,0.84,0.45,0.86,1.01c0.02,0.87,0.01,1.73,0.04,2.6c0.01,0.19,0.15,0.38,0.23,0.57C53.96,59.95,54.37,59.95,55.05,59.95z
		 M52.72,28.88c-2.62,0-5.09,0-7.65,0c-0.18,0.65-0.33,1.21-0.46,1.68c1.61,0,3.02,0,4.44,0c1.4,0,2.8,0,4.37,0
		C53.16,29.96,52.93,29.4,52.72,28.88z M37.6,61.8c-1.24,0-2.23,0-3.39,0c0.05,0.63,0.1,1.14,0.13,1.6c1.18,0,2.17,0,3.25,0
		C37.6,62.83,37.6,62.37,37.6,61.8z M63.64,61.74c-1.26-0.02-2.32-0.2-3.44,0.16c0.05,0.54,0.09,1.01,0.12,1.45
		c2.61,0.23,2.89,0.21,3.32-0.19C63.64,62.8,63.64,62.38,63.64,61.74z"/>
	<path class="st1" d="M40.24,53.02c0.02,1.93-1.46,3.45-3.39,3.47c-1.93,0.02-3.45-1.46-3.47-3.39c-0.02-1.93,1.46-3.45,3.39-3.47
		C38.71,49.61,40.22,51.09,40.24,53.02z M36.86,51.32c-0.92-0.03-1.8,0.82-1.8,1.74c0,0.84,0.74,1.65,1.59,1.74
		c0.91,0.09,1.84-0.7,1.9-1.63C38.61,52.24,37.8,51.35,36.86,51.32z"/>
	<path class="st1" d="M64.51,52.99c0.04,1.93-1.42,3.46-3.35,3.5c-1.93,0.04-3.46-1.42-3.5-3.35c-0.04-1.93,1.42-3.46,3.35-3.5
		C62.94,49.59,64.47,51.06,64.51,52.99z M62.82,53.16c0.06-0.93-0.76-1.81-1.7-1.84c-0.92-0.03-1.79,0.83-1.79,1.75
		c0,0.84,0.75,1.65,1.59,1.73C61.84,54.89,62.76,54.09,62.82,53.16z"/>
</g>
</svg>
