<?xml version="1.0" encoding="utf-8"?>
<!-- Generator: Adobe Illustrator 23.0.1, SVG Export Plug-In . SVG Version: 6.00 Build 0)  -->
<svg version="1.1" id="Layer_1" xmlns="http://www.w3.org/2000/svg" xmlns:xlink="http://www.w3.org/1999/xlink" x="0px" y="0px"
	 viewBox="0 0 97.87 94.23" style="enable-background:new 0 0 97.87 94.23;" xml:space="preserve">
<style type="text/css">
	.st0{fill:#F4F5F7;}
	.st1{fill:#FFFFFF;}
	.st2{fill:url(#SVGID_1_);}
	.st3{fill:#F1F2F2;}
	.st4{fill:#FAA31A;}
	.st5{fill:url(#SVGID_2_);}
	.st6{fill:url(#SVGID_3_);}
	.st7{fill:#F4D7CE;}
	.st8{fill:#FEBB00;}
	.st9{fill:#194767;}
	.st10{fill:#00A79D;}
	.st11{fill:#825204;}
	.st12{fill:#2D5DEA;}
	.st13{fill-rule:evenodd;clip-rule:evenodd;fill:#E3EEF7;}
	.st14{fill-rule:evenodd;clip-rule:evenodd;fill:#FFFFFF;}
	.st15{fill-rule:evenodd;clip-rule:evenodd;fill:#282B2E;}
	.st16{fill:none;stroke:#D1D3D4;stroke-width:0.125;stroke-miterlimit:10;}
	.st17{fill:#231F20;}
	.st18{fill-rule:evenodd;clip-rule:evenodd;fill:#AFC4D5;}
	.st19{fill:#BCBEC0;}
	.st20{fill:#939598;}
	.st21{fill:#FCD2C5;}
	.st22{fill:#061338;}
	.st23{fill:#E3EEF7;}
	.st24{opacity:0.72;fill-rule:evenodd;clip-rule:evenodd;fill:#E6E7E8;}
	.st25{opacity:0.72;fill-rule:evenodd;clip-rule:evenodd;fill:#808285;}
	.st26{fill-rule:evenodd;clip-rule:evenodd;fill:#F0F1F2;}
	.st27{opacity:0.72;fill-rule:evenodd;clip-rule:evenodd;fill:#EFEFEF;}
	.st28{fill-rule:evenodd;clip-rule:evenodd;fill:#E6E7E8;}
	.st29{fill:#FFC7B0;}
	.st30{fill:#50514F;}
	.st31{filter:url(#Adobe_OpacityMaskFilter);}
	.st32{filter:url(#Adobe_OpacityMaskFilter_1_);}
	.st33{mask:url(#SVGID_4_);fill:url(#SVGID_5_);}
	.st34{opacity:0.2;fill:url(#SVGID_6_);}
	.st35{filter:url(#Adobe_OpacityMaskFilter_2_);}
	.st36{filter:url(#Adobe_OpacityMaskFilter_3_);}
	.st37{mask:url(#SVGID_7_);fill:url(#SVGID_8_);}
	.st38{opacity:0.2;fill:url(#SVGID_9_);}
	.st39{filter:url(#Adobe_OpacityMaskFilter_4_);}
	.st40{filter:url(#Adobe_OpacityMaskFilter_5_);}
	.st41{mask:url(#SVGID_10_);fill:url(#SVGID_11_);}
	.st42{opacity:0.2;fill:url(#SVGID_12_);}
	.st43{filter:url(#Adobe_OpacityMaskFilter_6_);}
	.st44{filter:url(#Adobe_OpacityMaskFilter_7_);}
	.st45{mask:url(#SVGID_13_);fill:url(#SVGID_14_);}
	.st46{opacity:0.3;fill:url(#SVGID_15_);}
	.st47{filter:url(#Adobe_OpacityMaskFilter_8_);}
	.st48{filter:url(#Adobe_OpacityMaskFilter_9_);}
	.st49{mask:url(#SVGID_16_);fill:url(#SVGID_17_);}
	.st50{opacity:0.3;fill:url(#SVGID_18_);}
	.st51{filter:url(#Adobe_OpacityMaskFilter_10_);}
	.st52{filter:url(#Adobe_OpacityMaskFilter_11_);}
	.st53{mask:url(#SVGID_19_);fill:url(#SVGID_20_);}
	.st54{opacity:0.3;fill:url(#SVGID_21_);}
	.st55{filter:url(#Adobe_OpacityMaskFilter_12_);}
	.st56{filter:url(#Adobe_OpacityMaskFilter_13_);}
	.st57{mask:url(#SVGID_22_);fill:url(#SVGID_23_);}
	.st58{opacity:0.2;fill:url(#SVGID_24_);}
	.st59{filter:url(#Adobe_OpacityMaskFilter_14_);}
	.st60{filter:url(#Adobe_OpacityMaskFilter_15_);}
	.st61{mask:url(#SVGID_25_);fill:url(#SVGID_26_);}
	.st62{opacity:0.2;fill:url(#SVGID_27_);}
	.st63{fill:#081E69;}
	.st64{fill:#58595B;}
	.st65{opacity:0.12;fill:#6D6E71;}
	.st66{fill:#F2F2F2;}
	.st67{fill:#6D6E71;}
	.st68{opacity:0.4;fill:#FFFFFF;}
	.st69{opacity:0.3;fill:#BCBEC0;}
	.st70{fill:#596068;}
	.st71{filter:url(#Adobe_OpacityMaskFilter_16_);}
	.st72{filter:url(#Adobe_OpacityMaskFilter_17_);}
	.st73{mask:url(#SVGID_28_);fill:url(#SVGID_29_);}
	.st74{opacity:0.2;fill:url(#SVGID_30_);}
	.st75{fill:#E3D7C9;}
	.st76{fill:#A7A9AC;}
	.st77{filter:url(#Adobe_OpacityMaskFilter_18_);}
	.st78{filter:url(#Adobe_OpacityMaskFilter_19_);}
	.st79{mask:url(#SVGID_31_);fill:url(#SVGID_32_);}
	.st80{opacity:0.2;fill:url(#SVGID_33_);}
	.st81{filter:url(#Adobe_OpacityMaskFilter_20_);}
	.st82{filter:url(#Adobe_OpacityMaskFilter_21_);}
	.st83{mask:url(#SVGID_34_);fill:url(#SVGID_35_);}
	.st84{opacity:0.2;fill:url(#SVGID_36_);}
	.st85{filter:url(#Adobe_OpacityMaskFilter_22_);}
	.st86{filter:url(#Adobe_OpacityMaskFilter_23_);}
	.st87{mask:url(#SVGID_37_);fill:url(#SVGID_38_);}
	.st88{opacity:0.2;fill:url(#SVGID_39_);}
	.st89{filter:url(#Adobe_OpacityMaskFilter_24_);}
	.st90{filter:url(#Adobe_OpacityMaskFilter_25_);}
	.st91{mask:url(#SVGID_40_);fill:url(#SVGID_41_);}
	.st92{opacity:0.2;fill:url(#SVGID_42_);}
	.st93{filter:url(#Adobe_OpacityMaskFilter_26_);}
	.st94{filter:url(#Adobe_OpacityMaskFilter_27_);}
	.st95{mask:url(#SVGID_43_);fill:url(#SVGID_44_);}
	.st96{opacity:0.2;fill:url(#SVGID_45_);}
	.st97{filter:url(#Adobe_OpacityMaskFilter_28_);}
	.st98{filter:url(#Adobe_OpacityMaskFilter_29_);}
	.st99{mask:url(#SVGID_46_);fill:url(#SVGID_47_);}
	.st100{opacity:0.2;fill:url(#SVGID_48_);}
	.st101{fill:#E6E7E8;}
	.st102{opacity:0.2;}
	.st103{fill:#FFFFF7;}
	.st104{opacity:0.1;}
	.st105{filter:url(#Adobe_OpacityMaskFilter_30_);}
	.st106{filter:url(#Adobe_OpacityMaskFilter_31_);}
	.st107{mask:url(#SVGID_49_);fill:url(#SVGID_50_);}
	.st108{opacity:0.6;fill:url(#SVGID_51_);}
	.st109{filter:url(#Adobe_OpacityMaskFilter_32_);}
	.st110{filter:url(#Adobe_OpacityMaskFilter_33_);}
	.st111{mask:url(#SVGID_52_);fill:url(#SVGID_53_);}
	.st112{fill:url(#SVGID_54_);}
	.st113{filter:url(#Adobe_OpacityMaskFilter_34_);}
	.st114{filter:url(#Adobe_OpacityMaskFilter_35_);}
	.st115{mask:url(#SVGID_55_);fill:url(#SVGID_56_);}
	.st116{opacity:0.2;fill:url(#SVGID_57_);}
	.st117{filter:url(#Adobe_OpacityMaskFilter_36_);}
	.st118{filter:url(#Adobe_OpacityMaskFilter_37_);}
	.st119{mask:url(#SVGID_58_);fill:url(#SVGID_59_);}
	.st120{opacity:0.2;fill:url(#SVGID_60_);}
	.st121{filter:url(#Adobe_OpacityMaskFilter_38_);}
	.st122{filter:url(#Adobe_OpacityMaskFilter_39_);}
	.st123{mask:url(#SVGID_61_);fill:url(#SVGID_62_);}
	.st124{fill:url(#SVGID_63_);}
	.st125{filter:url(#Adobe_OpacityMaskFilter_40_);}
	.st126{filter:url(#Adobe_OpacityMaskFilter_41_);}
	.st127{mask:url(#SVGID_64_);fill:url(#SVGID_65_);}
	.st128{fill:url(#SVGID_66_);}
	.st129{filter:url(#Adobe_OpacityMaskFilter_42_);}
	.st130{filter:url(#Adobe_OpacityMaskFilter_43_);}
	.st131{mask:url(#SVGID_67_);fill:url(#SVGID_68_);}
	.st132{opacity:0.1;fill:url(#SVGID_69_);}
	.st133{filter:url(#Adobe_OpacityMaskFilter_44_);}
	.st134{filter:url(#Adobe_OpacityMaskFilter_45_);}
	.st135{mask:url(#SVGID_70_);fill:url(#SVGID_71_);}
	.st136{opacity:0.2;fill:url(#SVGID_72_);}
	.st137{filter:url(#Adobe_OpacityMaskFilter_46_);}
	.st138{filter:url(#Adobe_OpacityMaskFilter_47_);}
	.st139{mask:url(#SVGID_73_);fill:url(#SVGID_74_);}
	.st140{opacity:0.2;fill:url(#SVGID_75_);}
	.st141{filter:url(#Adobe_OpacityMaskFilter_48_);}
	.st142{filter:url(#Adobe_OpacityMaskFilter_49_);}
	.st143{mask:url(#SVGID_76_);fill:url(#SVGID_77_);}
	.st144{opacity:0.2;fill:url(#SVGID_78_);}
	.st145{fill:#EEB292;}
	.st146{filter:url(#Adobe_OpacityMaskFilter_50_);}
	.st147{filter:url(#Adobe_OpacityMaskFilter_51_);}
	.st148{mask:url(#SVGID_79_);fill:url(#SVGID_80_);}
	.st149{opacity:0.2;fill:url(#SVGID_81_);}
	.st150{filter:url(#Adobe_OpacityMaskFilter_52_);}
	.st151{filter:url(#Adobe_OpacityMaskFilter_53_);}
	.st152{mask:url(#SVGID_82_);fill:url(#SVGID_83_);}
	.st153{opacity:0.2;fill:url(#SVGID_84_);}
	.st154{filter:url(#Adobe_OpacityMaskFilter_54_);}
	.st155{filter:url(#Adobe_OpacityMaskFilter_55_);}
	.st156{mask:url(#SVGID_85_);fill:url(#SVGID_86_);}
	.st157{opacity:0.2;fill:url(#SVGID_87_);}
	.st158{filter:url(#Adobe_OpacityMaskFilter_56_);}
	.st159{filter:url(#Adobe_OpacityMaskFilter_57_);}
	.st160{mask:url(#SVGID_88_);fill:url(#SVGID_89_);}
	.st161{opacity:0.2;fill:url(#SVGID_90_);}
	.st162{filter:url(#Adobe_OpacityMaskFilter_58_);}
	.st163{filter:url(#Adobe_OpacityMaskFilter_59_);}
	.st164{mask:url(#SVGID_91_);fill:url(#SVGID_92_);}
	.st165{opacity:0.2;fill:url(#SVGID_93_);}
	.st166{filter:url(#Adobe_OpacityMaskFilter_60_);}
	.st167{filter:url(#Adobe_OpacityMaskFilter_61_);}
	.st168{mask:url(#SVGID_94_);fill:url(#SVGID_95_);}
	.st169{opacity:0.1;fill:url(#SVGID_96_);}
	.st170{filter:url(#Adobe_OpacityMaskFilter_62_);}
	.st171{filter:url(#Adobe_OpacityMaskFilter_63_);}
	.st172{mask:url(#SVGID_97_);fill:url(#SVGID_98_);}
	.st173{opacity:0.1;fill:url(#SVGID_99_);}
	.st174{filter:url(#Adobe_OpacityMaskFilter_64_);}
	.st175{filter:url(#Adobe_OpacityMaskFilter_65_);}
	.st176{mask:url(#SVGID_100_);fill:url(#SVGID_101_);}
	.st177{opacity:0.2;fill:url(#SVGID_102_);}
	.st178{filter:url(#Adobe_OpacityMaskFilter_66_);}
	.st179{filter:url(#Adobe_OpacityMaskFilter_67_);}
	.st180{mask:url(#SVGID_103_);fill:url(#SVGID_104_);}
	.st181{opacity:0.2;fill:url(#SVGID_105_);}
	.st182{filter:url(#Adobe_OpacityMaskFilter_68_);}
	.st183{filter:url(#Adobe_OpacityMaskFilter_69_);}
	.st184{mask:url(#SVGID_106_);fill:url(#SVGID_107_);}
	.st185{opacity:0.2;fill:url(#SVGID_108_);}
	.st186{filter:url(#Adobe_OpacityMaskFilter_70_);}
	.st187{filter:url(#Adobe_OpacityMaskFilter_71_);}
	.st188{mask:url(#SVGID_109_);fill:url(#SVGID_110_);}
	.st189{opacity:0.1;fill:url(#SVGID_111_);}
	.st190{fill:#3A3937;}
	.st191{fill:none;}
	.st192{fill:#808285;}
	.st193{fill:#D1D3D4;}
	.st194{fill:#295FD6;}
	.st195{fill:url(#SVGID_112_);}
	.st196{fill:url(#SVGID_113_);}
	.st197{fill:#A3AFBD;}
	.st198{fill:url(#SVGID_114_);}
	.st199{fill:url(#SVGID_115_);}
	.st200{fill:url(#SVGID_116_);}
	.st201{fill:url(#SVGID_117_);}
	.st202{fill:url(#SVGID_118_);}
	.st203{fill:url(#SVGID_119_);}
	.st204{fill-rule:evenodd;clip-rule:evenodd;fill:#295FD6;}
	.st205{fill-rule:evenodd;clip-rule:evenodd;fill:#081E69;}
	.st206{fill-rule:evenodd;clip-rule:evenodd;fill:#061338;}
	.st207{clip-path:url(#SVGID_121_);}
	.st208{fill:url(#SVGID_126_);}
	.st209{fill:url(#SVGID_127_);}
	.st210{fill:url(#SVGID_128_);}
	.st211{fill:url(#SVGID_129_);}
	.st212{fill:url(#SVGID_130_);}
	.st213{fill:url(#SVGID_131_);}
	.st214{fill:url(#SVGID_132_);}
	.st215{fill:url(#SVGID_133_);}
	.st216{fill-rule:evenodd;clip-rule:evenodd;fill:#FAA31A;}
	.st217{fill-rule:evenodd;clip-rule:evenodd;fill:#FCD305;}
	.st218{fill-rule:evenodd;clip-rule:evenodd;fill:#DB8D26;}
	.st219{fill:#D89D09;}
	.st220{fill:#414042;}
	.st221{fill:#0E338C;}
	.st222{clip-path:url(#SVGID_135_);}
	.st223{fill:#304B8E;}
	.st224{enable-background:new    ;}
	.st225{clip-path:url(#SVGID_137_);}
	.st226{fill:#FCD305;}
	.st227{fill:#FFEC00;}
	.st228{fill:#525252;}
</style>
<g>
	<circle class="st4" cx="48.94" cy="45.88" r="42.88"/>
</g>
<g>
	<path class="st1" d="M45.44,24.95c0.68,0.71,1.72,0.92,2.31,1.77c0.64,0.92,1.24,1.8,1.19,3c-0.05,1.27-0.01,2.55-0.01,3.88
		c1.01,0,1.98,0,2.92,0c0.2,0.22,0.35,0.4,0.59,0.67c0,0.85,0,1.83,0,2.89c3.24,0,6.43,0.08,9.61-0.03c2.14-0.07,3.94,0.77,5.4,2.07
		c1.43,1.27,2.39,3.04,2.4,5.07c0.04,6.22,0,12.43,0.02,18.65c0,0.84-0.23,1.53-0.84,2.1c-0.66,0.61-1.32,1.22-1.9,1.76
		c-1.09,0-2.02,0-3.01,0c-1.04-0.45-1.73-1.31-2.3-2.38c-1.47-2.77-3.18-5.4-4.54-8.23c-0.26-0.54-0.72-0.98-1.13-1.52
		c-4.77,0-9.58,0-14.52,0c-0.87,1.46-1.81,2.98-2.69,4.55c-1.11,1.97-2.12,4.01-3.29,5.95c-0.41,0.68-1.17,1.16-1.69,1.66
		c-0.87,0-1.57-0.02-2.26,0.01c-0.72,0.03-1.31-0.23-1.79-0.73c-0.65-0.68-1.27-1.38-1.9-2.07c0-6.98,0-13.95,0-20.93
		c0.12-0.09,0.31-0.17,0.34-0.28c0.75-3.61,4.44-5.69,7.15-5.66c2.71,0.03,5.43,0.01,8.2,0.01c0-1.07,0-2.04,0-2.89
		c0.23-0.27,0.39-0.45,0.57-0.67c0.95,0,1.92,0,2.93,0c0-0.93-0.09-1.81,0.02-2.66c0.12-0.89-0.39-1.61-0.47-2.4
		c-0.5-0.51-0.99-1.01-1.47-1.5c-3.25-0.73-6.53-0.14-9.78-0.4c-0.8-0.47-0.6-1.08-0.17-1.7C38.7,24.95,42.07,24.95,45.44,24.95z
		 M68.12,63c0-5.84,0-11.82,0-17.8c0-0.61-0.16-1.19-0.3-1.78c-0.68-2.94-3.59-4.52-6-4.52c-8.6,0-17.2,0-25.79-0.01
		c-0.68,0-1.31,0.13-1.95,0.35c-2.67,0.88-4.2,2.78-4.28,5.64c-0.16,6.09-0.05,12.19-0.05,18.14c0.69,1.57,1.74,2.3,3.47,1.99
		c0.32-0.43,0.68-0.94,1.07-1.41c1.12-1.35,1.67-3.04,2.62-4.5c0.74-1.12,1.24-2.39,1.92-3.55c0.56-0.95,1.22-1.83,1.8-2.68
		c5.59,0,11.05,0,16.51,0c0.29,0.29,0.68,0.52,0.85,0.87c1.42,2.92,3.28,5.59,4.71,8.5c0.53,1.09,1.19,2.13,2.15,2.8
		C66.49,65.26,67.48,64.5,68.12,63z M50.65,35.47c-1.82,0-3.48,0-5.22,0c0.03,0.61,0.06,1.15,0.08,1.63c1.79,0,3.45,0,5.14,0
		C50.65,36.54,50.65,36.03,50.65,35.47z"/>
	<path class="st1" d="M41.43,45.82c0.64,0.97,0.64,0.97,0.02,1.8c-0.92,0-1.9,0-2.92,0c0,1.03,0,2,0,2.92c-0.9,0.7-0.9,0.7-1.8,0.07
		c0-0.93,0-1.9,0-2.93c-1.03,0-2,0-2.92,0c-0.7-0.9-0.7-0.9-0.07-1.8c0.93,0,1.9,0,2.93,0c0-1.03,0-2,0-2.92
		c0.9-0.7,0.9-0.7,1.8-0.07c0,0.93,0,1.9,0,2.93C39.49,45.82,40.46,45.82,41.43,45.82z"/>
	<path class="st1" d="M60.37,45.21c-1.19-0.22-1.75-0.94-2.04-1.84c0.22-1.19,0.94-1.75,1.84-2.04c1.12,0.2,1.69,0.85,2.04,1.82
		C62.09,44.28,61.35,44.89,60.37,45.21z"/>
	<path class="st1" d="M58.72,46.78c-0.24,1.11-0.9,1.67-1.91,1.89c-1.13-0.11-1.7-0.83-1.96-1.89c0.11-1.13,0.83-1.7,1.89-1.96
		C57.88,44.93,58.45,45.65,58.72,46.78z"/>
	<path class="st1" d="M63.75,48.68c-1.07-0.18-1.67-0.85-1.92-1.94c0.18-1.07,0.85-1.67,1.94-1.92c1.07,0.18,1.67,0.85,1.92,1.94
		C65.51,47.83,64.83,48.43,63.75,48.68z"/>
	<path class="st1" d="M60.28,48.31c1.07,0.18,1.67,0.85,1.92,1.94c-0.18,1.07-0.85,1.67-1.94,1.92c-1.07-0.18-1.67-0.85-1.92-1.94
		C58.52,49.16,59.2,48.56,60.28,48.31z"/>
	<path class="st1" d="M44.74,49.37c1.1,0,2.03,0,2.96,0c0.66,0.82,0.66,0.82,0.03,1.74c-0.7,0-1.45-0.05-2.19,0.02
		c-0.54,0.04-1-0.15-1.11-0.58C44.35,50.19,44.63,49.75,44.74,49.37z"/>
	<path class="st1" d="M52.99,49.43c0.73,0.61,0.59,1.12-0.02,1.65c-0.94,0-1.91,0-2.84,0c-0.61-0.53-0.74-1.04-0.03-1.65
		C51,49.43,51.97,49.43,52.99,49.43z"/>
</g>
</svg>
