<?xml version="1.0" encoding="utf-8"?>
<!-- Generator: Adobe Illustrator 23.0.1, SVG Export Plug-In . SVG Version: 6.00 Build 0)  -->
<svg version="1.1" id="Layer_1" xmlns="http://www.w3.org/2000/svg" xmlns:xlink="http://www.w3.org/1999/xlink" x="0px" y="0px"
	 viewBox="0 0 97.87 94.23" style="enable-background:new 0 0 97.87 94.23;" xml:space="preserve">
<style type="text/css">
	.st0{fill:#F4F5F7;}
	.st1{fill:#FFFFFF;}
	.st2{fill:url(#SVGID_1_);}
	.st3{fill:#F1F2F2;}
	.st4{fill:#FAA31A;}
	.st5{fill:url(#SVGID_2_);}
	.st6{fill:url(#SVGID_3_);}
	.st7{fill:#F4D7CE;}
	.st8{fill:#FEBB00;}
	.st9{fill:#194767;}
	.st10{fill:#00A79D;}
	.st11{fill:#825204;}
	.st12{fill:#2D5DEA;}
	.st13{fill-rule:evenodd;clip-rule:evenodd;fill:#E3EEF7;}
	.st14{fill-rule:evenodd;clip-rule:evenodd;fill:#FFFFFF;}
	.st15{fill-rule:evenodd;clip-rule:evenodd;fill:#282B2E;}
	.st16{fill:none;stroke:#D1D3D4;stroke-width:0.125;stroke-miterlimit:10;}
	.st17{fill:#231F20;}
	.st18{fill-rule:evenodd;clip-rule:evenodd;fill:#AFC4D5;}
	.st19{fill:#BCBEC0;}
	.st20{fill:#939598;}
	.st21{fill:#FCD2C5;}
	.st22{fill:#061338;}
	.st23{fill:#E3EEF7;}
	.st24{opacity:0.72;fill-rule:evenodd;clip-rule:evenodd;fill:#E6E7E8;}
	.st25{opacity:0.72;fill-rule:evenodd;clip-rule:evenodd;fill:#808285;}
	.st26{fill-rule:evenodd;clip-rule:evenodd;fill:#F0F1F2;}
	.st27{opacity:0.72;fill-rule:evenodd;clip-rule:evenodd;fill:#EFEFEF;}
	.st28{fill-rule:evenodd;clip-rule:evenodd;fill:#E6E7E8;}
	.st29{fill:#FFC7B0;}
	.st30{fill:#50514F;}
	.st31{filter:url(#Adobe_OpacityMaskFilter);}
	.st32{filter:url(#Adobe_OpacityMaskFilter_1_);}
	.st33{mask:url(#SVGID_4_);fill:url(#SVGID_5_);}
	.st34{opacity:0.2;fill:url(#SVGID_6_);}
	.st35{filter:url(#Adobe_OpacityMaskFilter_2_);}
	.st36{filter:url(#Adobe_OpacityMaskFilter_3_);}
	.st37{mask:url(#SVGID_7_);fill:url(#SVGID_8_);}
	.st38{opacity:0.2;fill:url(#SVGID_9_);}
	.st39{filter:url(#Adobe_OpacityMaskFilter_4_);}
	.st40{filter:url(#Adobe_OpacityMaskFilter_5_);}
	.st41{mask:url(#SVGID_10_);fill:url(#SVGID_11_);}
	.st42{opacity:0.2;fill:url(#SVGID_12_);}
	.st43{filter:url(#Adobe_OpacityMaskFilter_6_);}
	.st44{filter:url(#Adobe_OpacityMaskFilter_7_);}
	.st45{mask:url(#SVGID_13_);fill:url(#SVGID_14_);}
	.st46{opacity:0.3;fill:url(#SVGID_15_);}
	.st47{filter:url(#Adobe_OpacityMaskFilter_8_);}
	.st48{filter:url(#Adobe_OpacityMaskFilter_9_);}
	.st49{mask:url(#SVGID_16_);fill:url(#SVGID_17_);}
	.st50{opacity:0.3;fill:url(#SVGID_18_);}
	.st51{filter:url(#Adobe_OpacityMaskFilter_10_);}
	.st52{filter:url(#Adobe_OpacityMaskFilter_11_);}
	.st53{mask:url(#SVGID_19_);fill:url(#SVGID_20_);}
	.st54{opacity:0.3;fill:url(#SVGID_21_);}
	.st55{filter:url(#Adobe_OpacityMaskFilter_12_);}
	.st56{filter:url(#Adobe_OpacityMaskFilter_13_);}
	.st57{mask:url(#SVGID_22_);fill:url(#SVGID_23_);}
	.st58{opacity:0.2;fill:url(#SVGID_24_);}
	.st59{filter:url(#Adobe_OpacityMaskFilter_14_);}
	.st60{filter:url(#Adobe_OpacityMaskFilter_15_);}
	.st61{mask:url(#SVGID_25_);fill:url(#SVGID_26_);}
	.st62{opacity:0.2;fill:url(#SVGID_27_);}
	.st63{fill:#081E69;}
	.st64{fill:#58595B;}
	.st65{opacity:0.12;fill:#6D6E71;}
	.st66{fill:#F2F2F2;}
	.st67{fill:#6D6E71;}
	.st68{opacity:0.4;fill:#FFFFFF;}
	.st69{opacity:0.3;fill:#BCBEC0;}
	.st70{fill:#596068;}
	.st71{filter:url(#Adobe_OpacityMaskFilter_16_);}
	.st72{filter:url(#Adobe_OpacityMaskFilter_17_);}
	.st73{mask:url(#SVGID_28_);fill:url(#SVGID_29_);}
	.st74{opacity:0.2;fill:url(#SVGID_30_);}
	.st75{fill:#E3D7C9;}
	.st76{fill:#A7A9AC;}
	.st77{filter:url(#Adobe_OpacityMaskFilter_18_);}
	.st78{filter:url(#Adobe_OpacityMaskFilter_19_);}
	.st79{mask:url(#SVGID_31_);fill:url(#SVGID_32_);}
	.st80{opacity:0.2;fill:url(#SVGID_33_);}
	.st81{filter:url(#Adobe_OpacityMaskFilter_20_);}
	.st82{filter:url(#Adobe_OpacityMaskFilter_21_);}
	.st83{mask:url(#SVGID_34_);fill:url(#SVGID_35_);}
	.st84{opacity:0.2;fill:url(#SVGID_36_);}
	.st85{filter:url(#Adobe_OpacityMaskFilter_22_);}
	.st86{filter:url(#Adobe_OpacityMaskFilter_23_);}
	.st87{mask:url(#SVGID_37_);fill:url(#SVGID_38_);}
	.st88{opacity:0.2;fill:url(#SVGID_39_);}
	.st89{filter:url(#Adobe_OpacityMaskFilter_24_);}
	.st90{filter:url(#Adobe_OpacityMaskFilter_25_);}
	.st91{mask:url(#SVGID_40_);fill:url(#SVGID_41_);}
	.st92{opacity:0.2;fill:url(#SVGID_42_);}
	.st93{filter:url(#Adobe_OpacityMaskFilter_26_);}
	.st94{filter:url(#Adobe_OpacityMaskFilter_27_);}
	.st95{mask:url(#SVGID_43_);fill:url(#SVGID_44_);}
	.st96{opacity:0.2;fill:url(#SVGID_45_);}
	.st97{filter:url(#Adobe_OpacityMaskFilter_28_);}
	.st98{filter:url(#Adobe_OpacityMaskFilter_29_);}
	.st99{mask:url(#SVGID_46_);fill:url(#SVGID_47_);}
	.st100{opacity:0.2;fill:url(#SVGID_48_);}
	.st101{fill:#E6E7E8;}
	.st102{opacity:0.2;}
	.st103{fill:#FFFFF7;}
	.st104{opacity:0.1;}
	.st105{filter:url(#Adobe_OpacityMaskFilter_30_);}
	.st106{filter:url(#Adobe_OpacityMaskFilter_31_);}
	.st107{mask:url(#SVGID_49_);fill:url(#SVGID_50_);}
	.st108{opacity:0.6;fill:url(#SVGID_51_);}
	.st109{filter:url(#Adobe_OpacityMaskFilter_32_);}
	.st110{filter:url(#Adobe_OpacityMaskFilter_33_);}
	.st111{mask:url(#SVGID_52_);fill:url(#SVGID_53_);}
	.st112{fill:url(#SVGID_54_);}
	.st113{filter:url(#Adobe_OpacityMaskFilter_34_);}
	.st114{filter:url(#Adobe_OpacityMaskFilter_35_);}
	.st115{mask:url(#SVGID_55_);fill:url(#SVGID_56_);}
	.st116{opacity:0.2;fill:url(#SVGID_57_);}
	.st117{filter:url(#Adobe_OpacityMaskFilter_36_);}
	.st118{filter:url(#Adobe_OpacityMaskFilter_37_);}
	.st119{mask:url(#SVGID_58_);fill:url(#SVGID_59_);}
	.st120{opacity:0.2;fill:url(#SVGID_60_);}
	.st121{filter:url(#Adobe_OpacityMaskFilter_38_);}
	.st122{filter:url(#Adobe_OpacityMaskFilter_39_);}
	.st123{mask:url(#SVGID_61_);fill:url(#SVGID_62_);}
	.st124{fill:url(#SVGID_63_);}
	.st125{filter:url(#Adobe_OpacityMaskFilter_40_);}
	.st126{filter:url(#Adobe_OpacityMaskFilter_41_);}
	.st127{mask:url(#SVGID_64_);fill:url(#SVGID_65_);}
	.st128{fill:url(#SVGID_66_);}
	.st129{filter:url(#Adobe_OpacityMaskFilter_42_);}
	.st130{filter:url(#Adobe_OpacityMaskFilter_43_);}
	.st131{mask:url(#SVGID_67_);fill:url(#SVGID_68_);}
	.st132{opacity:0.1;fill:url(#SVGID_69_);}
	.st133{filter:url(#Adobe_OpacityMaskFilter_44_);}
	.st134{filter:url(#Adobe_OpacityMaskFilter_45_);}
	.st135{mask:url(#SVGID_70_);fill:url(#SVGID_71_);}
	.st136{opacity:0.2;fill:url(#SVGID_72_);}
	.st137{filter:url(#Adobe_OpacityMaskFilter_46_);}
	.st138{filter:url(#Adobe_OpacityMaskFilter_47_);}
	.st139{mask:url(#SVGID_73_);fill:url(#SVGID_74_);}
	.st140{opacity:0.2;fill:url(#SVGID_75_);}
	.st141{filter:url(#Adobe_OpacityMaskFilter_48_);}
	.st142{filter:url(#Adobe_OpacityMaskFilter_49_);}
	.st143{mask:url(#SVGID_76_);fill:url(#SVGID_77_);}
	.st144{opacity:0.2;fill:url(#SVGID_78_);}
	.st145{fill:#EEB292;}
	.st146{filter:url(#Adobe_OpacityMaskFilter_50_);}
	.st147{filter:url(#Adobe_OpacityMaskFilter_51_);}
	.st148{mask:url(#SVGID_79_);fill:url(#SVGID_80_);}
	.st149{opacity:0.2;fill:url(#SVGID_81_);}
	.st150{filter:url(#Adobe_OpacityMaskFilter_52_);}
	.st151{filter:url(#Adobe_OpacityMaskFilter_53_);}
	.st152{mask:url(#SVGID_82_);fill:url(#SVGID_83_);}
	.st153{opacity:0.2;fill:url(#SVGID_84_);}
	.st154{filter:url(#Adobe_OpacityMaskFilter_54_);}
	.st155{filter:url(#Adobe_OpacityMaskFilter_55_);}
	.st156{mask:url(#SVGID_85_);fill:url(#SVGID_86_);}
	.st157{opacity:0.2;fill:url(#SVGID_87_);}
	.st158{filter:url(#Adobe_OpacityMaskFilter_56_);}
	.st159{filter:url(#Adobe_OpacityMaskFilter_57_);}
	.st160{mask:url(#SVGID_88_);fill:url(#SVGID_89_);}
	.st161{opacity:0.2;fill:url(#SVGID_90_);}
	.st162{filter:url(#Adobe_OpacityMaskFilter_58_);}
	.st163{filter:url(#Adobe_OpacityMaskFilter_59_);}
	.st164{mask:url(#SVGID_91_);fill:url(#SVGID_92_);}
	.st165{opacity:0.2;fill:url(#SVGID_93_);}
	.st166{filter:url(#Adobe_OpacityMaskFilter_60_);}
	.st167{filter:url(#Adobe_OpacityMaskFilter_61_);}
	.st168{mask:url(#SVGID_94_);fill:url(#SVGID_95_);}
	.st169{opacity:0.1;fill:url(#SVGID_96_);}
	.st170{filter:url(#Adobe_OpacityMaskFilter_62_);}
	.st171{filter:url(#Adobe_OpacityMaskFilter_63_);}
	.st172{mask:url(#SVGID_97_);fill:url(#SVGID_98_);}
	.st173{opacity:0.1;fill:url(#SVGID_99_);}
	.st174{filter:url(#Adobe_OpacityMaskFilter_64_);}
	.st175{filter:url(#Adobe_OpacityMaskFilter_65_);}
	.st176{mask:url(#SVGID_100_);fill:url(#SVGID_101_);}
	.st177{opacity:0.2;fill:url(#SVGID_102_);}
	.st178{filter:url(#Adobe_OpacityMaskFilter_66_);}
	.st179{filter:url(#Adobe_OpacityMaskFilter_67_);}
	.st180{mask:url(#SVGID_103_);fill:url(#SVGID_104_);}
	.st181{opacity:0.2;fill:url(#SVGID_105_);}
	.st182{filter:url(#Adobe_OpacityMaskFilter_68_);}
	.st183{filter:url(#Adobe_OpacityMaskFilter_69_);}
	.st184{mask:url(#SVGID_106_);fill:url(#SVGID_107_);}
	.st185{opacity:0.2;fill:url(#SVGID_108_);}
	.st186{filter:url(#Adobe_OpacityMaskFilter_70_);}
	.st187{filter:url(#Adobe_OpacityMaskFilter_71_);}
	.st188{mask:url(#SVGID_109_);fill:url(#SVGID_110_);}
	.st189{opacity:0.1;fill:url(#SVGID_111_);}
	.st190{fill:#3A3937;}
	.st191{fill:none;}
	.st192{fill:#808285;}
	.st193{fill:#D1D3D4;}
	.st194{fill:#295FD6;}
	.st195{fill:url(#SVGID_112_);}
	.st196{fill:url(#SVGID_113_);}
	.st197{fill:#A3AFBD;}
	.st198{fill:url(#SVGID_114_);}
	.st199{fill:url(#SVGID_115_);}
	.st200{fill:url(#SVGID_116_);}
	.st201{fill:url(#SVGID_117_);}
	.st202{fill:url(#SVGID_118_);}
	.st203{fill:url(#SVGID_119_);}
	.st204{fill-rule:evenodd;clip-rule:evenodd;fill:#295FD6;}
	.st205{fill-rule:evenodd;clip-rule:evenodd;fill:#081E69;}
	.st206{fill-rule:evenodd;clip-rule:evenodd;fill:#061338;}
	.st207{clip-path:url(#SVGID_121_);}
	.st208{fill:url(#SVGID_126_);}
	.st209{fill:url(#SVGID_127_);}
	.st210{fill:url(#SVGID_128_);}
	.st211{fill:url(#SVGID_129_);}
	.st212{fill:url(#SVGID_130_);}
	.st213{fill:url(#SVGID_131_);}
	.st214{fill:url(#SVGID_132_);}
	.st215{fill:url(#SVGID_133_);}
	.st216{fill-rule:evenodd;clip-rule:evenodd;fill:#FAA31A;}
	.st217{fill-rule:evenodd;clip-rule:evenodd;fill:#FCD305;}
	.st218{fill-rule:evenodd;clip-rule:evenodd;fill:#DB8D26;}
	.st219{fill:#D89D09;}
	.st220{fill:#414042;}
	.st221{fill:#0E338C;}
	.st222{clip-path:url(#SVGID_135_);}
	.st223{fill:#304B8E;}
	.st224{enable-background:new    ;}
	.st225{clip-path:url(#SVGID_137_);}
	.st226{fill:#FCD305;}
	.st227{fill:#FFEC00;}
	.st228{fill:#525252;}
</style>
<g>
	<circle class="st4" cx="48.51" cy="45.46" r="42.88"/>
</g>
<g>
	<path class="st1" d="M68.53,50.49c-0.33-1.38-1.55-1.89-2.54-2.59c0-1.36,0.01-2.67,0-3.98c-0.01-1.19,0.01-2.36-0.4-3.54
		c-1-2.89-3.61-5.64-7.29-5.44c-0.92,0.05-1.85,0.01-2.84,0.01v-9.88l-0.58-0.58c-4.96,0-7.79,0-12.75,0l-0.65,0.65v9.8
		c-1.17,0-2.18,0-3.2,0c-1.32,0-1.59,0.08-3.13,0.87c-2.17,1.11-4.09,4.03-4.12,6.35c-0.03,1.95-0.01,3.89-0.01,5.54l-2.51,2.36
		c-0.39,2.49,0.25,4.11,2.46,4.98h1.82c2.29-0.9,2.89-2.53,2.49-4.59c-0.25-1.46-1.65-1.8-2.57-2.65c0.26-2.06-0.15-4.11,0.44-6.18
		c0.61-2.14,2.06-4.05,4.22-4.86c-0.49,1.22-0.31,1.48-0.46,2.14c-0.37,1.57-0.57,2.99-0.45,4.86c0.11,1.69,0.19,2.36,0.29,3.17
		c0.25,1.89,0.16,2.7,0.44,4.44c0.22,1.38,0.55,2.99,2.5,2.91v10.35l-2.56,0.11v1.68h22.74v-1.76h-2.62c0-1.8,0-3.54,0-5.27
		c0-1.73,0-3.45,0-5.2c1.19,0.15,1.86-0.47,2.15-1.26c0.57-1.52,1.3-3.04,1.32-4.7c0.02-2.17,0.02-1.48,0.02-1.28
		c0-0.01,0-0.01,0-0.02c0-1.67,0.01-3.35-0.01-5.02c-0.01-0.48-0.18-0.97-0.24-1.41c-0.17-1.11-0.23-1.72-0.36-3.59
		c0.74,0.52,1.46,0.92,2.06,1.47c1.48,1.34,1.77,3.23,2.01,5.05c0.2,1.49,0.04,3.02,0.04,4.2l-2.54,2.59
		c-0.38,2.54,0.44,4.05,2.51,4.83c0.66,0,1.31,0,1.8,0C68.25,54.19,68.9,52.57,68.53,50.49z M33.22,51.71
		c-0.1,0.77-0.8,1.32-1.57,1.22c-0.77-0.1-1.32-0.8-1.22-1.57c0.1-0.77,0.8-1.32,1.57-1.22C32.77,50.23,33.32,50.94,33.22,51.71z
		 M43.33,26.24h10.34c0,2.84,0,5.66,0,8.56c0.03-0.03-0.01,0.03-0.07,0.07c-0.05,0.04-0.12,0.07-0.19,0.07c-3.34,0-6.67,0-10.08,0
		V26.24z M41.72,64.6c-0.3-1.65-0.3-8.6,0.01-10.42c1.02,0,2.03,0,3.05,0c0.05,0.05,0.11,0.09,0.15,0.15
		c0.04,0.05,0.07,0.12,0.07,0.19c0,3.33,0,6.67,0,10.08H41.72z M50.19,64.57h-3.36V54.23h3.36V64.57z M55.43,64.64h-3.36V54.24
		c1.04-0.11,2.16-0.02,3.36-0.06V64.64z M57.69,52.34c-6.02,0-12.02,0-18.17,0l-0.57-1.62c6.41,0,12.72,0,19.26,0
		C58.21,51.53,57.69,51.95,57.69,52.34z M58.5,48.83H38.61c-1.33-4.07-0.34-8.04,0.85-12.07h18.11c0.34,1.32,0.74,2.56,0.97,3.82
		C58.79,41.97,58.67,47.4,58.5,48.83z M66.64,51.71c-0.1,0.77-0.8,1.32-1.57,1.22c-0.77-0.1-1.32-0.8-1.22-1.57
		c0.1-0.77,0.8-1.32,1.57-1.22C66.19,50.23,66.74,50.94,66.64,51.71z"/>
	<path class="st1" d="M60.75,46.96C60.75,47.03,60.75,47.01,60.75,46.96L60.75,46.96z"/>
	<path class="st1" d="M54.7,38.45h-0.11c-0.68,0-1.34,0.28-1.81,0.78l-0.09,0.09c-0.44,0.46-0.68,1.07-0.68,1.71v0.07
		c0,0.68,0.28,1.34,0.78,1.81l0.09,0.09c0.46,0.44,1.07,0.68,1.71,0.68h0.07c0.68,0,1.34-0.28,1.81-0.78l0.03-0.03
		c0.44-0.46,0.68-1.07,0.68-1.71v-0.22c0-0.66-0.26-1.29-0.73-1.76S55.36,38.45,54.7,38.45z M55.99,41.25
		c-0.1,0.77-0.8,1.32-1.57,1.22c-0.77-0.1-1.32-0.8-1.22-1.57s0.8-1.32,1.57-1.22C55.54,39.77,56.09,40.48,55.99,41.25z"/>
	<path class="st1" d="M41.58,45.4c0.56,0,1.04,0,1.61,0c0-2.42,0-4.65,0-6.97c-0.61,0.03-1.15,0.06-1.61,0.08
		C41.58,40.9,41.58,43.14,41.58,45.4z"/>
	<path class="st1" d="M45.08,45.4c0.56,0,1.04,0,1.61,0c0-2.42,0-4.65,0-6.97c-0.61,0.03-1.15,0.06-1.61,0.09
		C45.08,40.91,45.08,43.14,45.08,45.4z"/>
	<path class="st1" d="M51.39,27.99c-1.91,0-3.85,0-5.92,0c-0.9,1.46-0.23,3.07-0.48,4.53c0.21,0.21,0.37,0.37,0.68,0.68
		c1.9,0,3.79,0,5.68,0c0.21-0.21,0.41-0.41,0.6-0.6c0-1.38,0-2.75,0-4.05C51.73,28.34,51.58,28.18,51.39,27.99z M50.25,31.4
		c-1.1,0.12-2.23,0.02-3.42,0.06v-1.69c1.09-0.12,2.25-0.11,3.42,0V31.4z"/>
</g>
</svg>
