<?xml version="1.0" encoding="utf-8"?>
<!-- Generator: Adobe Illustrator 23.0.1, SVG Export Plug-In . SVG Version: 6.00 Build 0)  -->
<svg version="1.1" id="Layer_1" xmlns="http://www.w3.org/2000/svg" xmlns:xlink="http://www.w3.org/1999/xlink" x="0px" y="0px"
	 viewBox="0 0 212.87 253.09" style="enable-background:new 0 0 212.87 253.09;" xml:space="preserve">
<style type="text/css">
	.st0{fill:#295FD6;}
	.st1{fill:#081E69;}
	.st2{fill:#FFFFFF;}
	.st3{fill:#061338;}
	.st4{fill:url(#SVGID_1_);}
	.st5{fill:url(#SVGID_2_);}
	.st6{fill:#A3AFBD;}
	.st7{fill:url(#SVGID_3_);}
	.st8{fill:url(#SVGID_4_);}
	.st9{fill:url(#SVGID_5_);}
	.st10{fill:url(#SVGID_6_);}
	.st11{fill:url(#SVGID_7_);}
	.st12{fill:url(#SVGID_8_);}
	.st13{fill-rule:evenodd;clip-rule:evenodd;fill:#295FD6;}
	.st14{fill-rule:evenodd;clip-rule:evenodd;fill:#081E69;}
	.st15{fill-rule:evenodd;clip-rule:evenodd;fill:#061338;}
	.st16{fill-rule:evenodd;clip-rule:evenodd;fill:#FAA31A;}
	.st17{fill-rule:evenodd;clip-rule:evenodd;fill:#FCD305;}
	.st18{fill-rule:evenodd;clip-rule:evenodd;fill:#DB8D26;}
</style>
<g>
	<g>
		<g>
			<g>
				<polygon class="st0" points="21.42,190.21 83.34,227.15 145.25,190.21 83.34,153.27 				"/>
				<polygon class="st1" points="83.34,227.15 83.34,241.78 145.25,204.84 145.25,190.21 				"/>
				<path class="st2" d="M124.03,209.72l-27.78,16.04c-0.73,0.42-1.31,1.44-1.31,2.28s0.59,1.18,1.31,0.76l27.78-16.04
					c0.73-0.42,1.31-1.44,1.31-2.28C125.34,209.64,124.75,209.3,124.03,209.72z M91.37,228.57c-0.73,0.42-1.31,1.44-1.31,2.28
					s0.59,1.18,1.31,0.76c0.73-0.42,1.31-1.44,1.31-2.28S92.1,228.15,91.37,228.57z"/>
				<polygon class="st3" points="83.34,227.15 83.34,241.78 21.42,204.84 21.42,190.21 				"/>
				
					<linearGradient id="SVGID_1_" gradientUnits="userSpaceOnUse" x1="25.3991" y1="28.84" x2="144.6488" y2="127.2773" gradientTransform="matrix(1 0 0 -1 0 256)">
					<stop  offset="0" style="stop-color:#081E69"/>
					<stop  offset="1" style="stop-color:#0D65C4"/>
				</linearGradient>
				<polygon class="st4" points="83.34,220.54 32.1,189.97 32.1,180.42 83.34,149.85 				"/>
				
					<linearGradient id="SVGID_2_" gradientUnits="userSpaceOnUse" x1="31.1564" y1="21.8653" x2="150.4062" y2="120.3026" gradientTransform="matrix(1 0 0 -1 0 256)">
					<stop  offset="0" style="stop-color:#081E69"/>
					<stop  offset="1" style="stop-color:#0D65C4"/>
				</linearGradient>
				<polygon class="st5" points="83.34,149.85 134.58,180.42 134.58,189.97 83.34,220.54 				"/>
				<polygon class="st6" points="32.1,180.42 83.34,211 134.58,180.42 83.34,149.85 				"/>
				<polygon class="st1" points="83.34,213.94 60.69,200.42 60.69,204.64 83.34,218.16 105.98,204.64 105.98,200.42 				"/>
			</g>
			<g>
				<polygon class="st0" points="21.42,159.43 83.34,196.37 145.25,159.43 83.34,122.48 				"/>
				<polygon class="st1" points="83.34,196.37 83.34,211 145.25,174.05 145.25,159.43 				"/>
				<path class="st2" d="M124.03,178.94l-27.78,16.04c-0.73,0.42-1.31,1.44-1.31,2.28s0.59,1.18,1.31,0.76l27.78-16.04
					c0.73-0.42,1.31-1.44,1.31-2.28C125.34,178.86,124.75,178.52,124.03,178.94z M91.37,197.79c-0.73,0.42-1.31,1.44-1.31,2.28
					s0.59,1.18,1.31,0.76s1.31-1.44,1.31-2.28C92.68,197.71,92.1,197.37,91.37,197.79z"/>
				<polygon class="st3" points="83.34,196.37 83.34,211 21.42,174.05 21.42,159.43 				"/>
				
					<linearGradient id="SVGID_3_" gradientUnits="userSpaceOnUse" x1="10.2878" y1="47.1461" x2="129.5376" y2="145.5834" gradientTransform="matrix(1 0 0 -1 0 256)">
					<stop  offset="0" style="stop-color:#081E69"/>
					<stop  offset="1" style="stop-color:#0D65C4"/>
				</linearGradient>
				<polygon class="st7" points="83.34,189.76 32.1,159.19 32.1,149.64 83.34,119.06 				"/>
				
					<linearGradient id="SVGID_4_" gradientUnits="userSpaceOnUse" x1="16.0428" y1="40.1744" x2="135.2925" y2="138.6117" gradientTransform="matrix(1 0 0 -1 0 256)">
					<stop  offset="0" style="stop-color:#081E69"/>
					<stop  offset="1" style="stop-color:#0D65C4"/>
				</linearGradient>
				<polygon class="st8" points="83.34,119.06 134.58,149.64 134.58,159.19 83.34,189.76 				"/>
				<polygon class="st6" points="32.1,149.64 83.34,180.21 134.58,149.64 83.34,119.06 				"/>
				<polygon class="st1" points="83.34,183.15 60.69,169.64 60.69,173.86 83.34,187.37 105.98,173.86 105.98,169.64 				"/>
			</g>
			<g>
				<polygon class="st0" points="21.42,128.64 83.34,165.59 145.25,128.64 83.34,91.7 				"/>
				<polygon class="st1" points="83.34,165.59 83.34,180.21 145.25,143.27 145.25,128.64 				"/>
				<path class="st2" d="M124.03,148.15l-27.78,16.04c-0.73,0.42-1.31,1.44-1.31,2.28s0.59,1.18,1.31,0.76l27.78-16.04
					c0.73-0.42,1.31-1.44,1.31-2.28S124.75,147.73,124.03,148.15z M91.37,167.01c-0.73,0.42-1.31,1.44-1.31,2.28
					s0.59,1.18,1.31,0.76s1.31-1.44,1.31-2.28S92.1,166.59,91.37,167.01z"/>
				<polygon class="st3" points="83.34,165.59 83.34,180.21 21.42,143.27 21.42,128.64 				"/>
				
					<linearGradient id="SVGID_5_" gradientUnits="userSpaceOnUse" x1="-4.8234" y1="65.4522" x2="114.4264" y2="163.8895" gradientTransform="matrix(1 0 0 -1 0 256)">
					<stop  offset="0" style="stop-color:#081E69"/>
					<stop  offset="1" style="stop-color:#0D65C4"/>
				</linearGradient>
				<polygon class="st9" points="83.34,158.98 32.1,128.4 32.1,118.86 83.34,88.28 				"/>
				
					<linearGradient id="SVGID_6_" gradientUnits="userSpaceOnUse" x1="0.9291" y1="58.4836" x2="120.1789" y2="156.9209" gradientTransform="matrix(1 0 0 -1 0 256)">
					<stop  offset="0" style="stop-color:#081E69"/>
					<stop  offset="1" style="stop-color:#0D65C4"/>
				</linearGradient>
				<polygon class="st10" points="83.34,88.28 134.58,118.86 134.58,128.4 83.34,158.98 				"/>
				<polygon class="st6" points="32.1,118.86 83.34,149.43 134.58,118.86 83.34,88.28 				"/>
				<polygon class="st1" points="83.34,152.37 60.69,138.85 60.69,143.07 83.34,156.59 105.98,143.07 105.98,138.85 				"/>
			</g>
			<g>
				<polygon class="st0" points="21.42,97.86 83.34,134.8 145.25,97.86 83.34,60.91 				"/>
				<polygon class="st1" points="83.34,134.8 83.34,149.43 145.25,112.49 145.25,97.86 				"/>
				<path class="st2" d="M124.03,117.37l-27.78,16.04c-0.73,0.42-1.31,1.44-1.31,2.28s0.59,1.18,1.31,0.76l27.78-16.04
					c0.73-0.42,1.31-1.44,1.31-2.28S124.75,116.95,124.03,117.37z M91.37,136.22c-0.73,0.42-1.31,1.44-1.31,2.28
					s0.59,1.18,1.31,0.76s1.31-1.44,1.31-2.28S92.1,135.8,91.37,136.22z"/>
				<polygon class="st3" points="83.34,134.8 83.34,149.43 21.42,112.49 21.42,97.86 				"/>
				
					<linearGradient id="SVGID_7_" gradientUnits="userSpaceOnUse" x1="-19.9394" y1="83.7643" x2="99.3103" y2="182.2016" gradientTransform="matrix(1 0 0 -1 0 256)">
					<stop  offset="0" style="stop-color:#081E69"/>
					<stop  offset="1" style="stop-color:#0D65C4"/>
				</linearGradient>
				<polygon class="st11" points="83.34,128.19 32.1,97.62 32.1,88.07 83.34,57.5 				"/>
				
					<linearGradient id="SVGID_8_" gradientUnits="userSpaceOnUse" x1="-14.182" y1="76.7897" x2="105.0677" y2="175.227" gradientTransform="matrix(1 0 0 -1 0 256)">
					<stop  offset="0" style="stop-color:#081E69"/>
					<stop  offset="1" style="stop-color:#0D65C4"/>
				</linearGradient>
				<polygon class="st12" points="83.34,57.5 134.58,88.07 134.58,97.62 83.34,128.19 				"/>
				<polygon class="st6" points="32.1,88.07 83.34,118.65 134.58,88.07 83.34,57.5 				"/>
				<polygon class="st1" points="83.34,121.58 60.69,108.07 60.69,112.29 83.34,125.8 105.98,112.29 105.98,108.07 				"/>
			</g>
			<g>
				<g>
					<g>
						<path class="st13" d="M21.42,67.07l61.92,36.94l61.91-36.94l-61.7-36.82c-0.13-0.08-0.29-0.08-0.42,0L21.42,67.07z"/>
						<path class="st14" d="M83.34,104.07v14.4c0,0.07,0.08,0.12,0.14,0.08l61.72-36.83c0.03-0.02,0.05-0.05,0.05-0.08v-14.4
							c0-0.07-0.08-0.12-0.14-0.08l-61.72,36.83C83.35,104.01,83.34,104.04,83.34,104.07z"/>
						<path class="st2" d="M124.03,86.69L96.5,102.58c-0.78,0.45-1.39,1.19-1.53,2.07c-0.18,1.09,0.46,1.58,1.28,1.11l27.53-15.89
							c0.78-0.45,1.39-1.19,1.53-2.07C125.49,86.71,124.84,86.21,124.03,86.69z M91.08,105.74c-0.49,0.41-0.88,1.09-0.99,1.72
							c-0.22,1.26,0.59,1.73,1.57,0.91c0.49-0.41,0.88-1.09,0.99-1.72C92.87,105.39,92.06,104.92,91.08,105.74z"/>
						<path class="st15" d="M83.34,104.07v14.4c0,0.07-0.08,0.12-0.14,0.08L21.47,81.73c-0.03-0.02-0.05-0.05-0.05-0.08v-14.4
							c0-0.07,0.08-0.12,0.14-0.08L83.28,104C83.32,104.01,83.34,104.04,83.34,104.07z"/>
					</g>
				</g>
			</g>
		</g>
	</g>
	<g>
		<g>
			<g>
				<g>
					<polygon class="st16" points="80.53,44.72 142.45,81.67 204.36,44.72 142.45,7.78 					"/>
					<path class="st17" d="M142.45,81.72v14.4c0,0.07,0.08,0.12,0.14,0.08l61.72-36.83c0.03-0.02,0.05-0.05,0.05-0.08v-14.4
						c0-0.07-0.08-0.12-0.14-0.08L142.5,81.64C142.47,81.66,142.45,81.69,142.45,81.72z"/>
					<path class="st2" d="M183.14,64.34l-27.53,15.89c-0.78,0.45-1.39,1.19-1.53,2.07c-0.18,1.09,0.46,1.58,1.28,1.11l27.53-15.89
						c0.78-0.45,1.39-1.19,1.53-2.07C184.6,64.36,183.96,63.86,183.14,64.34z M150.2,83.39c-0.49,0.41-0.88,1.09-0.99,1.72
						c-0.22,1.26,0.59,1.73,1.57,0.91c0.49-0.41,0.88-1.09,0.99-1.72C151.98,83.04,151.18,82.57,150.2,83.39z"/>
					<path class="st18" d="M142.45,81.72v14.4c0,0.07-0.08,0.12-0.14,0.08L80.58,59.38c-0.03-0.02-0.05-0.05-0.05-0.08V44.9
						c0-0.07,0.08-0.12,0.14-0.08l61.72,36.83C142.43,81.66,142.45,81.69,142.45,81.72z"/>
				</g>
			</g>
		</g>
	</g>
</g>
</svg>
