<?xml version="1.0" encoding="utf-8"?>
<!-- Generator: Adobe Illustrator 23.0.1, SVG Export Plug-In . SVG Version: 6.00 Build 0)  -->
<svg version="1.1" id="Layer_1" xmlns="http://www.w3.org/2000/svg" xmlns:xlink="http://www.w3.org/1999/xlink" x="0px" y="0px"
	 viewBox="0 0 206.25 152.29" style="enable-background:new 0 0 206.25 152.29;" xml:space="preserve">
<style type="text/css">
	.st0{fill:#F4F5F7;}
	.st1{fill:#F1F2F2;}
	.st2{fill:#FAA31A;}
	.st3{fill:url(#SVGID_1_);}
	.st4{fill:url(#SVGID_2_);}
	.st5{fill:#F4D7CE;}
	.st6{fill:#FEBB00;}
	.st7{fill:#194767;}
	.st8{fill:#00A79D;}
	.st9{fill:#825204;}
	.st10{fill:#2D5DEA;}
	.st11{fill-rule:evenodd;clip-rule:evenodd;fill:#E3EEF7;}
	.st12{fill-rule:evenodd;clip-rule:evenodd;fill:#F1F2F2;}
	.st13{fill-rule:evenodd;clip-rule:evenodd;fill:#282B2E;}
	.st14{fill-rule:evenodd;clip-rule:evenodd;fill:#FFFFFF;}
	.st15{fill:none;stroke:#D1D3D4;stroke-width:0.125;stroke-miterlimit:10;}
	.st16{fill:#231F20;}
	.st17{fill-rule:evenodd;clip-rule:evenodd;fill:#AFC4D5;}
	.st18{fill:#BCBEC0;}
	.st19{fill:#939598;}
	.st20{fill:#FCD2C5;}
	.st21{fill:#061338;}
	.st22{fill:#E3EEF7;}
	.st23{opacity:0.72;fill-rule:evenodd;clip-rule:evenodd;fill:#E6E7E8;}
	.st24{opacity:0.72;fill-rule:evenodd;clip-rule:evenodd;fill:#808285;}
	.st25{fill-rule:evenodd;clip-rule:evenodd;fill:#F0F1F2;}
	.st26{opacity:0.72;fill-rule:evenodd;clip-rule:evenodd;fill:#EFEFEF;}
	.st27{fill-rule:evenodd;clip-rule:evenodd;fill:#E6E7E8;}
	.st28{fill:#FFC7B0;}
	.st29{fill:#50514F;}
	.st30{filter:url(#Adobe_OpacityMaskFilter);}
	.st31{filter:url(#Adobe_OpacityMaskFilter_1_);}
	.st32{mask:url(#SVGID_3_);fill:url(#SVGID_4_);}
	.st33{opacity:0.2;fill:url(#SVGID_5_);}
	.st34{filter:url(#Adobe_OpacityMaskFilter_2_);}
	.st35{filter:url(#Adobe_OpacityMaskFilter_3_);}
	.st36{mask:url(#SVGID_6_);fill:url(#SVGID_7_);}
	.st37{opacity:0.2;fill:url(#SVGID_8_);}
	.st38{filter:url(#Adobe_OpacityMaskFilter_4_);}
	.st39{filter:url(#Adobe_OpacityMaskFilter_5_);}
	.st40{mask:url(#SVGID_9_);fill:url(#SVGID_10_);}
	.st41{opacity:0.2;fill:url(#SVGID_11_);}
	.st42{filter:url(#Adobe_OpacityMaskFilter_6_);}
	.st43{filter:url(#Adobe_OpacityMaskFilter_7_);}
	.st44{mask:url(#SVGID_12_);fill:url(#SVGID_13_);}
	.st45{opacity:0.3;fill:url(#SVGID_14_);}
	.st46{filter:url(#Adobe_OpacityMaskFilter_8_);}
	.st47{filter:url(#Adobe_OpacityMaskFilter_9_);}
	.st48{mask:url(#SVGID_15_);fill:url(#SVGID_16_);}
	.st49{opacity:0.3;fill:url(#SVGID_17_);}
	.st50{filter:url(#Adobe_OpacityMaskFilter_10_);}
	.st51{filter:url(#Adobe_OpacityMaskFilter_11_);}
	.st52{mask:url(#SVGID_18_);fill:url(#SVGID_19_);}
	.st53{opacity:0.3;fill:url(#SVGID_20_);}
	.st54{filter:url(#Adobe_OpacityMaskFilter_12_);}
	.st55{filter:url(#Adobe_OpacityMaskFilter_13_);}
	.st56{mask:url(#SVGID_21_);fill:url(#SVGID_22_);}
	.st57{opacity:0.2;fill:url(#SVGID_23_);}
	.st58{fill:#081E69;}
	.st59{fill:#58595B;}
	.st60{opacity:0.12;fill:#6D6E71;}
	.st61{fill:#F2F2F2;}
	.st62{fill:#6D6E71;}
	.st63{opacity:0.4;fill:#FFFFFF;}
	.st64{opacity:0.3;fill:#BCBEC0;}
	.st65{fill:#596068;}
	.st66{filter:url(#Adobe_OpacityMaskFilter_14_);}
	.st67{filter:url(#Adobe_OpacityMaskFilter_15_);}
	.st68{mask:url(#SVGID_24_);fill:url(#SVGID_25_);}
	.st69{opacity:0.2;fill:url(#SVGID_26_);}
	.st70{fill:#E3D7C9;}
	.st71{fill:#A7A9AC;}
	.st72{filter:url(#Adobe_OpacityMaskFilter_16_);}
	.st73{filter:url(#Adobe_OpacityMaskFilter_17_);}
	.st74{mask:url(#SVGID_27_);fill:url(#SVGID_28_);}
	.st75{opacity:0.2;fill:url(#SVGID_29_);}
	.st76{filter:url(#Adobe_OpacityMaskFilter_18_);}
	.st77{filter:url(#Adobe_OpacityMaskFilter_19_);}
	.st78{mask:url(#SVGID_30_);fill:url(#SVGID_31_);}
	.st79{opacity:0.2;fill:url(#SVGID_32_);}
	.st80{filter:url(#Adobe_OpacityMaskFilter_20_);}
	.st81{filter:url(#Adobe_OpacityMaskFilter_21_);}
	.st82{mask:url(#SVGID_33_);fill:url(#SVGID_34_);}
	.st83{opacity:0.2;fill:url(#SVGID_35_);}
	.st84{filter:url(#Adobe_OpacityMaskFilter_22_);}
	.st85{filter:url(#Adobe_OpacityMaskFilter_23_);}
	.st86{mask:url(#SVGID_36_);fill:url(#SVGID_37_);}
	.st87{opacity:0.2;fill:url(#SVGID_38_);}
	.st88{filter:url(#Adobe_OpacityMaskFilter_24_);}
	.st89{filter:url(#Adobe_OpacityMaskFilter_25_);}
	.st90{mask:url(#SVGID_39_);fill:url(#SVGID_40_);}
	.st91{opacity:0.2;fill:url(#SVGID_41_);}
	.st92{fill:#E6E7E8;}
	.st93{opacity:0.2;}
	.st94{fill:#FFFFF7;}
	.st95{opacity:0.1;}
	.st96{fill:#FFFFFF;}
	.st97{filter:url(#Adobe_OpacityMaskFilter_26_);}
	.st98{filter:url(#Adobe_OpacityMaskFilter_27_);}
	.st99{mask:url(#SVGID_42_);fill:url(#SVGID_43_);}
	.st100{opacity:0.6;fill:url(#SVGID_44_);}
	.st101{filter:url(#Adobe_OpacityMaskFilter_28_);}
	.st102{filter:url(#Adobe_OpacityMaskFilter_29_);}
	.st103{mask:url(#SVGID_45_);fill:url(#SVGID_46_);}
	.st104{fill:url(#SVGID_47_);}
	.st105{filter:url(#Adobe_OpacityMaskFilter_30_);}
	.st106{filter:url(#Adobe_OpacityMaskFilter_31_);}
	.st107{mask:url(#SVGID_48_);fill:url(#SVGID_49_);}
	.st108{opacity:0.2;fill:url(#SVGID_50_);}
	.st109{filter:url(#Adobe_OpacityMaskFilter_32_);}
	.st110{filter:url(#Adobe_OpacityMaskFilter_33_);}
	.st111{mask:url(#SVGID_51_);fill:url(#SVGID_52_);}
	.st112{opacity:0.2;fill:url(#SVGID_53_);}
	.st113{filter:url(#Adobe_OpacityMaskFilter_34_);}
	.st114{filter:url(#Adobe_OpacityMaskFilter_35_);}
	.st115{mask:url(#SVGID_54_);fill:url(#SVGID_55_);}
	.st116{fill:url(#SVGID_56_);}
	.st117{filter:url(#Adobe_OpacityMaskFilter_36_);}
	.st118{filter:url(#Adobe_OpacityMaskFilter_37_);}
	.st119{mask:url(#SVGID_57_);fill:url(#SVGID_58_);}
	.st120{fill:url(#SVGID_59_);}
	.st121{filter:url(#Adobe_OpacityMaskFilter_38_);}
	.st122{filter:url(#Adobe_OpacityMaskFilter_39_);}
	.st123{mask:url(#SVGID_60_);fill:url(#SVGID_61_);}
	.st124{opacity:0.1;fill:url(#SVGID_62_);}
	.st125{filter:url(#Adobe_OpacityMaskFilter_40_);}
	.st126{filter:url(#Adobe_OpacityMaskFilter_41_);}
	.st127{mask:url(#SVGID_63_);fill:url(#SVGID_64_);}
	.st128{opacity:0.2;fill:url(#SVGID_65_);}
	.st129{filter:url(#Adobe_OpacityMaskFilter_42_);}
	.st130{filter:url(#Adobe_OpacityMaskFilter_43_);}
	.st131{mask:url(#SVGID_66_);fill:url(#SVGID_67_);}
	.st132{opacity:0.2;fill:url(#SVGID_68_);}
	.st133{filter:url(#Adobe_OpacityMaskFilter_44_);}
	.st134{filter:url(#Adobe_OpacityMaskFilter_45_);}
	.st135{mask:url(#SVGID_69_);fill:url(#SVGID_70_);}
	.st136{opacity:0.2;fill:url(#SVGID_71_);}
	.st137{fill:#EEB292;}
	.st138{filter:url(#Adobe_OpacityMaskFilter_46_);}
	.st139{filter:url(#Adobe_OpacityMaskFilter_47_);}
	.st140{mask:url(#SVGID_72_);fill:url(#SVGID_73_);}
	.st141{opacity:0.2;fill:url(#SVGID_74_);}
	.st142{filter:url(#Adobe_OpacityMaskFilter_48_);}
	.st143{filter:url(#Adobe_OpacityMaskFilter_49_);}
	.st144{mask:url(#SVGID_75_);fill:url(#SVGID_76_);}
	.st145{opacity:0.2;fill:url(#SVGID_77_);}
	.st146{filter:url(#Adobe_OpacityMaskFilter_50_);}
	.st147{filter:url(#Adobe_OpacityMaskFilter_51_);}
	.st148{mask:url(#SVGID_78_);fill:url(#SVGID_79_);}
	.st149{opacity:0.2;fill:url(#SVGID_80_);}
	.st150{filter:url(#Adobe_OpacityMaskFilter_52_);}
	.st151{filter:url(#Adobe_OpacityMaskFilter_53_);}
	.st152{mask:url(#SVGID_81_);fill:url(#SVGID_82_);}
	.st153{opacity:0.2;fill:url(#SVGID_83_);}
	.st154{filter:url(#Adobe_OpacityMaskFilter_54_);}
	.st155{filter:url(#Adobe_OpacityMaskFilter_55_);}
	.st156{mask:url(#SVGID_84_);fill:url(#SVGID_85_);}
	.st157{opacity:0.1;fill:url(#SVGID_86_);}
	.st158{filter:url(#Adobe_OpacityMaskFilter_56_);}
	.st159{filter:url(#Adobe_OpacityMaskFilter_57_);}
	.st160{mask:url(#SVGID_87_);fill:url(#SVGID_88_);}
	.st161{opacity:0.1;fill:url(#SVGID_89_);}
	.st162{filter:url(#Adobe_OpacityMaskFilter_58_);}
	.st163{filter:url(#Adobe_OpacityMaskFilter_59_);}
	.st164{mask:url(#SVGID_90_);fill:url(#SVGID_91_);}
	.st165{opacity:0.2;fill:url(#SVGID_92_);}
	.st166{filter:url(#Adobe_OpacityMaskFilter_60_);}
	.st167{filter:url(#Adobe_OpacityMaskFilter_61_);}
	.st168{mask:url(#SVGID_93_);fill:url(#SVGID_94_);}
	.st169{opacity:0.2;fill:url(#SVGID_95_);}
	.st170{filter:url(#Adobe_OpacityMaskFilter_62_);}
	.st171{filter:url(#Adobe_OpacityMaskFilter_63_);}
	.st172{mask:url(#SVGID_96_);fill:url(#SVGID_97_);}
	.st173{opacity:0.2;fill:url(#SVGID_98_);}
	.st174{filter:url(#Adobe_OpacityMaskFilter_64_);}
	.st175{filter:url(#Adobe_OpacityMaskFilter_65_);}
	.st176{mask:url(#SVGID_99_);fill:url(#SVGID_100_);}
	.st177{opacity:0.1;fill:url(#SVGID_101_);}
	.st178{fill:#3A3937;}
	.st179{fill:none;}
	.st180{fill:#808285;}
	.st181{fill:#D1D3D4;}
	.st182{fill:#295FD6;}
	.st183{fill:url(#SVGID_102_);}
	.st184{fill:url(#SVGID_103_);}
	.st185{fill:#A3AFBD;}
	.st186{fill:url(#SVGID_104_);}
	.st187{fill:url(#SVGID_105_);}
	.st188{fill:url(#SVGID_106_);}
	.st189{fill:url(#SVGID_107_);}
	.st190{fill:url(#SVGID_108_);}
	.st191{fill:url(#SVGID_109_);}
	.st192{fill-rule:evenodd;clip-rule:evenodd;fill:#295FD6;}
	.st193{fill-rule:evenodd;clip-rule:evenodd;fill:#081E69;}
	.st194{fill-rule:evenodd;clip-rule:evenodd;fill:#061338;}
	.st195{clip-path:url(#SVGID_111_);}
	.st196{fill:url(#SVGID_112_);}
	.st197{fill:url(#SVGID_113_);}
	.st198{fill:url(#SVGID_114_);}
	.st199{fill:url(#SVGID_115_);}
	.st200{fill:url(#SVGID_116_);}
	.st201{fill:url(#SVGID_117_);}
	.st202{fill:url(#SVGID_118_);}
	.st203{fill:url(#SVGID_119_);}
	.st204{fill-rule:evenodd;clip-rule:evenodd;fill:#FAA31A;}
	.st205{fill-rule:evenodd;clip-rule:evenodd;fill:#FCD305;}
	.st206{fill-rule:evenodd;clip-rule:evenodd;fill:#DB8D26;}
	.st207{fill:#D89D09;}
	.st208{fill:#414042;}
	.st209{fill:#0E338C;}
	.st210{clip-path:url(#SVGID_121_);}
	.st211{fill:#304B8E;}
	.st212{enable-background:new    ;}
	.st213{clip-path:url(#SVGID_123_);}
	.st214{fill:#7B8D96;}
	.st215{fill:#53B7E8;}
	.st216{fill:#FF317B;}
	.st217{fill:#FCD305;}
	.st218{fill:#FFEC00;}
	.st219{clip-path:url(#SVGID_125_);}
	.st220{fill:#4B58AD;}
</style>
<g>
	<g>
		<g>
			<g>
				<path class="st20" d="M191.77,138.94c0.56,0.28,2.27-1.85,2.36-2.47c-0.23-1.54-1.13-1.39-1.14-2.86
					c-0.18,1.28-0.64,2.59-1.2,3.76C191.43,137.99,190.87,138.58,191.77,138.94z"/>
				<path class="st20" d="M195.72,146.58c0.24,0.35,1.28,1.02,1.8,1.05c0.69,0.03,0.95-0.69,0.95-0.69
					c0.87,0.21,0.98-2.04,1.18-1.94c0.82,0.41,1.63-0.6,0.74-3.7c-0.05-0.19-0.72-8.25-1.15-10.81c-1.59,0.13-6.3,1.92-6.31,2.01
					c0.01,1.47,0.15,3.03,0.39,4.57c0.26,1.82,1.3,5.81,1.37,6.09C194.97,143.95,195.35,146.04,195.72,146.58z"/>
				<path class="st20" d="M192.96,132.97c2.55-0.84,4.73-1.38,6.43-1.46c-1.75-13.46-9.89-46.48-15.24-47.32
					c-4.91-0.77-6.63,2.52-6.77,4.97c-0.03,0.56,0.02,1.07,0.13,1.48C179.57,98.18,192.06,124.77,192.96,132.97z"/>
				<path class="st20" d="M175.88,92.07c11.28,8.21,12.98-2.59,10.37-6.18c-6.88-9.45-30.26-32.11-35.53-29.05
					c-2.28,1.33-11.67,13.08-10.67,13.93C145.56,75.43,166.68,85.37,175.88,92.07z"/>
			</g>
			<path class="st10" d="M178.59,94.31c0.95,3.23,2.38,7.54,3.89,12.09c3.29,9.92,7.39,22.27,7.59,27.05l9.79-1.18
				c-0.72-11.92-5.31-39.62-10.32-47.3c-5.09-8.04-24.98-26.34-46.95-39.67c-2.67-1.62-10.02,29.96-9.45,29.84
				C148.48,72.03,177.86,93.82,178.59,94.31z"/>
		</g>
		<g>
			<path class="st20" d="M19.56,37.79c0.46,1.22,1.09,2.46,1.9,3.47c-1.07-1.01-1.59-0.26-2.86-1.15c-0.38-0.49-0.75-3.2-0.16-3.4
				C19.31,36.3,19.35,37.11,19.56,37.79z"/>
			<path class="st20" d="M8.01,36.05c0,0-0.34-0.69,0.16-1.17c0.37-0.36,1.58-0.65,2-0.58c0.65,0.11,2.43,1.26,3.19,1.63
				c0.25,0.14,3.86,2.14,5.36,3.21c1.27,0.89,2.5,1.87,3.57,2.87c0.06,0.06-1.89,4.7-2.9,5.95c-2.15-1.46-8.45-6.53-8.62-6.62
				c-2.86-1.5-3.03-2.78-2.17-3.09C8.82,38.16,7.26,36.53,8.01,36.05z"/>
			<path class="st20" d="M63.25,59.68c0.38,0.2,0.78,0.52,1.16,0.93c1.68,1.79,2.87,5.31-1.07,8.33
				c-4.31,3.3-33.83-13.58-44.78-21.59c1.12-1.29,2.23-3.24,3.38-5.67C28.5,46.68,56.36,55.98,63.25,59.68z"/>
			<path class="st20" d="M63.34,57.52c11.19-2.05,32.95-10.49,40.14-11.26c1.3-0.14,3.34,14.76,2.73,17.33
				c-1.42,5.93-33.95,7.23-45.54,5.7C56.27,68.7,49.61,60.03,63.34,57.52z"/>
			<path class="st10" d="M60.38,56.54c0.84-0.25,39.87-12.53,52.85-13.73c4.83-0.45,13.75,17.91,11.14,19.63
				c-18.76,12.36-54.35,9.71-63.79,8.48c-9.11-1.05-33.36-15.21-42.99-22.26l5.34-8.29C26.73,43.28,57.28,55.2,60.38,56.54z"/>
		</g>
		<path class="st20" d="M121.46,26.24c0.86,0.63,9.72,5.54,12.25,5.15c-0.02,0.7-2.04,6.55-0.4,10.54
			c-0.7,3.71-11.2,6.83-14.04,0.55C120.45,40.69,121.96,29.66,121.46,26.24z"/>
		<path class="st10" d="M119.64,41.66c0,0,2.64,2.76,7,2.48c4.85-0.31,6.68-2.2,6.68-2.2s9.05,3.24,11.56,4.24
			c7.53,3,9.22,9.34,8.57,16.19c-0.16,1.66-6.19,89.87-6.19,89.87l-54.69,0.69c0,0,0.22-84.06,1.21-88.01
			C99.58,41.66,119.64,41.66,119.64,41.66z"/>
		<path class="st21" d="M120.49,7.5c7.68-5.17,19.53,1.24,22.2,8.93c1.99,5.73,4.51,2.04,4.39,0.55c0.45,3.74-1.34,6.83-8.44,5.77
			c-1.49-0.22,3.22,1.62,3.22,1.62s-8.78,15.25-20.27,10.52c-3.42-1.41-6.21-5.05-6.21-5.05s3.77,0.91,1.99-2.34
			C113.89,21.18,113.7,12.07,120.49,7.5z"/>
		<path class="st20" d="M126.97,14.67c4.66-0.32,9.17,0.75,10.2,5.15c0.37,1.57-0.29,15.8-7.88,17.96c-3.21,0.91-9.38-4.57-9.64-8.3
			c0,0-0.35-5.09-0.36-5.15C118.96,19.37,121.96,15.01,126.97,14.67z"/>
	</g>
	<polygon class="st21" points="92.56,152.93 147.25,152.23 149.85,114.31 144.75,75.69 99.6,75.69 92.56,114.31 	"/>
	<polygon class="st21" points="140.3,85.83 144.86,85.83 144.87,46.17 140.3,44.46 	"/>
	<polygon class="st21" points="99.64,85.08 104.2,85.08 104.2,44.37 99.64,45.42 	"/>
	
		<rect x="115.44" y="79.18" transform="matrix(-1 -4.482471e-11 4.482471e-11 -1 244.504 162.4888)" class="st211" width="13.61" height="4.12"/>
</g>
</svg>
